M48
; DRILL file {KiCad (5.1.6)-1} date 10/20/21 19:30:21
; FORMAT={3:3/ absolute / metric / suppress leading zeros}
; #@! TF.CreationDate,2021-10-20T19:30:21-05:00
; #@! TF.GenerationSoftware,Kicad,Pcbnew,(5.1.6)-1
FMAT,2
METRIC,TZ
T1C0.400
T2C0.600
T3C1.000
T4C1.100
T5C1.200
T6C1.800
T7C4.300
T8C2.400
%
G90
G05
T1
X78939Y-101769
X79555Y-100319
X80055Y-101452
X92232Y-101452
X94708Y-88499
X103490Y-105030
X104953Y-101358
X124000Y-89487
X133429Y-102151
X136006Y-109417
X142512Y-127518
X144260Y-108392
X145131Y-119605
X146861Y-88773
X150237Y-80901
X151340Y-113473
X152209Y-82068
X156698Y-98857
X169153Y-79434
X176091Y-94800
X176435Y-98467
X192260Y-90953
X195769Y-115387
X203954Y-122907
X211309Y-111099
X213544Y-122842
X217676Y-113621
X217922Y-123142
X222568Y-75307
X229414Y-113834
X230355Y-117231
X234689Y-114926
X235336Y-116943
X237491Y-113629
X238140Y-69628
X238445Y-124591
X239161Y-61985
X239161Y-78613
X241720Y-64218
X242848Y-88013
X243283Y-62052
X246814Y-112163
X247648Y-97708
X249716Y-107897
X251353Y-62067
X252845Y-113786
X255797Y-62100
T2
X116775Y-72000
X117720Y-69720
X117720Y-74280
X120000Y-68775
X120000Y-75225
X122280Y-69720
X122280Y-74280
X123225Y-72000
X44775Y-72000
X45720Y-69720
X45720Y-74280
X48000Y-68775
X48000Y-75225
X50280Y-69720
X50280Y-74280
X51225Y-72000
X188775Y-106000
X189720Y-103720
X189720Y-108280
X192000Y-102775
X192000Y-109225
X194280Y-103720
X194280Y-108280
X195225Y-106000
X188775Y-72000
X189720Y-69720
X189720Y-74280
X192000Y-68775
X192000Y-75225
X194280Y-69720
X194280Y-74280
X195225Y-72000
X44775Y-106000
X45720Y-103720
X45720Y-108280
X48000Y-102775
X48000Y-109225
X50280Y-103720
X50280Y-108280
X51225Y-106000
X116775Y-106000
X117720Y-103720
X117720Y-108280
X120000Y-102775
X120000Y-109225
X122280Y-103720
X122280Y-108280
X123225Y-106000
T3
X235190Y-121740
X235190Y-124280
X81650Y-122500
X81650Y-125040
X96000Y-121460
X96000Y-124000
X98540Y-121460
X98540Y-124000
X101080Y-121460
X101080Y-124000
X103620Y-121460
X103620Y-124000
X106160Y-121460
X106160Y-124000
X108700Y-121460
X108700Y-124000
X111240Y-121460
X111240Y-124000
X113780Y-121460
X113780Y-124000
X116320Y-121460
X116320Y-124000
X118860Y-121460
X118860Y-124000
X121400Y-121460
X121400Y-124000
X123940Y-121460
X123940Y-124000
X126480Y-121460
X126480Y-124000
X129020Y-121460
X129020Y-124000
X131560Y-121460
X131560Y-124000
X134100Y-121460
X134100Y-124000
X136640Y-121460
X136640Y-124000
X139180Y-121460
X139180Y-124000
X141720Y-121460
X141720Y-124000
X144260Y-121460
X144260Y-124000
X78000Y-122500
X78000Y-125040
X214000Y-62000
X214000Y-64540
X214000Y-67080
X214000Y-69620
X214000Y-72160
X214000Y-74700
X214000Y-77240
X214000Y-79780
X214000Y-82320
X214000Y-84860
X214000Y-87400
X214000Y-89940
X214000Y-92480
X214000Y-95020
X214000Y-97560
X229240Y-62000
X229240Y-64540
X229240Y-67080
X229240Y-69620
X229240Y-72160
X229240Y-74700
X229240Y-77240
X229240Y-79780
X229240Y-82320
X229240Y-84860
X229240Y-87400
X229240Y-89940
X229240Y-92480
X229240Y-95020
X229240Y-97560
X230540Y-121740
X230540Y-124280
T4
X252000Y-79800
X252000Y-82340
X252000Y-84880
X252000Y-91600
X252000Y-94140
X252000Y-96680
X241000Y-68400
X241000Y-70940
X241000Y-73480
X241000Y-80200
X241000Y-82740
X241000Y-85280
X241000Y-92000
X241000Y-94540
X241000Y-97080
X252000Y-68000
X252000Y-70540
X252000Y-73080
T5
X45000Y-124000
X48810Y-124000
T6
X50000Y-85000
X50000Y-93000
X52000Y-89000
X54000Y-85000
X54000Y-93000
X56000Y-89000
X58000Y-85000
X58000Y-93000
X60000Y-89000
X62000Y-85000
X62000Y-93000
X64000Y-89000
X66000Y-85000
X66000Y-93000
X68000Y-89000
X70000Y-85000
X70000Y-93000
X72000Y-89000
X74000Y-85000
X74000Y-93000
X76000Y-89000
X78000Y-85000
X78000Y-93000
X80000Y-89000
X82000Y-85000
X82000Y-93000
X84000Y-89000
X86000Y-85000
X86000Y-93000
X88000Y-89000
X90000Y-85000
X90000Y-93000
X150000Y-85000
X150000Y-93000
X152000Y-89000
X154000Y-85000
X154000Y-93000
X156000Y-89000
X158000Y-85000
X158000Y-93000
X160000Y-89000
X162000Y-85000
X162000Y-93000
X164000Y-89000
X166000Y-85000
X166000Y-93000
X168000Y-89000
X170000Y-85000
X170000Y-93000
X172000Y-89000
X174000Y-85000
X174000Y-93000
X176000Y-89000
X178000Y-85000
X178000Y-93000
X180000Y-89000
X182000Y-85000
X182000Y-93000
X184000Y-89000
X186000Y-85000
X186000Y-93000
X188000Y-89000
X190000Y-85000
X190000Y-93000
X100000Y-85000
X100000Y-93000
X102000Y-89000
X104000Y-85000
X104000Y-93000
X106000Y-89000
X108000Y-85000
X108000Y-93000
X110000Y-89000
X112000Y-85000
X112000Y-93000
X114000Y-89000
X116000Y-85000
X116000Y-93000
X118000Y-89000
X120000Y-85000
X120000Y-93000
X122000Y-89000
X124000Y-85000
X124000Y-93000
X126000Y-89000
X128000Y-85000
X128000Y-93000
X130000Y-89000
X132000Y-85000
X132000Y-93000
X134000Y-89000
X136000Y-85000
X136000Y-93000
X138000Y-89000
X140000Y-85000
X140000Y-93000
T7
X192000Y-106000
X192000Y-72000
X48000Y-106000
X120000Y-106000
X120000Y-72000
X48000Y-72000
T8
X40500Y-124000
X53310Y-124000
T0
M30
