%TF.GenerationSoftware,KiCad,Pcbnew,(5.1.6)-1*%
%TF.CreationDate,2021-10-20T19:30:18-05:00*%
%TF.ProjectId,Jeep JTEC,4a656570-204a-4544-9543-2e6b69636164,rev?*%
%TF.SameCoordinates,Original*%
%TF.FileFunction,Soldermask,Top*%
%TF.FilePolarity,Negative*%
%FSLAX46Y46*%
G04 Gerber Fmt 4.6, Leading zero omitted, Abs format (unit mm)*
G04 Created by KiCad (PCBNEW (5.1.6)-1) date 2021-10-20 19:30:18*
%MOMM*%
%LPD*%
G01*
G04 APERTURE LIST*
%ADD10C,2.600000*%
%ADD11O,1.800000X1.800000*%
%ADD12R,1.800000X1.800000*%
%ADD13R,2.400000X2.600000*%
%ADD14R,0.750000X1.160000*%
%ADD15C,1.000000*%
%ADD16C,8.700000*%
%ADD17C,2.500000*%
%ADD18O,1.900000X3.700000*%
%ADD19O,2.100000X2.005000*%
%ADD20R,2.100000X2.005000*%
%ADD21R,1.000000X0.900000*%
%ADD22C,1.800000*%
%ADD23O,1.700000X1.700000*%
%ADD24R,1.700000X1.700000*%
G04 APERTURE END LIST*
D10*
%TO.C,C1*%
X50000000Y-85000000D03*
X54000000Y-85000000D03*
X58000000Y-85000000D03*
X62000000Y-85000000D03*
X66000000Y-85000000D03*
X70000000Y-85000000D03*
X74000000Y-85000000D03*
X78000000Y-85000000D03*
X82000000Y-85000000D03*
X86000000Y-85000000D03*
X90000000Y-85000000D03*
X52000000Y-89000000D03*
X56000000Y-89000000D03*
X60000000Y-89000000D03*
X64000000Y-89000000D03*
X68000000Y-89000000D03*
X72000000Y-89000000D03*
X76000000Y-89000000D03*
X80000000Y-89000000D03*
X84000000Y-89000000D03*
X88000000Y-89000000D03*
X50000000Y-93000000D03*
X54000000Y-93000000D03*
X58000000Y-93000000D03*
X62000000Y-93000000D03*
X66000000Y-93000000D03*
X70000000Y-93000000D03*
X74000000Y-93000000D03*
X78000000Y-93000000D03*
X82000000Y-93000000D03*
X86000000Y-93000000D03*
X90000000Y-93000000D03*
%TD*%
%TO.C,C3*%
X150000000Y-85000000D03*
X154000000Y-85000000D03*
X158000000Y-85000000D03*
X162000000Y-85000000D03*
X166000000Y-85000000D03*
X170000000Y-85000000D03*
X174000000Y-85000000D03*
X178000000Y-85000000D03*
X182000000Y-85000000D03*
X186000000Y-85000000D03*
X190000000Y-85000000D03*
X152000000Y-89000000D03*
X156000000Y-89000000D03*
X160000000Y-89000000D03*
X164000000Y-89000000D03*
X168000000Y-89000000D03*
X172000000Y-89000000D03*
X176000000Y-89000000D03*
X180000000Y-89000000D03*
X184000000Y-89000000D03*
X188000000Y-89000000D03*
X150000000Y-93000000D03*
X154000000Y-93000000D03*
X158000000Y-93000000D03*
X162000000Y-93000000D03*
X166000000Y-93000000D03*
X170000000Y-93000000D03*
X174000000Y-93000000D03*
X178000000Y-93000000D03*
X182000000Y-93000000D03*
X186000000Y-93000000D03*
X190000000Y-93000000D03*
%TD*%
%TO.C,C2*%
X100000000Y-85000000D03*
X104000000Y-85000000D03*
X108000000Y-85000000D03*
X112000000Y-85000000D03*
X116000000Y-85000000D03*
X120000000Y-85000000D03*
X124000000Y-85000000D03*
X128000000Y-85000000D03*
X132000000Y-85000000D03*
X136000000Y-85000000D03*
X140000000Y-85000000D03*
X102000000Y-89000000D03*
X106000000Y-89000000D03*
X110000000Y-89000000D03*
X114000000Y-89000000D03*
X118000000Y-89000000D03*
X122000000Y-89000000D03*
X126000000Y-89000000D03*
X130000000Y-89000000D03*
X134000000Y-89000000D03*
X138000000Y-89000000D03*
X100000000Y-93000000D03*
X104000000Y-93000000D03*
X108000000Y-93000000D03*
X112000000Y-93000000D03*
X116000000Y-93000000D03*
X120000000Y-93000000D03*
X124000000Y-93000000D03*
X128000000Y-93000000D03*
X132000000Y-93000000D03*
X136000000Y-93000000D03*
X140000000Y-93000000D03*
%TD*%
D11*
%TO.C,JP5*%
X81650000Y-125040000D03*
D12*
X81650000Y-122500000D03*
%TD*%
D11*
%TO.C,JP4*%
X78000000Y-125040000D03*
D12*
X78000000Y-122500000D03*
%TD*%
D13*
%TO.C,D4*%
X252000000Y-103850000D03*
X252000000Y-108150000D03*
%TD*%
%TO.C,D3*%
X245550000Y-103850000D03*
X245550000Y-108150000D03*
%TD*%
%TO.C,D2*%
X239000000Y-103850000D03*
X239000000Y-108150000D03*
%TD*%
D14*
%TO.C,U2*%
X233000000Y-113720000D03*
X232050000Y-113720000D03*
X233950000Y-113720000D03*
X233950000Y-115920000D03*
X233000000Y-115920000D03*
X232050000Y-115920000D03*
%TD*%
%TO.C,R19*%
G36*
G01*
X198400000Y-126481250D02*
X198400000Y-125518750D01*
G75*
G02*
X198668750Y-125250000I268750J0D01*
G01*
X199206250Y-125250000D01*
G75*
G02*
X199475000Y-125518750I0J-268750D01*
G01*
X199475000Y-126481250D01*
G75*
G02*
X199206250Y-126750000I-268750J0D01*
G01*
X198668750Y-126750000D01*
G75*
G02*
X198400000Y-126481250I0J268750D01*
G01*
G37*
G36*
G01*
X196525000Y-126481250D02*
X196525000Y-125518750D01*
G75*
G02*
X196793750Y-125250000I268750J0D01*
G01*
X197331250Y-125250000D01*
G75*
G02*
X197600000Y-125518750I0J-268750D01*
G01*
X197600000Y-126481250D01*
G75*
G02*
X197331250Y-126750000I-268750J0D01*
G01*
X196793750Y-126750000D01*
G75*
G02*
X196525000Y-126481250I0J268750D01*
G01*
G37*
%TD*%
D15*
%TO.C,H6*%
X194280419Y-103719581D03*
X192000000Y-102775000D03*
X189719581Y-103719581D03*
X188775000Y-106000000D03*
X189719581Y-108280419D03*
X192000000Y-109225000D03*
X194280419Y-108280419D03*
X195225000Y-106000000D03*
D16*
X192000000Y-106000000D03*
%TD*%
D15*
%TO.C,H5*%
X194280419Y-69719581D03*
X192000000Y-68775000D03*
X189719581Y-69719581D03*
X188775000Y-72000000D03*
X189719581Y-74280419D03*
X192000000Y-75225000D03*
X194280419Y-74280419D03*
X195225000Y-72000000D03*
D16*
X192000000Y-72000000D03*
%TD*%
D15*
%TO.C,H4*%
X50280419Y-69719581D03*
X48000000Y-68775000D03*
X45719581Y-69719581D03*
X44775000Y-72000000D03*
X45719581Y-74280419D03*
X48000000Y-75225000D03*
X50280419Y-74280419D03*
X51225000Y-72000000D03*
D16*
X48000000Y-72000000D03*
%TD*%
D15*
%TO.C,H3*%
X122280419Y-69719581D03*
X120000000Y-68775000D03*
X117719581Y-69719581D03*
X116775000Y-72000000D03*
X117719581Y-74280419D03*
X120000000Y-75225000D03*
X122280419Y-74280419D03*
X123225000Y-72000000D03*
D16*
X120000000Y-72000000D03*
%TD*%
D15*
%TO.C,H2*%
X50280419Y-103719581D03*
X48000000Y-102775000D03*
X45719581Y-103719581D03*
X44775000Y-106000000D03*
X45719581Y-108280419D03*
X48000000Y-109225000D03*
X50280419Y-108280419D03*
X51225000Y-106000000D03*
D16*
X48000000Y-106000000D03*
%TD*%
D15*
%TO.C,H1*%
X122280419Y-103719581D03*
X120000000Y-102775000D03*
X117719581Y-103719581D03*
X116775000Y-106000000D03*
X117719581Y-108280419D03*
X120000000Y-109225000D03*
X122280419Y-108280419D03*
X123225000Y-106000000D03*
D16*
X120000000Y-106000000D03*
%TD*%
D17*
%TO.C,J2*%
X53310000Y-124000000D03*
X40500000Y-124000000D03*
D18*
X48810000Y-124000000D03*
G36*
G01*
X44050000Y-125586111D02*
X44050000Y-122413889D01*
G75*
G02*
X44313889Y-122150000I263889J0D01*
G01*
X45686111Y-122150000D01*
G75*
G02*
X45950000Y-122413889I0J-263889D01*
G01*
X45950000Y-125586111D01*
G75*
G02*
X45686111Y-125850000I-263889J0D01*
G01*
X44313889Y-125850000D01*
G75*
G02*
X44050000Y-125586111I0J263889D01*
G01*
G37*
%TD*%
%TO.C,U1*%
G36*
G01*
X219270000Y-120550000D02*
X218920000Y-120550000D01*
G75*
G02*
X218745000Y-120375000I0J175000D01*
G01*
X218745000Y-118675000D01*
G75*
G02*
X218920000Y-118500000I175000J0D01*
G01*
X219270000Y-118500000D01*
G75*
G02*
X219445000Y-118675000I0J-175000D01*
G01*
X219445000Y-120375000D01*
G75*
G02*
X219270000Y-120550000I-175000J0D01*
G01*
G37*
G36*
G01*
X220540000Y-120550000D02*
X220190000Y-120550000D01*
G75*
G02*
X220015000Y-120375000I0J175000D01*
G01*
X220015000Y-118675000D01*
G75*
G02*
X220190000Y-118500000I175000J0D01*
G01*
X220540000Y-118500000D01*
G75*
G02*
X220715000Y-118675000I0J-175000D01*
G01*
X220715000Y-120375000D01*
G75*
G02*
X220540000Y-120550000I-175000J0D01*
G01*
G37*
G36*
G01*
X221810000Y-120550000D02*
X221460000Y-120550000D01*
G75*
G02*
X221285000Y-120375000I0J175000D01*
G01*
X221285000Y-118675000D01*
G75*
G02*
X221460000Y-118500000I175000J0D01*
G01*
X221810000Y-118500000D01*
G75*
G02*
X221985000Y-118675000I0J-175000D01*
G01*
X221985000Y-120375000D01*
G75*
G02*
X221810000Y-120550000I-175000J0D01*
G01*
G37*
G36*
G01*
X223080000Y-120550000D02*
X222730000Y-120550000D01*
G75*
G02*
X222555000Y-120375000I0J175000D01*
G01*
X222555000Y-118675000D01*
G75*
G02*
X222730000Y-118500000I175000J0D01*
G01*
X223080000Y-118500000D01*
G75*
G02*
X223255000Y-118675000I0J-175000D01*
G01*
X223255000Y-120375000D01*
G75*
G02*
X223080000Y-120550000I-175000J0D01*
G01*
G37*
G36*
G01*
X223080000Y-125500000D02*
X222730000Y-125500000D01*
G75*
G02*
X222555000Y-125325000I0J175000D01*
G01*
X222555000Y-123625000D01*
G75*
G02*
X222730000Y-123450000I175000J0D01*
G01*
X223080000Y-123450000D01*
G75*
G02*
X223255000Y-123625000I0J-175000D01*
G01*
X223255000Y-125325000D01*
G75*
G02*
X223080000Y-125500000I-175000J0D01*
G01*
G37*
G36*
G01*
X221810000Y-125500000D02*
X221460000Y-125500000D01*
G75*
G02*
X221285000Y-125325000I0J175000D01*
G01*
X221285000Y-123625000D01*
G75*
G02*
X221460000Y-123450000I175000J0D01*
G01*
X221810000Y-123450000D01*
G75*
G02*
X221985000Y-123625000I0J-175000D01*
G01*
X221985000Y-125325000D01*
G75*
G02*
X221810000Y-125500000I-175000J0D01*
G01*
G37*
G36*
G01*
X220540000Y-125500000D02*
X220190000Y-125500000D01*
G75*
G02*
X220015000Y-125325000I0J175000D01*
G01*
X220015000Y-123625000D01*
G75*
G02*
X220190000Y-123450000I175000J0D01*
G01*
X220540000Y-123450000D01*
G75*
G02*
X220715000Y-123625000I0J-175000D01*
G01*
X220715000Y-125325000D01*
G75*
G02*
X220540000Y-125500000I-175000J0D01*
G01*
G37*
G36*
G01*
X219270000Y-125500000D02*
X218920000Y-125500000D01*
G75*
G02*
X218745000Y-125325000I0J175000D01*
G01*
X218745000Y-123625000D01*
G75*
G02*
X218920000Y-123450000I175000J0D01*
G01*
X219270000Y-123450000D01*
G75*
G02*
X219445000Y-123625000I0J-175000D01*
G01*
X219445000Y-125325000D01*
G75*
G02*
X219270000Y-125500000I-175000J0D01*
G01*
G37*
%TD*%
%TO.C,R18*%
G36*
G01*
X250400000Y-124481250D02*
X250400000Y-123518750D01*
G75*
G02*
X250668750Y-123250000I268750J0D01*
G01*
X251206250Y-123250000D01*
G75*
G02*
X251475000Y-123518750I0J-268750D01*
G01*
X251475000Y-124481250D01*
G75*
G02*
X251206250Y-124750000I-268750J0D01*
G01*
X250668750Y-124750000D01*
G75*
G02*
X250400000Y-124481250I0J268750D01*
G01*
G37*
G36*
G01*
X248525000Y-124481250D02*
X248525000Y-123518750D01*
G75*
G02*
X248793750Y-123250000I268750J0D01*
G01*
X249331250Y-123250000D01*
G75*
G02*
X249600000Y-123518750I0J-268750D01*
G01*
X249600000Y-124481250D01*
G75*
G02*
X249331250Y-124750000I-268750J0D01*
G01*
X248793750Y-124750000D01*
G75*
G02*
X248525000Y-124481250I0J268750D01*
G01*
G37*
%TD*%
%TO.C,R17*%
G36*
G01*
X252481250Y-59600000D02*
X251518750Y-59600000D01*
G75*
G02*
X251250000Y-59331250I0J268750D01*
G01*
X251250000Y-58793750D01*
G75*
G02*
X251518750Y-58525000I268750J0D01*
G01*
X252481250Y-58525000D01*
G75*
G02*
X252750000Y-58793750I0J-268750D01*
G01*
X252750000Y-59331250D01*
G75*
G02*
X252481250Y-59600000I-268750J0D01*
G01*
G37*
G36*
G01*
X252481250Y-61475000D02*
X251518750Y-61475000D01*
G75*
G02*
X251250000Y-61206250I0J268750D01*
G01*
X251250000Y-60668750D01*
G75*
G02*
X251518750Y-60400000I268750J0D01*
G01*
X252481250Y-60400000D01*
G75*
G02*
X252750000Y-60668750I0J-268750D01*
G01*
X252750000Y-61206250D01*
G75*
G02*
X252481250Y-61475000I-268750J0D01*
G01*
G37*
%TD*%
%TO.C,R16*%
G36*
G01*
X248361250Y-59570000D02*
X247398750Y-59570000D01*
G75*
G02*
X247130000Y-59301250I0J268750D01*
G01*
X247130000Y-58763750D01*
G75*
G02*
X247398750Y-58495000I268750J0D01*
G01*
X248361250Y-58495000D01*
G75*
G02*
X248630000Y-58763750I0J-268750D01*
G01*
X248630000Y-59301250D01*
G75*
G02*
X248361250Y-59570000I-268750J0D01*
G01*
G37*
G36*
G01*
X248361250Y-61445000D02*
X247398750Y-61445000D01*
G75*
G02*
X247130000Y-61176250I0J268750D01*
G01*
X247130000Y-60638750D01*
G75*
G02*
X247398750Y-60370000I268750J0D01*
G01*
X248361250Y-60370000D01*
G75*
G02*
X248630000Y-60638750I0J-268750D01*
G01*
X248630000Y-61176250D01*
G75*
G02*
X248361250Y-61445000I-268750J0D01*
G01*
G37*
%TD*%
%TO.C,R15*%
G36*
G01*
X244411250Y-59570000D02*
X243448750Y-59570000D01*
G75*
G02*
X243180000Y-59301250I0J268750D01*
G01*
X243180000Y-58763750D01*
G75*
G02*
X243448750Y-58495000I268750J0D01*
G01*
X244411250Y-58495000D01*
G75*
G02*
X244680000Y-58763750I0J-268750D01*
G01*
X244680000Y-59301250D01*
G75*
G02*
X244411250Y-59570000I-268750J0D01*
G01*
G37*
G36*
G01*
X244411250Y-61445000D02*
X243448750Y-61445000D01*
G75*
G02*
X243180000Y-61176250I0J268750D01*
G01*
X243180000Y-60638750D01*
G75*
G02*
X243448750Y-60370000I268750J0D01*
G01*
X244411250Y-60370000D01*
G75*
G02*
X244680000Y-60638750I0J-268750D01*
G01*
X244680000Y-61176250D01*
G75*
G02*
X244411250Y-61445000I-268750J0D01*
G01*
G37*
%TD*%
%TO.C,R14*%
G36*
G01*
X256481250Y-59600000D02*
X255518750Y-59600000D01*
G75*
G02*
X255250000Y-59331250I0J268750D01*
G01*
X255250000Y-58793750D01*
G75*
G02*
X255518750Y-58525000I268750J0D01*
G01*
X256481250Y-58525000D01*
G75*
G02*
X256750000Y-58793750I0J-268750D01*
G01*
X256750000Y-59331250D01*
G75*
G02*
X256481250Y-59600000I-268750J0D01*
G01*
G37*
G36*
G01*
X256481250Y-61475000D02*
X255518750Y-61475000D01*
G75*
G02*
X255250000Y-61206250I0J268750D01*
G01*
X255250000Y-60668750D01*
G75*
G02*
X255518750Y-60400000I268750J0D01*
G01*
X256481250Y-60400000D01*
G75*
G02*
X256750000Y-60668750I0J-268750D01*
G01*
X256750000Y-61206250D01*
G75*
G02*
X256481250Y-61475000I-268750J0D01*
G01*
G37*
%TD*%
%TO.C,R13*%
G36*
G01*
X240461250Y-59570000D02*
X239498750Y-59570000D01*
G75*
G02*
X239230000Y-59301250I0J268750D01*
G01*
X239230000Y-58763750D01*
G75*
G02*
X239498750Y-58495000I268750J0D01*
G01*
X240461250Y-58495000D01*
G75*
G02*
X240730000Y-58763750I0J-268750D01*
G01*
X240730000Y-59301250D01*
G75*
G02*
X240461250Y-59570000I-268750J0D01*
G01*
G37*
G36*
G01*
X240461250Y-61445000D02*
X239498750Y-61445000D01*
G75*
G02*
X239230000Y-61176250I0J268750D01*
G01*
X239230000Y-60638750D01*
G75*
G02*
X239498750Y-60370000I268750J0D01*
G01*
X240461250Y-60370000D01*
G75*
G02*
X240730000Y-60638750I0J-268750D01*
G01*
X240730000Y-61176250D01*
G75*
G02*
X240461250Y-61445000I-268750J0D01*
G01*
G37*
%TD*%
%TO.C,R12*%
G36*
G01*
X236511250Y-59570000D02*
X235548750Y-59570000D01*
G75*
G02*
X235280000Y-59301250I0J268750D01*
G01*
X235280000Y-58763750D01*
G75*
G02*
X235548750Y-58495000I268750J0D01*
G01*
X236511250Y-58495000D01*
G75*
G02*
X236780000Y-58763750I0J-268750D01*
G01*
X236780000Y-59301250D01*
G75*
G02*
X236511250Y-59570000I-268750J0D01*
G01*
G37*
G36*
G01*
X236511250Y-61445000D02*
X235548750Y-61445000D01*
G75*
G02*
X235280000Y-61176250I0J268750D01*
G01*
X235280000Y-60638750D01*
G75*
G02*
X235548750Y-60370000I268750J0D01*
G01*
X236511250Y-60370000D01*
G75*
G02*
X236780000Y-60638750I0J-268750D01*
G01*
X236780000Y-61176250D01*
G75*
G02*
X236511250Y-61445000I-268750J0D01*
G01*
G37*
%TD*%
%TO.C,R11*%
G36*
G01*
X244400000Y-124481250D02*
X244400000Y-123518750D01*
G75*
G02*
X244668750Y-123250000I268750J0D01*
G01*
X245206250Y-123250000D01*
G75*
G02*
X245475000Y-123518750I0J-268750D01*
G01*
X245475000Y-124481250D01*
G75*
G02*
X245206250Y-124750000I-268750J0D01*
G01*
X244668750Y-124750000D01*
G75*
G02*
X244400000Y-124481250I0J268750D01*
G01*
G37*
G36*
G01*
X242525000Y-124481250D02*
X242525000Y-123518750D01*
G75*
G02*
X242793750Y-123250000I268750J0D01*
G01*
X243331250Y-123250000D01*
G75*
G02*
X243600000Y-123518750I0J-268750D01*
G01*
X243600000Y-124481250D01*
G75*
G02*
X243331250Y-124750000I-268750J0D01*
G01*
X242793750Y-124750000D01*
G75*
G02*
X242525000Y-124481250I0J268750D01*
G01*
G37*
%TD*%
%TO.C,R10*%
G36*
G01*
X251481250Y-114600000D02*
X250518750Y-114600000D01*
G75*
G02*
X250250000Y-114331250I0J268750D01*
G01*
X250250000Y-113793750D01*
G75*
G02*
X250518750Y-113525000I268750J0D01*
G01*
X251481250Y-113525000D01*
G75*
G02*
X251750000Y-113793750I0J-268750D01*
G01*
X251750000Y-114331250D01*
G75*
G02*
X251481250Y-114600000I-268750J0D01*
G01*
G37*
G36*
G01*
X251481250Y-116475000D02*
X250518750Y-116475000D01*
G75*
G02*
X250250000Y-116206250I0J268750D01*
G01*
X250250000Y-115668750D01*
G75*
G02*
X250518750Y-115400000I268750J0D01*
G01*
X251481250Y-115400000D01*
G75*
G02*
X251750000Y-115668750I0J-268750D01*
G01*
X251750000Y-116206250D01*
G75*
G02*
X251481250Y-116475000I-268750J0D01*
G01*
G37*
%TD*%
%TO.C,R9*%
G36*
G01*
X250400000Y-120481250D02*
X250400000Y-119518750D01*
G75*
G02*
X250668750Y-119250000I268750J0D01*
G01*
X251206250Y-119250000D01*
G75*
G02*
X251475000Y-119518750I0J-268750D01*
G01*
X251475000Y-120481250D01*
G75*
G02*
X251206250Y-120750000I-268750J0D01*
G01*
X250668750Y-120750000D01*
G75*
G02*
X250400000Y-120481250I0J268750D01*
G01*
G37*
G36*
G01*
X248525000Y-120481250D02*
X248525000Y-119518750D01*
G75*
G02*
X248793750Y-119250000I268750J0D01*
G01*
X249331250Y-119250000D01*
G75*
G02*
X249600000Y-119518750I0J-268750D01*
G01*
X249600000Y-120481250D01*
G75*
G02*
X249331250Y-120750000I-268750J0D01*
G01*
X248793750Y-120750000D01*
G75*
G02*
X248525000Y-120481250I0J268750D01*
G01*
G37*
%TD*%
%TO.C,R8*%
G36*
G01*
X244481250Y-114600000D02*
X243518750Y-114600000D01*
G75*
G02*
X243250000Y-114331250I0J268750D01*
G01*
X243250000Y-113793750D01*
G75*
G02*
X243518750Y-113525000I268750J0D01*
G01*
X244481250Y-113525000D01*
G75*
G02*
X244750000Y-113793750I0J-268750D01*
G01*
X244750000Y-114331250D01*
G75*
G02*
X244481250Y-114600000I-268750J0D01*
G01*
G37*
G36*
G01*
X244481250Y-116475000D02*
X243518750Y-116475000D01*
G75*
G02*
X243250000Y-116206250I0J268750D01*
G01*
X243250000Y-115668750D01*
G75*
G02*
X243518750Y-115400000I268750J0D01*
G01*
X244481250Y-115400000D01*
G75*
G02*
X244750000Y-115668750I0J-268750D01*
G01*
X244750000Y-116206250D01*
G75*
G02*
X244481250Y-116475000I-268750J0D01*
G01*
G37*
%TD*%
%TO.C,R7*%
G36*
G01*
X244400000Y-120481250D02*
X244400000Y-119518750D01*
G75*
G02*
X244668750Y-119250000I268750J0D01*
G01*
X245206250Y-119250000D01*
G75*
G02*
X245475000Y-119518750I0J-268750D01*
G01*
X245475000Y-120481250D01*
G75*
G02*
X245206250Y-120750000I-268750J0D01*
G01*
X244668750Y-120750000D01*
G75*
G02*
X244400000Y-120481250I0J268750D01*
G01*
G37*
G36*
G01*
X242525000Y-120481250D02*
X242525000Y-119518750D01*
G75*
G02*
X242793750Y-119250000I268750J0D01*
G01*
X243331250Y-119250000D01*
G75*
G02*
X243600000Y-119518750I0J-268750D01*
G01*
X243600000Y-120481250D01*
G75*
G02*
X243331250Y-120750000I-268750J0D01*
G01*
X242793750Y-120750000D01*
G75*
G02*
X242525000Y-120481250I0J268750D01*
G01*
G37*
%TD*%
%TO.C,R6*%
G36*
G01*
X219481250Y-114600000D02*
X218518750Y-114600000D01*
G75*
G02*
X218250000Y-114331250I0J268750D01*
G01*
X218250000Y-113793750D01*
G75*
G02*
X218518750Y-113525000I268750J0D01*
G01*
X219481250Y-113525000D01*
G75*
G02*
X219750000Y-113793750I0J-268750D01*
G01*
X219750000Y-114331250D01*
G75*
G02*
X219481250Y-114600000I-268750J0D01*
G01*
G37*
G36*
G01*
X219481250Y-116475000D02*
X218518750Y-116475000D01*
G75*
G02*
X218250000Y-116206250I0J268750D01*
G01*
X218250000Y-115668750D01*
G75*
G02*
X218518750Y-115400000I268750J0D01*
G01*
X219481250Y-115400000D01*
G75*
G02*
X219750000Y-115668750I0J-268750D01*
G01*
X219750000Y-116206250D01*
G75*
G02*
X219481250Y-116475000I-268750J0D01*
G01*
G37*
%TD*%
%TO.C,R5*%
G36*
G01*
X256400000Y-120481250D02*
X256400000Y-119518750D01*
G75*
G02*
X256668750Y-119250000I268750J0D01*
G01*
X257206250Y-119250000D01*
G75*
G02*
X257475000Y-119518750I0J-268750D01*
G01*
X257475000Y-120481250D01*
G75*
G02*
X257206250Y-120750000I-268750J0D01*
G01*
X256668750Y-120750000D01*
G75*
G02*
X256400000Y-120481250I0J268750D01*
G01*
G37*
G36*
G01*
X254525000Y-120481250D02*
X254525000Y-119518750D01*
G75*
G02*
X254793750Y-119250000I268750J0D01*
G01*
X255331250Y-119250000D01*
G75*
G02*
X255600000Y-119518750I0J-268750D01*
G01*
X255600000Y-120481250D01*
G75*
G02*
X255331250Y-120750000I-268750J0D01*
G01*
X254793750Y-120750000D01*
G75*
G02*
X254525000Y-120481250I0J268750D01*
G01*
G37*
%TD*%
%TO.C,R4*%
G36*
G01*
X215481250Y-114600000D02*
X214518750Y-114600000D01*
G75*
G02*
X214250000Y-114331250I0J268750D01*
G01*
X214250000Y-113793750D01*
G75*
G02*
X214518750Y-113525000I268750J0D01*
G01*
X215481250Y-113525000D01*
G75*
G02*
X215750000Y-113793750I0J-268750D01*
G01*
X215750000Y-114331250D01*
G75*
G02*
X215481250Y-114600000I-268750J0D01*
G01*
G37*
G36*
G01*
X215481250Y-116475000D02*
X214518750Y-116475000D01*
G75*
G02*
X214250000Y-116206250I0J268750D01*
G01*
X214250000Y-115668750D01*
G75*
G02*
X214518750Y-115400000I268750J0D01*
G01*
X215481250Y-115400000D01*
G75*
G02*
X215750000Y-115668750I0J-268750D01*
G01*
X215750000Y-116206250D01*
G75*
G02*
X215481250Y-116475000I-268750J0D01*
G01*
G37*
%TD*%
%TO.C,R3*%
G36*
G01*
X211481250Y-114600000D02*
X210518750Y-114600000D01*
G75*
G02*
X210250000Y-114331250I0J268750D01*
G01*
X210250000Y-113793750D01*
G75*
G02*
X210518750Y-113525000I268750J0D01*
G01*
X211481250Y-113525000D01*
G75*
G02*
X211750000Y-113793750I0J-268750D01*
G01*
X211750000Y-114331250D01*
G75*
G02*
X211481250Y-114600000I-268750J0D01*
G01*
G37*
G36*
G01*
X211481250Y-116475000D02*
X210518750Y-116475000D01*
G75*
G02*
X210250000Y-116206250I0J268750D01*
G01*
X210250000Y-115668750D01*
G75*
G02*
X210518750Y-115400000I268750J0D01*
G01*
X211481250Y-115400000D01*
G75*
G02*
X211750000Y-115668750I0J-268750D01*
G01*
X211750000Y-116206250D01*
G75*
G02*
X211481250Y-116475000I-268750J0D01*
G01*
G37*
%TD*%
%TO.C,R2*%
G36*
G01*
X204400000Y-120481250D02*
X204400000Y-119518750D01*
G75*
G02*
X204668750Y-119250000I268750J0D01*
G01*
X205206250Y-119250000D01*
G75*
G02*
X205475000Y-119518750I0J-268750D01*
G01*
X205475000Y-120481250D01*
G75*
G02*
X205206250Y-120750000I-268750J0D01*
G01*
X204668750Y-120750000D01*
G75*
G02*
X204400000Y-120481250I0J268750D01*
G01*
G37*
G36*
G01*
X202525000Y-120481250D02*
X202525000Y-119518750D01*
G75*
G02*
X202793750Y-119250000I268750J0D01*
G01*
X203331250Y-119250000D01*
G75*
G02*
X203600000Y-119518750I0J-268750D01*
G01*
X203600000Y-120481250D01*
G75*
G02*
X203331250Y-120750000I-268750J0D01*
G01*
X202793750Y-120750000D01*
G75*
G02*
X202525000Y-120481250I0J268750D01*
G01*
G37*
%TD*%
%TO.C,R1*%
G36*
G01*
X207481250Y-114600000D02*
X206518750Y-114600000D01*
G75*
G02*
X206250000Y-114331250I0J268750D01*
G01*
X206250000Y-113793750D01*
G75*
G02*
X206518750Y-113525000I268750J0D01*
G01*
X207481250Y-113525000D01*
G75*
G02*
X207750000Y-113793750I0J-268750D01*
G01*
X207750000Y-114331250D01*
G75*
G02*
X207481250Y-114600000I-268750J0D01*
G01*
G37*
G36*
G01*
X207481250Y-116475000D02*
X206518750Y-116475000D01*
G75*
G02*
X206250000Y-116206250I0J268750D01*
G01*
X206250000Y-115668750D01*
G75*
G02*
X206518750Y-115400000I268750J0D01*
G01*
X207481250Y-115400000D01*
G75*
G02*
X207750000Y-115668750I0J-268750D01*
G01*
X207750000Y-116206250D01*
G75*
G02*
X207481250Y-116475000I-268750J0D01*
G01*
G37*
%TD*%
D19*
%TO.C,Q8*%
X241000000Y-97080000D03*
X241000000Y-94540000D03*
D20*
X241000000Y-92000000D03*
%TD*%
D19*
%TO.C,Q7*%
X241000000Y-85280000D03*
X241000000Y-82740000D03*
D20*
X241000000Y-80200000D03*
%TD*%
D19*
%TO.C,Q6*%
X241000000Y-73480000D03*
X241000000Y-70940000D03*
D20*
X241000000Y-68400000D03*
%TD*%
D19*
%TO.C,Q5*%
X252000000Y-96680000D03*
X252000000Y-94140000D03*
D20*
X252000000Y-91600000D03*
%TD*%
D19*
%TO.C,Q4*%
X252000000Y-84880000D03*
X252000000Y-82340000D03*
D20*
X252000000Y-79800000D03*
%TD*%
D19*
%TO.C,Q3*%
X252000000Y-73080000D03*
X252000000Y-70540000D03*
D20*
X252000000Y-68000000D03*
%TD*%
%TO.C,Q2*%
G36*
G01*
X210270000Y-120550000D02*
X209920000Y-120550000D01*
G75*
G02*
X209745000Y-120375000I0J175000D01*
G01*
X209745000Y-118675000D01*
G75*
G02*
X209920000Y-118500000I175000J0D01*
G01*
X210270000Y-118500000D01*
G75*
G02*
X210445000Y-118675000I0J-175000D01*
G01*
X210445000Y-120375000D01*
G75*
G02*
X210270000Y-120550000I-175000J0D01*
G01*
G37*
G36*
G01*
X211540000Y-120550000D02*
X211190000Y-120550000D01*
G75*
G02*
X211015000Y-120375000I0J175000D01*
G01*
X211015000Y-118675000D01*
G75*
G02*
X211190000Y-118500000I175000J0D01*
G01*
X211540000Y-118500000D01*
G75*
G02*
X211715000Y-118675000I0J-175000D01*
G01*
X211715000Y-120375000D01*
G75*
G02*
X211540000Y-120550000I-175000J0D01*
G01*
G37*
G36*
G01*
X212810000Y-120550000D02*
X212460000Y-120550000D01*
G75*
G02*
X212285000Y-120375000I0J175000D01*
G01*
X212285000Y-118675000D01*
G75*
G02*
X212460000Y-118500000I175000J0D01*
G01*
X212810000Y-118500000D01*
G75*
G02*
X212985000Y-118675000I0J-175000D01*
G01*
X212985000Y-120375000D01*
G75*
G02*
X212810000Y-120550000I-175000J0D01*
G01*
G37*
G36*
G01*
X214080000Y-120550000D02*
X213730000Y-120550000D01*
G75*
G02*
X213555000Y-120375000I0J175000D01*
G01*
X213555000Y-118675000D01*
G75*
G02*
X213730000Y-118500000I175000J0D01*
G01*
X214080000Y-118500000D01*
G75*
G02*
X214255000Y-118675000I0J-175000D01*
G01*
X214255000Y-120375000D01*
G75*
G02*
X214080000Y-120550000I-175000J0D01*
G01*
G37*
G36*
G01*
X214080000Y-125500000D02*
X213730000Y-125500000D01*
G75*
G02*
X213555000Y-125325000I0J175000D01*
G01*
X213555000Y-123625000D01*
G75*
G02*
X213730000Y-123450000I175000J0D01*
G01*
X214080000Y-123450000D01*
G75*
G02*
X214255000Y-123625000I0J-175000D01*
G01*
X214255000Y-125325000D01*
G75*
G02*
X214080000Y-125500000I-175000J0D01*
G01*
G37*
G36*
G01*
X212810000Y-125500000D02*
X212460000Y-125500000D01*
G75*
G02*
X212285000Y-125325000I0J175000D01*
G01*
X212285000Y-123625000D01*
G75*
G02*
X212460000Y-123450000I175000J0D01*
G01*
X212810000Y-123450000D01*
G75*
G02*
X212985000Y-123625000I0J-175000D01*
G01*
X212985000Y-125325000D01*
G75*
G02*
X212810000Y-125500000I-175000J0D01*
G01*
G37*
G36*
G01*
X211540000Y-125500000D02*
X211190000Y-125500000D01*
G75*
G02*
X211015000Y-125325000I0J175000D01*
G01*
X211015000Y-123625000D01*
G75*
G02*
X211190000Y-123450000I175000J0D01*
G01*
X211540000Y-123450000D01*
G75*
G02*
X211715000Y-123625000I0J-175000D01*
G01*
X211715000Y-125325000D01*
G75*
G02*
X211540000Y-125500000I-175000J0D01*
G01*
G37*
G36*
G01*
X210270000Y-125500000D02*
X209920000Y-125500000D01*
G75*
G02*
X209745000Y-125325000I0J175000D01*
G01*
X209745000Y-123625000D01*
G75*
G02*
X209920000Y-123450000I175000J0D01*
G01*
X210270000Y-123450000D01*
G75*
G02*
X210445000Y-123625000I0J-175000D01*
G01*
X210445000Y-125325000D01*
G75*
G02*
X210270000Y-125500000I-175000J0D01*
G01*
G37*
%TD*%
D21*
%TO.C,Q1*%
X205000000Y-125000000D03*
X203000000Y-125950000D03*
X203000000Y-124050000D03*
%TD*%
D11*
%TO.C,JP2*%
X230540000Y-124280000D03*
D12*
X230540000Y-121740000D03*
%TD*%
D11*
%TO.C,JP1*%
X235190000Y-124280000D03*
D12*
X235190000Y-121740000D03*
%TD*%
D22*
%TO.C,J1*%
X144260000Y-121460000D03*
X141720000Y-121460000D03*
X139180000Y-121460000D03*
X136640000Y-121460000D03*
X134100000Y-121460000D03*
X131560000Y-121460000D03*
X129020000Y-121460000D03*
X126480000Y-121460000D03*
X123940000Y-121460000D03*
X121400000Y-121460000D03*
X118860000Y-121460000D03*
X116320000Y-121460000D03*
X113780000Y-121460000D03*
X111240000Y-121460000D03*
X108700000Y-121460000D03*
X106160000Y-121460000D03*
X103620000Y-121460000D03*
X101080000Y-121460000D03*
X98540000Y-121460000D03*
X96000000Y-121460000D03*
X144260000Y-124000000D03*
X141720000Y-124000000D03*
X139180000Y-124000000D03*
X136640000Y-124000000D03*
X134100000Y-124000000D03*
X131560000Y-124000000D03*
X129020000Y-124000000D03*
X126480000Y-124000000D03*
X123940000Y-124000000D03*
X121400000Y-124000000D03*
X118860000Y-124000000D03*
X116320000Y-124000000D03*
X113780000Y-124000000D03*
X111240000Y-124000000D03*
X108700000Y-124000000D03*
X106160000Y-124000000D03*
X103620000Y-124000000D03*
X101080000Y-124000000D03*
X98540000Y-124000000D03*
G36*
G01*
X96635294Y-124900000D02*
X95364706Y-124900000D01*
G75*
G02*
X95100000Y-124635294I0J264706D01*
G01*
X95100000Y-123364706D01*
G75*
G02*
X95364706Y-123100000I264706J0D01*
G01*
X96635294Y-123100000D01*
G75*
G02*
X96900000Y-123364706I0J-264706D01*
G01*
X96900000Y-124635294D01*
G75*
G02*
X96635294Y-124900000I-264706J0D01*
G01*
G37*
%TD*%
D21*
%TO.C,D1*%
X257000000Y-115000000D03*
X255000000Y-115950000D03*
X255000000Y-114050000D03*
%TD*%
%TO.C,C6*%
G36*
G01*
X239481250Y-114600000D02*
X238518750Y-114600000D01*
G75*
G02*
X238250000Y-114331250I0J268750D01*
G01*
X238250000Y-113793750D01*
G75*
G02*
X238518750Y-113525000I268750J0D01*
G01*
X239481250Y-113525000D01*
G75*
G02*
X239750000Y-113793750I0J-268750D01*
G01*
X239750000Y-114331250D01*
G75*
G02*
X239481250Y-114600000I-268750J0D01*
G01*
G37*
G36*
G01*
X239481250Y-116475000D02*
X238518750Y-116475000D01*
G75*
G02*
X238250000Y-116206250I0J268750D01*
G01*
X238250000Y-115668750D01*
G75*
G02*
X238518750Y-115400000I268750J0D01*
G01*
X239481250Y-115400000D01*
G75*
G02*
X239750000Y-115668750I0J-268750D01*
G01*
X239750000Y-116206250D01*
G75*
G02*
X239481250Y-116475000I-268750J0D01*
G01*
G37*
%TD*%
%TO.C,C5*%
G36*
G01*
X228481250Y-114600000D02*
X227518750Y-114600000D01*
G75*
G02*
X227250000Y-114331250I0J268750D01*
G01*
X227250000Y-113793750D01*
G75*
G02*
X227518750Y-113525000I268750J0D01*
G01*
X228481250Y-113525000D01*
G75*
G02*
X228750000Y-113793750I0J-268750D01*
G01*
X228750000Y-114331250D01*
G75*
G02*
X228481250Y-114600000I-268750J0D01*
G01*
G37*
G36*
G01*
X228481250Y-116475000D02*
X227518750Y-116475000D01*
G75*
G02*
X227250000Y-116206250I0J268750D01*
G01*
X227250000Y-115668750D01*
G75*
G02*
X227518750Y-115400000I268750J0D01*
G01*
X228481250Y-115400000D01*
G75*
G02*
X228750000Y-115668750I0J-268750D01*
G01*
X228750000Y-116206250D01*
G75*
G02*
X228481250Y-116475000I-268750J0D01*
G01*
G37*
%TD*%
%TO.C,C4*%
G36*
G01*
X223481250Y-114600000D02*
X222518750Y-114600000D01*
G75*
G02*
X222250000Y-114331250I0J268750D01*
G01*
X222250000Y-113793750D01*
G75*
G02*
X222518750Y-113525000I268750J0D01*
G01*
X223481250Y-113525000D01*
G75*
G02*
X223750000Y-113793750I0J-268750D01*
G01*
X223750000Y-114331250D01*
G75*
G02*
X223481250Y-114600000I-268750J0D01*
G01*
G37*
G36*
G01*
X223481250Y-116475000D02*
X222518750Y-116475000D01*
G75*
G02*
X222250000Y-116206250I0J268750D01*
G01*
X222250000Y-115668750D01*
G75*
G02*
X222518750Y-115400000I268750J0D01*
G01*
X223481250Y-115400000D01*
G75*
G02*
X223750000Y-115668750I0J-268750D01*
G01*
X223750000Y-116206250D01*
G75*
G02*
X223481250Y-116475000I-268750J0D01*
G01*
G37*
%TD*%
D23*
%TO.C,A1*%
X229240000Y-97560000D03*
X214000000Y-97560000D03*
X229240000Y-62000000D03*
X214000000Y-95020000D03*
X229240000Y-64540000D03*
X214000000Y-92480000D03*
X229240000Y-67080000D03*
X214000000Y-89940000D03*
X229240000Y-69620000D03*
X214000000Y-87400000D03*
X229240000Y-72160000D03*
X214000000Y-84860000D03*
X229240000Y-74700000D03*
X214000000Y-82320000D03*
X229240000Y-77240000D03*
X214000000Y-79780000D03*
X229240000Y-79780000D03*
X214000000Y-77240000D03*
X229240000Y-82320000D03*
X214000000Y-74700000D03*
X229240000Y-84860000D03*
X214000000Y-72160000D03*
X229240000Y-87400000D03*
X214000000Y-69620000D03*
X229240000Y-89940000D03*
X214000000Y-67080000D03*
X229240000Y-92480000D03*
X214000000Y-64540000D03*
X229240000Y-95020000D03*
D24*
X214000000Y-62000000D03*
%TD*%
M02*
