M48
; DRILL file {KiCad (5.1.6)-1} date 10/10/21 19:12:40
; FORMAT={3:3/ absolute / metric / suppress leading zeros}
; #@! TF.CreationDate,2021-10-10T19:12:40-05:00
; #@! TF.GenerationSoftware,Kicad,Pcbnew,(5.1.6)-1
FMAT,2
METRIC,TZ
T1C0.400
T2C0.600
T3C0.762
T4C1.000
T5C1.100
T6C1.200
T7C4.300
T8C2.400
%
G90
G05
T1
X70506Y-86494
X76242Y-104516
X95211Y-112943
X96384Y-113668
X99204Y-91193
X104041Y-111194
X105389Y-85624
X107334Y-116497
X107526Y-113465
X108767Y-111237
X111781Y-116666
X115190Y-122825
X115542Y-81557
X116641Y-102179
X117455Y-117718
X130772Y-79504
X131988Y-86769
X135245Y-86585
X135790Y-119528
X136805Y-96553
X136805Y-116247
X141673Y-125496
X142990Y-80940
X144044Y-115971
X151489Y-94381
X172175Y-82314
X184446Y-96719
X193265Y-98225
X195248Y-101165
X196506Y-109929
X197312Y-93018
X201220Y-88985
X203709Y-102058
X203866Y-122798
X204717Y-97775
X206215Y-95713
X208166Y-112529
X210563Y-101870
X210715Y-104374
X210715Y-117609
X211223Y-97426
X211411Y-79731
X212297Y-115172
X212405Y-113993
X212769Y-122872
X213949Y-117642
X217470Y-113993
X218124Y-121826
X218297Y-117326
X220191Y-77349
X221759Y-122842
X225921Y-115468
X226239Y-119925
X226810Y-114806
X226968Y-121238
X228955Y-123608
X229799Y-112545
X230216Y-116792
X230406Y-111007
X230951Y-114519
X231355Y-117399
X231793Y-94249
X232086Y-112573
X233700Y-112581
X235408Y-116775
X237321Y-120274
X238278Y-88635
X243283Y-62052
X245414Y-68944
X246273Y-71756
X246306Y-64725
X248968Y-104117
X249318Y-116213
X250340Y-78221
X254575Y-68507
X255386Y-72584
T2
X44775Y-106000
X45720Y-103720
X45720Y-108280
X48000Y-102775
X48000Y-109225
X50280Y-103720
X50280Y-108280
X51225Y-106000
X116775Y-72000
X117720Y-69720
X117720Y-74280
X120000Y-68775
X120000Y-75225
X122280Y-69720
X122280Y-74280
X123225Y-72000
X116775Y-106000
X117720Y-103720
X117720Y-108280
X120000Y-102775
X120000Y-109225
X122280Y-103720
X122280Y-108280
X123225Y-106000
X188775Y-106000
X189720Y-103720
X189720Y-108280
X192000Y-102775
X192000Y-109225
X194280Y-103720
X194280Y-108280
X195225Y-106000
X44775Y-72000
X45720Y-69720
X45720Y-74280
X48000Y-68775
X48000Y-75225
X50280Y-69720
X50280Y-74280
X51225Y-72000
X188775Y-72000
X189720Y-69720
X189720Y-74280
X192000Y-68775
X192000Y-75225
X194280Y-69720
X194280Y-74280
X195225Y-72000
T3
X150000Y-85000
X150000Y-93000
X152000Y-89000
X154000Y-85000
X154000Y-93000
X156000Y-89000
X158000Y-85000
X158000Y-93000
X160000Y-89000
X162000Y-85000
X162000Y-93000
X164000Y-89000
X166000Y-85000
X166000Y-93000
X168000Y-89000
X170000Y-85000
X170000Y-93000
X172000Y-89000
X174000Y-85000
X174000Y-93000
X176000Y-89000
X178000Y-85000
X178000Y-93000
X180000Y-89000
X182000Y-85000
X182000Y-93000
X184000Y-89000
X186000Y-85000
X186000Y-93000
X188000Y-89000
X190000Y-85000
X190000Y-93000
X100000Y-85000
X100000Y-93000
X102000Y-89000
X104000Y-85000
X104000Y-93000
X106000Y-89000
X108000Y-85000
X108000Y-93000
X110000Y-89000
X112000Y-85000
X112000Y-93000
X114000Y-89000
X116000Y-85000
X116000Y-93000
X118000Y-89000
X120000Y-85000
X120000Y-93000
X122000Y-89000
X124000Y-85000
X124000Y-93000
X126000Y-89000
X128000Y-85000
X128000Y-93000
X130000Y-89000
X132000Y-85000
X132000Y-93000
X134000Y-89000
X136000Y-85000
X136000Y-93000
X138000Y-89000
X140000Y-85000
X140000Y-93000
X50000Y-85000
X50000Y-93000
X52000Y-89000
X54000Y-85000
X54000Y-93000
X56000Y-89000
X58000Y-85000
X58000Y-93000
X60000Y-89000
X62000Y-85000
X62000Y-93000
X64000Y-89000
X66000Y-85000
X66000Y-93000
X68000Y-89000
X70000Y-85000
X70000Y-93000
X72000Y-89000
X74000Y-85000
X74000Y-93000
X76000Y-89000
X78000Y-85000
X78000Y-93000
X80000Y-89000
X82000Y-85000
X82000Y-93000
X84000Y-89000
X86000Y-85000
X86000Y-93000
X88000Y-89000
X90000Y-85000
X90000Y-93000
T4
X230540Y-121740
X230540Y-124280
X96000Y-121460
X96000Y-124000
X98540Y-121460
X98540Y-124000
X101080Y-121460
X101080Y-124000
X103620Y-121460
X103620Y-124000
X106160Y-121460
X106160Y-124000
X108700Y-121460
X108700Y-124000
X111240Y-121460
X111240Y-124000
X113780Y-121460
X113780Y-124000
X116320Y-121460
X116320Y-124000
X118860Y-121460
X118860Y-124000
X121400Y-121460
X121400Y-124000
X123940Y-121460
X123940Y-124000
X126480Y-121460
X126480Y-124000
X129020Y-121460
X129020Y-124000
X131560Y-121460
X131560Y-124000
X134100Y-121460
X134100Y-124000
X136640Y-121460
X136640Y-124000
X139180Y-121460
X139180Y-124000
X141720Y-121460
X141720Y-124000
X144260Y-121460
X144260Y-124000
X214000Y-62000
X214000Y-64540
X214000Y-67080
X214000Y-69620
X214000Y-72160
X214000Y-74700
X214000Y-77240
X214000Y-79780
X214000Y-82320
X214000Y-84860
X214000Y-87400
X214000Y-89940
X214000Y-92480
X214000Y-95020
X214000Y-97560
X229240Y-62000
X229240Y-64540
X229240Y-67080
X229240Y-69620
X229240Y-72160
X229240Y-74700
X229240Y-77240
X229240Y-79780
X229240Y-82320
X229240Y-84860
X229240Y-87400
X229240Y-89940
X229240Y-92480
X229240Y-95020
X229240Y-97560
X235190Y-121740
X235190Y-124280
X61000Y-122460
X61000Y-125000
T5
X241000Y-68400
X241000Y-70940
X241000Y-73480
X241000Y-80200
X241000Y-82740
X241000Y-85280
X241000Y-92000
X241000Y-94540
X241000Y-97080
X252000Y-91600
X252000Y-94140
X252000Y-96680
X252000Y-68000
X252000Y-70540
X252000Y-73080
X252000Y-79800
X252000Y-82340
X252000Y-84880
T6
X45000Y-124000
X48810Y-124000
T7
X48000Y-106000
X120000Y-72000
X120000Y-106000
X192000Y-106000
X48000Y-72000
X192000Y-72000
T8
X40500Y-124000
X53310Y-124000
T0
M30
