%TF.GenerationSoftware,KiCad,Pcbnew,(5.1.6)-1*%
%TF.CreationDate,2021-10-08T13:52:48-05:00*%
%TF.ProjectId,Jeep JTEC,4a656570-204a-4544-9543-2e6b69636164,rev?*%
%TF.SameCoordinates,Original*%
%TF.FileFunction,Soldermask,Top*%
%TF.FilePolarity,Negative*%
%FSLAX46Y46*%
G04 Gerber Fmt 4.6, Leading zero omitted, Abs format (unit mm)*
G04 Created by KiCad (PCBNEW (5.1.6)-1) date 2021-10-08 13:52:48*
%MOMM*%
%LPD*%
G01*
G04 APERTURE LIST*
%ADD10C,1.624000*%
%ADD11C,1.000000*%
%ADD12C,8.700000*%
%ADD13O,1.800000X1.800000*%
%ADD14R,1.800000X1.800000*%
%ADD15C,2.500000*%
%ADD16O,1.900000X3.700000*%
%ADD17R,0.475000X0.600000*%
%ADD18R,0.400000X0.750000*%
%ADD19O,2.100000X2.005000*%
%ADD20R,2.100000X2.005000*%
%ADD21R,1.000000X0.900000*%
%ADD22C,1.800000*%
%ADD23O,1.700000X1.700000*%
%ADD24R,1.700000X1.700000*%
G04 APERTURE END LIST*
%TO.C,R19*%
G36*
G01*
X193400000Y-126481250D02*
X193400000Y-125518750D01*
G75*
G02*
X193668750Y-125250000I268750J0D01*
G01*
X194206250Y-125250000D01*
G75*
G02*
X194475000Y-125518750I0J-268750D01*
G01*
X194475000Y-126481250D01*
G75*
G02*
X194206250Y-126750000I-268750J0D01*
G01*
X193668750Y-126750000D01*
G75*
G02*
X193400000Y-126481250I0J268750D01*
G01*
G37*
G36*
G01*
X191525000Y-126481250D02*
X191525000Y-125518750D01*
G75*
G02*
X191793750Y-125250000I268750J0D01*
G01*
X192331250Y-125250000D01*
G75*
G02*
X192600000Y-125518750I0J-268750D01*
G01*
X192600000Y-126481250D01*
G75*
G02*
X192331250Y-126750000I-268750J0D01*
G01*
X191793750Y-126750000D01*
G75*
G02*
X191525000Y-126481250I0J268750D01*
G01*
G37*
%TD*%
D10*
%TO.C,C1*%
X50000000Y-85000000D03*
X54000000Y-85000000D03*
X58000000Y-85000000D03*
X62000000Y-85000000D03*
X66000000Y-85000000D03*
X70000000Y-85000000D03*
X74000000Y-85000000D03*
X78000000Y-85000000D03*
X82000000Y-85000000D03*
X86000000Y-85000000D03*
X90000000Y-85000000D03*
X52000000Y-89000000D03*
X56000000Y-89000000D03*
X60000000Y-89000000D03*
X64000000Y-89000000D03*
X68000000Y-89000000D03*
X72000000Y-89000000D03*
X76000000Y-89000000D03*
X80000000Y-89000000D03*
X84000000Y-89000000D03*
X88000000Y-89000000D03*
X50000000Y-93000000D03*
X54000000Y-93000000D03*
X58000000Y-93000000D03*
X62000000Y-93000000D03*
X66000000Y-93000000D03*
X70000000Y-93000000D03*
X74000000Y-93000000D03*
X78000000Y-93000000D03*
X82000000Y-93000000D03*
X86000000Y-93000000D03*
X90000000Y-93000000D03*
%TD*%
%TO.C,C3*%
X150000000Y-85000000D03*
X154000000Y-85000000D03*
X158000000Y-85000000D03*
X162000000Y-85000000D03*
X166000000Y-85000000D03*
X170000000Y-85000000D03*
X174000000Y-85000000D03*
X178000000Y-85000000D03*
X182000000Y-85000000D03*
X186000000Y-85000000D03*
X190000000Y-85000000D03*
X152000000Y-89000000D03*
X156000000Y-89000000D03*
X160000000Y-89000000D03*
X164000000Y-89000000D03*
X168000000Y-89000000D03*
X172000000Y-89000000D03*
X176000000Y-89000000D03*
X180000000Y-89000000D03*
X184000000Y-89000000D03*
X188000000Y-89000000D03*
X150000000Y-93000000D03*
X154000000Y-93000000D03*
X158000000Y-93000000D03*
X162000000Y-93000000D03*
X166000000Y-93000000D03*
X170000000Y-93000000D03*
X174000000Y-93000000D03*
X178000000Y-93000000D03*
X182000000Y-93000000D03*
X186000000Y-93000000D03*
X190000000Y-93000000D03*
%TD*%
%TO.C,C2*%
X100000000Y-85000000D03*
X104000000Y-85000000D03*
X108000000Y-85000000D03*
X112000000Y-85000000D03*
X116000000Y-85000000D03*
X120000000Y-85000000D03*
X124000000Y-85000000D03*
X128000000Y-85000000D03*
X132000000Y-85000000D03*
X136000000Y-85000000D03*
X140000000Y-85000000D03*
X102000000Y-89000000D03*
X106000000Y-89000000D03*
X110000000Y-89000000D03*
X114000000Y-89000000D03*
X118000000Y-89000000D03*
X122000000Y-89000000D03*
X126000000Y-89000000D03*
X130000000Y-89000000D03*
X134000000Y-89000000D03*
X138000000Y-89000000D03*
X100000000Y-93000000D03*
X104000000Y-93000000D03*
X108000000Y-93000000D03*
X112000000Y-93000000D03*
X116000000Y-93000000D03*
X120000000Y-93000000D03*
X124000000Y-93000000D03*
X128000000Y-93000000D03*
X132000000Y-93000000D03*
X136000000Y-93000000D03*
X140000000Y-93000000D03*
%TD*%
D11*
%TO.C,H6*%
X194280419Y-103719581D03*
X192000000Y-102775000D03*
X189719581Y-103719581D03*
X188775000Y-106000000D03*
X189719581Y-108280419D03*
X192000000Y-109225000D03*
X194280419Y-108280419D03*
X195225000Y-106000000D03*
D12*
X192000000Y-106000000D03*
%TD*%
D11*
%TO.C,H5*%
X194280419Y-69719581D03*
X192000000Y-68775000D03*
X189719581Y-69719581D03*
X188775000Y-72000000D03*
X189719581Y-74280419D03*
X192000000Y-75225000D03*
X194280419Y-74280419D03*
X195225000Y-72000000D03*
D12*
X192000000Y-72000000D03*
%TD*%
D11*
%TO.C,H4*%
X50280419Y-69719581D03*
X48000000Y-68775000D03*
X45719581Y-69719581D03*
X44775000Y-72000000D03*
X45719581Y-74280419D03*
X48000000Y-75225000D03*
X50280419Y-74280419D03*
X51225000Y-72000000D03*
D12*
X48000000Y-72000000D03*
%TD*%
D11*
%TO.C,H3*%
X122280419Y-69719581D03*
X120000000Y-68775000D03*
X117719581Y-69719581D03*
X116775000Y-72000000D03*
X117719581Y-74280419D03*
X120000000Y-75225000D03*
X122280419Y-74280419D03*
X123225000Y-72000000D03*
D12*
X120000000Y-72000000D03*
%TD*%
D11*
%TO.C,H2*%
X50280419Y-103719581D03*
X48000000Y-102775000D03*
X45719581Y-103719581D03*
X44775000Y-106000000D03*
X45719581Y-108280419D03*
X48000000Y-109225000D03*
X50280419Y-108280419D03*
X51225000Y-106000000D03*
D12*
X48000000Y-106000000D03*
%TD*%
D11*
%TO.C,H1*%
X122280419Y-103719581D03*
X120000000Y-102775000D03*
X117719581Y-103719581D03*
X116775000Y-106000000D03*
X117719581Y-108280419D03*
X120000000Y-109225000D03*
X122280419Y-108280419D03*
X123225000Y-106000000D03*
D12*
X120000000Y-106000000D03*
%TD*%
D13*
%TO.C,JP3*%
X61000000Y-122460000D03*
D14*
X61000000Y-125000000D03*
%TD*%
D15*
%TO.C,J2*%
X53310000Y-124000000D03*
X40500000Y-124000000D03*
D16*
X48810000Y-124000000D03*
G36*
G01*
X44050000Y-125586111D02*
X44050000Y-122413889D01*
G75*
G02*
X44313889Y-122150000I263889J0D01*
G01*
X45686111Y-122150000D01*
G75*
G02*
X45950000Y-122413889I0J-263889D01*
G01*
X45950000Y-125586111D01*
G75*
G02*
X45686111Y-125850000I-263889J0D01*
G01*
X44313889Y-125850000D01*
G75*
G02*
X44050000Y-125586111I0J263889D01*
G01*
G37*
%TD*%
D17*
%TO.C,U2*%
X228462500Y-113970000D03*
X229537500Y-113970000D03*
D18*
X229000000Y-115745000D03*
X229000000Y-113895000D03*
D17*
X229537500Y-115670000D03*
X228462500Y-115670000D03*
%TD*%
%TO.C,U1*%
G36*
G01*
X215270000Y-120550000D02*
X214920000Y-120550000D01*
G75*
G02*
X214745000Y-120375000I0J175000D01*
G01*
X214745000Y-118675000D01*
G75*
G02*
X214920000Y-118500000I175000J0D01*
G01*
X215270000Y-118500000D01*
G75*
G02*
X215445000Y-118675000I0J-175000D01*
G01*
X215445000Y-120375000D01*
G75*
G02*
X215270000Y-120550000I-175000J0D01*
G01*
G37*
G36*
G01*
X216540000Y-120550000D02*
X216190000Y-120550000D01*
G75*
G02*
X216015000Y-120375000I0J175000D01*
G01*
X216015000Y-118675000D01*
G75*
G02*
X216190000Y-118500000I175000J0D01*
G01*
X216540000Y-118500000D01*
G75*
G02*
X216715000Y-118675000I0J-175000D01*
G01*
X216715000Y-120375000D01*
G75*
G02*
X216540000Y-120550000I-175000J0D01*
G01*
G37*
G36*
G01*
X217810000Y-120550000D02*
X217460000Y-120550000D01*
G75*
G02*
X217285000Y-120375000I0J175000D01*
G01*
X217285000Y-118675000D01*
G75*
G02*
X217460000Y-118500000I175000J0D01*
G01*
X217810000Y-118500000D01*
G75*
G02*
X217985000Y-118675000I0J-175000D01*
G01*
X217985000Y-120375000D01*
G75*
G02*
X217810000Y-120550000I-175000J0D01*
G01*
G37*
G36*
G01*
X219080000Y-120550000D02*
X218730000Y-120550000D01*
G75*
G02*
X218555000Y-120375000I0J175000D01*
G01*
X218555000Y-118675000D01*
G75*
G02*
X218730000Y-118500000I175000J0D01*
G01*
X219080000Y-118500000D01*
G75*
G02*
X219255000Y-118675000I0J-175000D01*
G01*
X219255000Y-120375000D01*
G75*
G02*
X219080000Y-120550000I-175000J0D01*
G01*
G37*
G36*
G01*
X219080000Y-125500000D02*
X218730000Y-125500000D01*
G75*
G02*
X218555000Y-125325000I0J175000D01*
G01*
X218555000Y-123625000D01*
G75*
G02*
X218730000Y-123450000I175000J0D01*
G01*
X219080000Y-123450000D01*
G75*
G02*
X219255000Y-123625000I0J-175000D01*
G01*
X219255000Y-125325000D01*
G75*
G02*
X219080000Y-125500000I-175000J0D01*
G01*
G37*
G36*
G01*
X217810000Y-125500000D02*
X217460000Y-125500000D01*
G75*
G02*
X217285000Y-125325000I0J175000D01*
G01*
X217285000Y-123625000D01*
G75*
G02*
X217460000Y-123450000I175000J0D01*
G01*
X217810000Y-123450000D01*
G75*
G02*
X217985000Y-123625000I0J-175000D01*
G01*
X217985000Y-125325000D01*
G75*
G02*
X217810000Y-125500000I-175000J0D01*
G01*
G37*
G36*
G01*
X216540000Y-125500000D02*
X216190000Y-125500000D01*
G75*
G02*
X216015000Y-125325000I0J175000D01*
G01*
X216015000Y-123625000D01*
G75*
G02*
X216190000Y-123450000I175000J0D01*
G01*
X216540000Y-123450000D01*
G75*
G02*
X216715000Y-123625000I0J-175000D01*
G01*
X216715000Y-125325000D01*
G75*
G02*
X216540000Y-125500000I-175000J0D01*
G01*
G37*
G36*
G01*
X215270000Y-125500000D02*
X214920000Y-125500000D01*
G75*
G02*
X214745000Y-125325000I0J175000D01*
G01*
X214745000Y-123625000D01*
G75*
G02*
X214920000Y-123450000I175000J0D01*
G01*
X215270000Y-123450000D01*
G75*
G02*
X215445000Y-123625000I0J-175000D01*
G01*
X215445000Y-125325000D01*
G75*
G02*
X215270000Y-125500000I-175000J0D01*
G01*
G37*
%TD*%
%TO.C,R18*%
G36*
G01*
X246400000Y-124481250D02*
X246400000Y-123518750D01*
G75*
G02*
X246668750Y-123250000I268750J0D01*
G01*
X247206250Y-123250000D01*
G75*
G02*
X247475000Y-123518750I0J-268750D01*
G01*
X247475000Y-124481250D01*
G75*
G02*
X247206250Y-124750000I-268750J0D01*
G01*
X246668750Y-124750000D01*
G75*
G02*
X246400000Y-124481250I0J268750D01*
G01*
G37*
G36*
G01*
X244525000Y-124481250D02*
X244525000Y-123518750D01*
G75*
G02*
X244793750Y-123250000I268750J0D01*
G01*
X245331250Y-123250000D01*
G75*
G02*
X245600000Y-123518750I0J-268750D01*
G01*
X245600000Y-124481250D01*
G75*
G02*
X245331250Y-124750000I-268750J0D01*
G01*
X244793750Y-124750000D01*
G75*
G02*
X244525000Y-124481250I0J268750D01*
G01*
G37*
%TD*%
%TO.C,R17*%
G36*
G01*
X248481250Y-64600000D02*
X247518750Y-64600000D01*
G75*
G02*
X247250000Y-64331250I0J268750D01*
G01*
X247250000Y-63793750D01*
G75*
G02*
X247518750Y-63525000I268750J0D01*
G01*
X248481250Y-63525000D01*
G75*
G02*
X248750000Y-63793750I0J-268750D01*
G01*
X248750000Y-64331250D01*
G75*
G02*
X248481250Y-64600000I-268750J0D01*
G01*
G37*
G36*
G01*
X248481250Y-66475000D02*
X247518750Y-66475000D01*
G75*
G02*
X247250000Y-66206250I0J268750D01*
G01*
X247250000Y-65668750D01*
G75*
G02*
X247518750Y-65400000I268750J0D01*
G01*
X248481250Y-65400000D01*
G75*
G02*
X248750000Y-65668750I0J-268750D01*
G01*
X248750000Y-66206250D01*
G75*
G02*
X248481250Y-66475000I-268750J0D01*
G01*
G37*
%TD*%
%TO.C,R16*%
G36*
G01*
X244361250Y-64570000D02*
X243398750Y-64570000D01*
G75*
G02*
X243130000Y-64301250I0J268750D01*
G01*
X243130000Y-63763750D01*
G75*
G02*
X243398750Y-63495000I268750J0D01*
G01*
X244361250Y-63495000D01*
G75*
G02*
X244630000Y-63763750I0J-268750D01*
G01*
X244630000Y-64301250D01*
G75*
G02*
X244361250Y-64570000I-268750J0D01*
G01*
G37*
G36*
G01*
X244361250Y-66445000D02*
X243398750Y-66445000D01*
G75*
G02*
X243130000Y-66176250I0J268750D01*
G01*
X243130000Y-65638750D01*
G75*
G02*
X243398750Y-65370000I268750J0D01*
G01*
X244361250Y-65370000D01*
G75*
G02*
X244630000Y-65638750I0J-268750D01*
G01*
X244630000Y-66176250D01*
G75*
G02*
X244361250Y-66445000I-268750J0D01*
G01*
G37*
%TD*%
%TO.C,R15*%
G36*
G01*
X240411250Y-64570000D02*
X239448750Y-64570000D01*
G75*
G02*
X239180000Y-64301250I0J268750D01*
G01*
X239180000Y-63763750D01*
G75*
G02*
X239448750Y-63495000I268750J0D01*
G01*
X240411250Y-63495000D01*
G75*
G02*
X240680000Y-63763750I0J-268750D01*
G01*
X240680000Y-64301250D01*
G75*
G02*
X240411250Y-64570000I-268750J0D01*
G01*
G37*
G36*
G01*
X240411250Y-66445000D02*
X239448750Y-66445000D01*
G75*
G02*
X239180000Y-66176250I0J268750D01*
G01*
X239180000Y-65638750D01*
G75*
G02*
X239448750Y-65370000I268750J0D01*
G01*
X240411250Y-65370000D01*
G75*
G02*
X240680000Y-65638750I0J-268750D01*
G01*
X240680000Y-66176250D01*
G75*
G02*
X240411250Y-66445000I-268750J0D01*
G01*
G37*
%TD*%
%TO.C,R14*%
G36*
G01*
X252481250Y-64600000D02*
X251518750Y-64600000D01*
G75*
G02*
X251250000Y-64331250I0J268750D01*
G01*
X251250000Y-63793750D01*
G75*
G02*
X251518750Y-63525000I268750J0D01*
G01*
X252481250Y-63525000D01*
G75*
G02*
X252750000Y-63793750I0J-268750D01*
G01*
X252750000Y-64331250D01*
G75*
G02*
X252481250Y-64600000I-268750J0D01*
G01*
G37*
G36*
G01*
X252481250Y-66475000D02*
X251518750Y-66475000D01*
G75*
G02*
X251250000Y-66206250I0J268750D01*
G01*
X251250000Y-65668750D01*
G75*
G02*
X251518750Y-65400000I268750J0D01*
G01*
X252481250Y-65400000D01*
G75*
G02*
X252750000Y-65668750I0J-268750D01*
G01*
X252750000Y-66206250D01*
G75*
G02*
X252481250Y-66475000I-268750J0D01*
G01*
G37*
%TD*%
%TO.C,R13*%
G36*
G01*
X236461250Y-64570000D02*
X235498750Y-64570000D01*
G75*
G02*
X235230000Y-64301250I0J268750D01*
G01*
X235230000Y-63763750D01*
G75*
G02*
X235498750Y-63495000I268750J0D01*
G01*
X236461250Y-63495000D01*
G75*
G02*
X236730000Y-63763750I0J-268750D01*
G01*
X236730000Y-64301250D01*
G75*
G02*
X236461250Y-64570000I-268750J0D01*
G01*
G37*
G36*
G01*
X236461250Y-66445000D02*
X235498750Y-66445000D01*
G75*
G02*
X235230000Y-66176250I0J268750D01*
G01*
X235230000Y-65638750D01*
G75*
G02*
X235498750Y-65370000I268750J0D01*
G01*
X236461250Y-65370000D01*
G75*
G02*
X236730000Y-65638750I0J-268750D01*
G01*
X236730000Y-66176250D01*
G75*
G02*
X236461250Y-66445000I-268750J0D01*
G01*
G37*
%TD*%
%TO.C,R12*%
G36*
G01*
X232511250Y-64570000D02*
X231548750Y-64570000D01*
G75*
G02*
X231280000Y-64301250I0J268750D01*
G01*
X231280000Y-63763750D01*
G75*
G02*
X231548750Y-63495000I268750J0D01*
G01*
X232511250Y-63495000D01*
G75*
G02*
X232780000Y-63763750I0J-268750D01*
G01*
X232780000Y-64301250D01*
G75*
G02*
X232511250Y-64570000I-268750J0D01*
G01*
G37*
G36*
G01*
X232511250Y-66445000D02*
X231548750Y-66445000D01*
G75*
G02*
X231280000Y-66176250I0J268750D01*
G01*
X231280000Y-65638750D01*
G75*
G02*
X231548750Y-65370000I268750J0D01*
G01*
X232511250Y-65370000D01*
G75*
G02*
X232780000Y-65638750I0J-268750D01*
G01*
X232780000Y-66176250D01*
G75*
G02*
X232511250Y-66445000I-268750J0D01*
G01*
G37*
%TD*%
%TO.C,R11*%
G36*
G01*
X240400000Y-124481250D02*
X240400000Y-123518750D01*
G75*
G02*
X240668750Y-123250000I268750J0D01*
G01*
X241206250Y-123250000D01*
G75*
G02*
X241475000Y-123518750I0J-268750D01*
G01*
X241475000Y-124481250D01*
G75*
G02*
X241206250Y-124750000I-268750J0D01*
G01*
X240668750Y-124750000D01*
G75*
G02*
X240400000Y-124481250I0J268750D01*
G01*
G37*
G36*
G01*
X238525000Y-124481250D02*
X238525000Y-123518750D01*
G75*
G02*
X238793750Y-123250000I268750J0D01*
G01*
X239331250Y-123250000D01*
G75*
G02*
X239600000Y-123518750I0J-268750D01*
G01*
X239600000Y-124481250D01*
G75*
G02*
X239331250Y-124750000I-268750J0D01*
G01*
X238793750Y-124750000D01*
G75*
G02*
X238525000Y-124481250I0J268750D01*
G01*
G37*
%TD*%
%TO.C,R10*%
G36*
G01*
X247481250Y-114600000D02*
X246518750Y-114600000D01*
G75*
G02*
X246250000Y-114331250I0J268750D01*
G01*
X246250000Y-113793750D01*
G75*
G02*
X246518750Y-113525000I268750J0D01*
G01*
X247481250Y-113525000D01*
G75*
G02*
X247750000Y-113793750I0J-268750D01*
G01*
X247750000Y-114331250D01*
G75*
G02*
X247481250Y-114600000I-268750J0D01*
G01*
G37*
G36*
G01*
X247481250Y-116475000D02*
X246518750Y-116475000D01*
G75*
G02*
X246250000Y-116206250I0J268750D01*
G01*
X246250000Y-115668750D01*
G75*
G02*
X246518750Y-115400000I268750J0D01*
G01*
X247481250Y-115400000D01*
G75*
G02*
X247750000Y-115668750I0J-268750D01*
G01*
X247750000Y-116206250D01*
G75*
G02*
X247481250Y-116475000I-268750J0D01*
G01*
G37*
%TD*%
%TO.C,R9*%
G36*
G01*
X246400000Y-120481250D02*
X246400000Y-119518750D01*
G75*
G02*
X246668750Y-119250000I268750J0D01*
G01*
X247206250Y-119250000D01*
G75*
G02*
X247475000Y-119518750I0J-268750D01*
G01*
X247475000Y-120481250D01*
G75*
G02*
X247206250Y-120750000I-268750J0D01*
G01*
X246668750Y-120750000D01*
G75*
G02*
X246400000Y-120481250I0J268750D01*
G01*
G37*
G36*
G01*
X244525000Y-120481250D02*
X244525000Y-119518750D01*
G75*
G02*
X244793750Y-119250000I268750J0D01*
G01*
X245331250Y-119250000D01*
G75*
G02*
X245600000Y-119518750I0J-268750D01*
G01*
X245600000Y-120481250D01*
G75*
G02*
X245331250Y-120750000I-268750J0D01*
G01*
X244793750Y-120750000D01*
G75*
G02*
X244525000Y-120481250I0J268750D01*
G01*
G37*
%TD*%
%TO.C,R8*%
G36*
G01*
X240481250Y-114600000D02*
X239518750Y-114600000D01*
G75*
G02*
X239250000Y-114331250I0J268750D01*
G01*
X239250000Y-113793750D01*
G75*
G02*
X239518750Y-113525000I268750J0D01*
G01*
X240481250Y-113525000D01*
G75*
G02*
X240750000Y-113793750I0J-268750D01*
G01*
X240750000Y-114331250D01*
G75*
G02*
X240481250Y-114600000I-268750J0D01*
G01*
G37*
G36*
G01*
X240481250Y-116475000D02*
X239518750Y-116475000D01*
G75*
G02*
X239250000Y-116206250I0J268750D01*
G01*
X239250000Y-115668750D01*
G75*
G02*
X239518750Y-115400000I268750J0D01*
G01*
X240481250Y-115400000D01*
G75*
G02*
X240750000Y-115668750I0J-268750D01*
G01*
X240750000Y-116206250D01*
G75*
G02*
X240481250Y-116475000I-268750J0D01*
G01*
G37*
%TD*%
%TO.C,R7*%
G36*
G01*
X240400000Y-120481250D02*
X240400000Y-119518750D01*
G75*
G02*
X240668750Y-119250000I268750J0D01*
G01*
X241206250Y-119250000D01*
G75*
G02*
X241475000Y-119518750I0J-268750D01*
G01*
X241475000Y-120481250D01*
G75*
G02*
X241206250Y-120750000I-268750J0D01*
G01*
X240668750Y-120750000D01*
G75*
G02*
X240400000Y-120481250I0J268750D01*
G01*
G37*
G36*
G01*
X238525000Y-120481250D02*
X238525000Y-119518750D01*
G75*
G02*
X238793750Y-119250000I268750J0D01*
G01*
X239331250Y-119250000D01*
G75*
G02*
X239600000Y-119518750I0J-268750D01*
G01*
X239600000Y-120481250D01*
G75*
G02*
X239331250Y-120750000I-268750J0D01*
G01*
X238793750Y-120750000D01*
G75*
G02*
X238525000Y-120481250I0J268750D01*
G01*
G37*
%TD*%
%TO.C,R6*%
G36*
G01*
X212481250Y-114600000D02*
X211518750Y-114600000D01*
G75*
G02*
X211250000Y-114331250I0J268750D01*
G01*
X211250000Y-113793750D01*
G75*
G02*
X211518750Y-113525000I268750J0D01*
G01*
X212481250Y-113525000D01*
G75*
G02*
X212750000Y-113793750I0J-268750D01*
G01*
X212750000Y-114331250D01*
G75*
G02*
X212481250Y-114600000I-268750J0D01*
G01*
G37*
G36*
G01*
X212481250Y-116475000D02*
X211518750Y-116475000D01*
G75*
G02*
X211250000Y-116206250I0J268750D01*
G01*
X211250000Y-115668750D01*
G75*
G02*
X211518750Y-115400000I268750J0D01*
G01*
X212481250Y-115400000D01*
G75*
G02*
X212750000Y-115668750I0J-268750D01*
G01*
X212750000Y-116206250D01*
G75*
G02*
X212481250Y-116475000I-268750J0D01*
G01*
G37*
%TD*%
%TO.C,R5*%
G36*
G01*
X252400000Y-120481250D02*
X252400000Y-119518750D01*
G75*
G02*
X252668750Y-119250000I268750J0D01*
G01*
X253206250Y-119250000D01*
G75*
G02*
X253475000Y-119518750I0J-268750D01*
G01*
X253475000Y-120481250D01*
G75*
G02*
X253206250Y-120750000I-268750J0D01*
G01*
X252668750Y-120750000D01*
G75*
G02*
X252400000Y-120481250I0J268750D01*
G01*
G37*
G36*
G01*
X250525000Y-120481250D02*
X250525000Y-119518750D01*
G75*
G02*
X250793750Y-119250000I268750J0D01*
G01*
X251331250Y-119250000D01*
G75*
G02*
X251600000Y-119518750I0J-268750D01*
G01*
X251600000Y-120481250D01*
G75*
G02*
X251331250Y-120750000I-268750J0D01*
G01*
X250793750Y-120750000D01*
G75*
G02*
X250525000Y-120481250I0J268750D01*
G01*
G37*
%TD*%
%TO.C,R4*%
G36*
G01*
X208481250Y-114600000D02*
X207518750Y-114600000D01*
G75*
G02*
X207250000Y-114331250I0J268750D01*
G01*
X207250000Y-113793750D01*
G75*
G02*
X207518750Y-113525000I268750J0D01*
G01*
X208481250Y-113525000D01*
G75*
G02*
X208750000Y-113793750I0J-268750D01*
G01*
X208750000Y-114331250D01*
G75*
G02*
X208481250Y-114600000I-268750J0D01*
G01*
G37*
G36*
G01*
X208481250Y-116475000D02*
X207518750Y-116475000D01*
G75*
G02*
X207250000Y-116206250I0J268750D01*
G01*
X207250000Y-115668750D01*
G75*
G02*
X207518750Y-115400000I268750J0D01*
G01*
X208481250Y-115400000D01*
G75*
G02*
X208750000Y-115668750I0J-268750D01*
G01*
X208750000Y-116206250D01*
G75*
G02*
X208481250Y-116475000I-268750J0D01*
G01*
G37*
%TD*%
%TO.C,R3*%
G36*
G01*
X204481250Y-114600000D02*
X203518750Y-114600000D01*
G75*
G02*
X203250000Y-114331250I0J268750D01*
G01*
X203250000Y-113793750D01*
G75*
G02*
X203518750Y-113525000I268750J0D01*
G01*
X204481250Y-113525000D01*
G75*
G02*
X204750000Y-113793750I0J-268750D01*
G01*
X204750000Y-114331250D01*
G75*
G02*
X204481250Y-114600000I-268750J0D01*
G01*
G37*
G36*
G01*
X204481250Y-116475000D02*
X203518750Y-116475000D01*
G75*
G02*
X203250000Y-116206250I0J268750D01*
G01*
X203250000Y-115668750D01*
G75*
G02*
X203518750Y-115400000I268750J0D01*
G01*
X204481250Y-115400000D01*
G75*
G02*
X204750000Y-115668750I0J-268750D01*
G01*
X204750000Y-116206250D01*
G75*
G02*
X204481250Y-116475000I-268750J0D01*
G01*
G37*
%TD*%
%TO.C,R2*%
G36*
G01*
X199400000Y-120481250D02*
X199400000Y-119518750D01*
G75*
G02*
X199668750Y-119250000I268750J0D01*
G01*
X200206250Y-119250000D01*
G75*
G02*
X200475000Y-119518750I0J-268750D01*
G01*
X200475000Y-120481250D01*
G75*
G02*
X200206250Y-120750000I-268750J0D01*
G01*
X199668750Y-120750000D01*
G75*
G02*
X199400000Y-120481250I0J268750D01*
G01*
G37*
G36*
G01*
X197525000Y-120481250D02*
X197525000Y-119518750D01*
G75*
G02*
X197793750Y-119250000I268750J0D01*
G01*
X198331250Y-119250000D01*
G75*
G02*
X198600000Y-119518750I0J-268750D01*
G01*
X198600000Y-120481250D01*
G75*
G02*
X198331250Y-120750000I-268750J0D01*
G01*
X197793750Y-120750000D01*
G75*
G02*
X197525000Y-120481250I0J268750D01*
G01*
G37*
%TD*%
%TO.C,R1*%
G36*
G01*
X200481250Y-114600000D02*
X199518750Y-114600000D01*
G75*
G02*
X199250000Y-114331250I0J268750D01*
G01*
X199250000Y-113793750D01*
G75*
G02*
X199518750Y-113525000I268750J0D01*
G01*
X200481250Y-113525000D01*
G75*
G02*
X200750000Y-113793750I0J-268750D01*
G01*
X200750000Y-114331250D01*
G75*
G02*
X200481250Y-114600000I-268750J0D01*
G01*
G37*
G36*
G01*
X200481250Y-116475000D02*
X199518750Y-116475000D01*
G75*
G02*
X199250000Y-116206250I0J268750D01*
G01*
X199250000Y-115668750D01*
G75*
G02*
X199518750Y-115400000I268750J0D01*
G01*
X200481250Y-115400000D01*
G75*
G02*
X200750000Y-115668750I0J-268750D01*
G01*
X200750000Y-116206250D01*
G75*
G02*
X200481250Y-116475000I-268750J0D01*
G01*
G37*
%TD*%
D19*
%TO.C,Q8*%
X237000000Y-102080000D03*
X237000000Y-99540000D03*
D20*
X237000000Y-97000000D03*
%TD*%
D19*
%TO.C,Q7*%
X237000000Y-90280000D03*
X237000000Y-87740000D03*
D20*
X237000000Y-85200000D03*
%TD*%
D19*
%TO.C,Q6*%
X237000000Y-78480000D03*
X237000000Y-75940000D03*
D20*
X237000000Y-73400000D03*
%TD*%
D19*
%TO.C,Q5*%
X248000000Y-101680000D03*
X248000000Y-99140000D03*
D20*
X248000000Y-96600000D03*
%TD*%
D19*
%TO.C,Q4*%
X248000000Y-89880000D03*
X248000000Y-87340000D03*
D20*
X248000000Y-84800000D03*
%TD*%
D19*
%TO.C,Q3*%
X248000000Y-78080000D03*
X248000000Y-75540000D03*
D20*
X248000000Y-73000000D03*
%TD*%
%TO.C,Q2*%
G36*
G01*
X206270000Y-120550000D02*
X205920000Y-120550000D01*
G75*
G02*
X205745000Y-120375000I0J175000D01*
G01*
X205745000Y-118675000D01*
G75*
G02*
X205920000Y-118500000I175000J0D01*
G01*
X206270000Y-118500000D01*
G75*
G02*
X206445000Y-118675000I0J-175000D01*
G01*
X206445000Y-120375000D01*
G75*
G02*
X206270000Y-120550000I-175000J0D01*
G01*
G37*
G36*
G01*
X207540000Y-120550000D02*
X207190000Y-120550000D01*
G75*
G02*
X207015000Y-120375000I0J175000D01*
G01*
X207015000Y-118675000D01*
G75*
G02*
X207190000Y-118500000I175000J0D01*
G01*
X207540000Y-118500000D01*
G75*
G02*
X207715000Y-118675000I0J-175000D01*
G01*
X207715000Y-120375000D01*
G75*
G02*
X207540000Y-120550000I-175000J0D01*
G01*
G37*
G36*
G01*
X208810000Y-120550000D02*
X208460000Y-120550000D01*
G75*
G02*
X208285000Y-120375000I0J175000D01*
G01*
X208285000Y-118675000D01*
G75*
G02*
X208460000Y-118500000I175000J0D01*
G01*
X208810000Y-118500000D01*
G75*
G02*
X208985000Y-118675000I0J-175000D01*
G01*
X208985000Y-120375000D01*
G75*
G02*
X208810000Y-120550000I-175000J0D01*
G01*
G37*
G36*
G01*
X210080000Y-120550000D02*
X209730000Y-120550000D01*
G75*
G02*
X209555000Y-120375000I0J175000D01*
G01*
X209555000Y-118675000D01*
G75*
G02*
X209730000Y-118500000I175000J0D01*
G01*
X210080000Y-118500000D01*
G75*
G02*
X210255000Y-118675000I0J-175000D01*
G01*
X210255000Y-120375000D01*
G75*
G02*
X210080000Y-120550000I-175000J0D01*
G01*
G37*
G36*
G01*
X210080000Y-125500000D02*
X209730000Y-125500000D01*
G75*
G02*
X209555000Y-125325000I0J175000D01*
G01*
X209555000Y-123625000D01*
G75*
G02*
X209730000Y-123450000I175000J0D01*
G01*
X210080000Y-123450000D01*
G75*
G02*
X210255000Y-123625000I0J-175000D01*
G01*
X210255000Y-125325000D01*
G75*
G02*
X210080000Y-125500000I-175000J0D01*
G01*
G37*
G36*
G01*
X208810000Y-125500000D02*
X208460000Y-125500000D01*
G75*
G02*
X208285000Y-125325000I0J175000D01*
G01*
X208285000Y-123625000D01*
G75*
G02*
X208460000Y-123450000I175000J0D01*
G01*
X208810000Y-123450000D01*
G75*
G02*
X208985000Y-123625000I0J-175000D01*
G01*
X208985000Y-125325000D01*
G75*
G02*
X208810000Y-125500000I-175000J0D01*
G01*
G37*
G36*
G01*
X207540000Y-125500000D02*
X207190000Y-125500000D01*
G75*
G02*
X207015000Y-125325000I0J175000D01*
G01*
X207015000Y-123625000D01*
G75*
G02*
X207190000Y-123450000I175000J0D01*
G01*
X207540000Y-123450000D01*
G75*
G02*
X207715000Y-123625000I0J-175000D01*
G01*
X207715000Y-125325000D01*
G75*
G02*
X207540000Y-125500000I-175000J0D01*
G01*
G37*
G36*
G01*
X206270000Y-125500000D02*
X205920000Y-125500000D01*
G75*
G02*
X205745000Y-125325000I0J175000D01*
G01*
X205745000Y-123625000D01*
G75*
G02*
X205920000Y-123450000I175000J0D01*
G01*
X206270000Y-123450000D01*
G75*
G02*
X206445000Y-123625000I0J-175000D01*
G01*
X206445000Y-125325000D01*
G75*
G02*
X206270000Y-125500000I-175000J0D01*
G01*
G37*
%TD*%
D21*
%TO.C,Q1*%
X200000000Y-125000000D03*
X198000000Y-125950000D03*
X198000000Y-124050000D03*
%TD*%
D13*
%TO.C,JP2*%
X226540000Y-124280000D03*
D14*
X226540000Y-121740000D03*
%TD*%
D13*
%TO.C,JP1*%
X231190000Y-124280000D03*
D14*
X231190000Y-121740000D03*
%TD*%
D22*
%TO.C,J1*%
X144260000Y-121460000D03*
X141720000Y-121460000D03*
X139180000Y-121460000D03*
X136640000Y-121460000D03*
X134100000Y-121460000D03*
X131560000Y-121460000D03*
X129020000Y-121460000D03*
X126480000Y-121460000D03*
X123940000Y-121460000D03*
X121400000Y-121460000D03*
X118860000Y-121460000D03*
X116320000Y-121460000D03*
X113780000Y-121460000D03*
X111240000Y-121460000D03*
X108700000Y-121460000D03*
X106160000Y-121460000D03*
X103620000Y-121460000D03*
X101080000Y-121460000D03*
X98540000Y-121460000D03*
X96000000Y-121460000D03*
X144260000Y-124000000D03*
X141720000Y-124000000D03*
X139180000Y-124000000D03*
X136640000Y-124000000D03*
X134100000Y-124000000D03*
X131560000Y-124000000D03*
X129020000Y-124000000D03*
X126480000Y-124000000D03*
X123940000Y-124000000D03*
X121400000Y-124000000D03*
X118860000Y-124000000D03*
X116320000Y-124000000D03*
X113780000Y-124000000D03*
X111240000Y-124000000D03*
X108700000Y-124000000D03*
X106160000Y-124000000D03*
X103620000Y-124000000D03*
X101080000Y-124000000D03*
X98540000Y-124000000D03*
G36*
G01*
X96635294Y-124900000D02*
X95364706Y-124900000D01*
G75*
G02*
X95100000Y-124635294I0J264706D01*
G01*
X95100000Y-123364706D01*
G75*
G02*
X95364706Y-123100000I264706J0D01*
G01*
X96635294Y-123100000D01*
G75*
G02*
X96900000Y-123364706I0J-264706D01*
G01*
X96900000Y-124635294D01*
G75*
G02*
X96635294Y-124900000I-264706J0D01*
G01*
G37*
%TD*%
D21*
%TO.C,D1*%
X253000000Y-115000000D03*
X251000000Y-115950000D03*
X251000000Y-114050000D03*
%TD*%
%TO.C,C6*%
G36*
G01*
X235481250Y-114600000D02*
X234518750Y-114600000D01*
G75*
G02*
X234250000Y-114331250I0J268750D01*
G01*
X234250000Y-113793750D01*
G75*
G02*
X234518750Y-113525000I268750J0D01*
G01*
X235481250Y-113525000D01*
G75*
G02*
X235750000Y-113793750I0J-268750D01*
G01*
X235750000Y-114331250D01*
G75*
G02*
X235481250Y-114600000I-268750J0D01*
G01*
G37*
G36*
G01*
X235481250Y-116475000D02*
X234518750Y-116475000D01*
G75*
G02*
X234250000Y-116206250I0J268750D01*
G01*
X234250000Y-115668750D01*
G75*
G02*
X234518750Y-115400000I268750J0D01*
G01*
X235481250Y-115400000D01*
G75*
G02*
X235750000Y-115668750I0J-268750D01*
G01*
X235750000Y-116206250D01*
G75*
G02*
X235481250Y-116475000I-268750J0D01*
G01*
G37*
%TD*%
%TO.C,C5*%
G36*
G01*
X224481250Y-114600000D02*
X223518750Y-114600000D01*
G75*
G02*
X223250000Y-114331250I0J268750D01*
G01*
X223250000Y-113793750D01*
G75*
G02*
X223518750Y-113525000I268750J0D01*
G01*
X224481250Y-113525000D01*
G75*
G02*
X224750000Y-113793750I0J-268750D01*
G01*
X224750000Y-114331250D01*
G75*
G02*
X224481250Y-114600000I-268750J0D01*
G01*
G37*
G36*
G01*
X224481250Y-116475000D02*
X223518750Y-116475000D01*
G75*
G02*
X223250000Y-116206250I0J268750D01*
G01*
X223250000Y-115668750D01*
G75*
G02*
X223518750Y-115400000I268750J0D01*
G01*
X224481250Y-115400000D01*
G75*
G02*
X224750000Y-115668750I0J-268750D01*
G01*
X224750000Y-116206250D01*
G75*
G02*
X224481250Y-116475000I-268750J0D01*
G01*
G37*
%TD*%
%TO.C,C4*%
G36*
G01*
X216481250Y-114600000D02*
X215518750Y-114600000D01*
G75*
G02*
X215250000Y-114331250I0J268750D01*
G01*
X215250000Y-113793750D01*
G75*
G02*
X215518750Y-113525000I268750J0D01*
G01*
X216481250Y-113525000D01*
G75*
G02*
X216750000Y-113793750I0J-268750D01*
G01*
X216750000Y-114331250D01*
G75*
G02*
X216481250Y-114600000I-268750J0D01*
G01*
G37*
G36*
G01*
X216481250Y-116475000D02*
X215518750Y-116475000D01*
G75*
G02*
X215250000Y-116206250I0J268750D01*
G01*
X215250000Y-115668750D01*
G75*
G02*
X215518750Y-115400000I268750J0D01*
G01*
X216481250Y-115400000D01*
G75*
G02*
X216750000Y-115668750I0J-268750D01*
G01*
X216750000Y-116206250D01*
G75*
G02*
X216481250Y-116475000I-268750J0D01*
G01*
G37*
%TD*%
D23*
%TO.C,A1*%
X227240000Y-103560000D03*
X212000000Y-103560000D03*
X227240000Y-68000000D03*
X212000000Y-101020000D03*
X227240000Y-70540000D03*
X212000000Y-98480000D03*
X227240000Y-73080000D03*
X212000000Y-95940000D03*
X227240000Y-75620000D03*
X212000000Y-93400000D03*
X227240000Y-78160000D03*
X212000000Y-90860000D03*
X227240000Y-80700000D03*
X212000000Y-88320000D03*
X227240000Y-83240000D03*
X212000000Y-85780000D03*
X227240000Y-85780000D03*
X212000000Y-83240000D03*
X227240000Y-88320000D03*
X212000000Y-80700000D03*
X227240000Y-90860000D03*
X212000000Y-78160000D03*
X227240000Y-93400000D03*
X212000000Y-75620000D03*
X227240000Y-95940000D03*
X212000000Y-73080000D03*
X227240000Y-98480000D03*
X212000000Y-70540000D03*
X227240000Y-101020000D03*
D24*
X212000000Y-68000000D03*
%TD*%
M02*
