M48
; DRILL file {KiCad (5.1.6)-1} date 10/08/21 13:52:51
; FORMAT={3:3/ absolute / metric / suppress leading zeros}
; #@! TF.CreationDate,2021-10-08T13:52:51-05:00
; #@! TF.GenerationSoftware,Kicad,Pcbnew,(5.1.6)-1
FMAT,2
METRIC,TZ
T1C0.400
T2C0.600
T3C0.762
T4C1.000
T5C1.100
T6C1.200
T7C4.300
T8C2.400
%
G90
G05
T1
X80317Y-112527
X95558Y-117456
X95658Y-116287
X99716Y-89775
X101432Y-113527
X104337Y-90931
X105550Y-91191
X111366Y-99842
X114453Y-112506
X114809Y-107635
X116172Y-109317
X119844Y-100068
X122529Y-93258
X123647Y-90674
X127282Y-106718
X130477Y-120263
X130711Y-80626
X132000Y-87330
X134713Y-118710
X135425Y-119418
X136593Y-118494
X136603Y-113341
X146043Y-123373
X149000Y-125000
X155751Y-90725
X173617Y-90725
X185432Y-101504
X187010Y-96549
X189000Y-125000
X195000Y-118000
X196000Y-125000
X198000Y-93000
X199249Y-121443
X200106Y-122384
X200218Y-112884
X201128Y-123437
X201171Y-86896
X205746Y-113337
X205746Y-117947
X206599Y-114063
X207443Y-117551
X209745Y-103275
X209745Y-115934
X211845Y-105412
X211995Y-112876
X213180Y-121972
X213583Y-63715
X214389Y-97298
X216062Y-88587
X218427Y-117096
X218617Y-122872
X219282Y-115353
X219282Y-121173
X219688Y-114346
X220138Y-123874
X223000Y-104000
X223921Y-112874
X224000Y-86000
X224939Y-80626
X225100Y-107074
X225667Y-69916
X227671Y-113692
X228167Y-116612
X228822Y-112872
X229767Y-117491
X230104Y-64746
X230288Y-68975
X230404Y-120000
X231169Y-114017
X233452Y-106651
X234733Y-111288
X235760Y-105715
X238159Y-66985
X239206Y-92404
X242322Y-67179
X244861Y-97831
X246273Y-67277
X250000Y-64152
X251050Y-68753
T2
X44775Y-106000
X45720Y-103720
X45720Y-108280
X48000Y-102775
X48000Y-109225
X50280Y-103720
X50280Y-108280
X51225Y-106000
X44775Y-72000
X45720Y-69720
X45720Y-74280
X48000Y-68775
X48000Y-75225
X50280Y-69720
X50280Y-74280
X51225Y-72000
X188775Y-72000
X189720Y-69720
X189720Y-74280
X192000Y-68775
X192000Y-75225
X194280Y-69720
X194280Y-74280
X195225Y-72000
X188775Y-106000
X189720Y-103720
X189720Y-108280
X192000Y-102775
X192000Y-109225
X194280Y-103720
X194280Y-108280
X195225Y-106000
X116775Y-106000
X117720Y-103720
X117720Y-108280
X120000Y-102775
X120000Y-109225
X122280Y-103720
X122280Y-108280
X123225Y-106000
X116775Y-72000
X117720Y-69720
X117720Y-74280
X120000Y-68775
X120000Y-75225
X122280Y-69720
X122280Y-74280
X123225Y-72000
T3
X100000Y-85000
X100000Y-93000
X102000Y-89000
X104000Y-85000
X104000Y-93000
X106000Y-89000
X108000Y-85000
X108000Y-93000
X110000Y-89000
X112000Y-85000
X112000Y-93000
X114000Y-89000
X116000Y-85000
X116000Y-93000
X118000Y-89000
X120000Y-85000
X120000Y-93000
X122000Y-89000
X124000Y-85000
X124000Y-93000
X126000Y-89000
X128000Y-85000
X128000Y-93000
X130000Y-89000
X132000Y-85000
X132000Y-93000
X134000Y-89000
X136000Y-85000
X136000Y-93000
X138000Y-89000
X140000Y-85000
X140000Y-93000
X50000Y-85000
X50000Y-93000
X52000Y-89000
X54000Y-85000
X54000Y-93000
X56000Y-89000
X58000Y-85000
X58000Y-93000
X60000Y-89000
X62000Y-85000
X62000Y-93000
X64000Y-89000
X66000Y-85000
X66000Y-93000
X68000Y-89000
X70000Y-85000
X70000Y-93000
X72000Y-89000
X74000Y-85000
X74000Y-93000
X76000Y-89000
X78000Y-85000
X78000Y-93000
X80000Y-89000
X82000Y-85000
X82000Y-93000
X84000Y-89000
X86000Y-85000
X86000Y-93000
X88000Y-89000
X90000Y-85000
X90000Y-93000
X150000Y-85000
X150000Y-93000
X152000Y-89000
X154000Y-85000
X154000Y-93000
X156000Y-89000
X158000Y-85000
X158000Y-93000
X160000Y-89000
X162000Y-85000
X162000Y-93000
X164000Y-89000
X166000Y-85000
X166000Y-93000
X168000Y-89000
X170000Y-85000
X170000Y-93000
X172000Y-89000
X174000Y-85000
X174000Y-93000
X176000Y-89000
X178000Y-85000
X178000Y-93000
X180000Y-89000
X182000Y-85000
X182000Y-93000
X184000Y-89000
X186000Y-85000
X186000Y-93000
X188000Y-89000
X190000Y-85000
X190000Y-93000
T4
X61000Y-122460
X61000Y-125000
X231190Y-121740
X231190Y-124280
X212000Y-68000
X212000Y-70540
X212000Y-73080
X212000Y-75620
X212000Y-78160
X212000Y-80700
X212000Y-83240
X212000Y-85780
X212000Y-88320
X212000Y-90860
X212000Y-93400
X212000Y-95940
X212000Y-98480
X212000Y-101020
X212000Y-103560
X227240Y-68000
X227240Y-70540
X227240Y-73080
X227240Y-75620
X227240Y-78160
X227240Y-80700
X227240Y-83240
X227240Y-85780
X227240Y-88320
X227240Y-90860
X227240Y-93400
X227240Y-95940
X227240Y-98480
X227240Y-101020
X227240Y-103560
X226540Y-121740
X226540Y-124280
X96000Y-121460
X96000Y-124000
X98540Y-121460
X98540Y-124000
X101080Y-121460
X101080Y-124000
X103620Y-121460
X103620Y-124000
X106160Y-121460
X106160Y-124000
X108700Y-121460
X108700Y-124000
X111240Y-121460
X111240Y-124000
X113780Y-121460
X113780Y-124000
X116320Y-121460
X116320Y-124000
X118860Y-121460
X118860Y-124000
X121400Y-121460
X121400Y-124000
X123940Y-121460
X123940Y-124000
X126480Y-121460
X126480Y-124000
X129020Y-121460
X129020Y-124000
X131560Y-121460
X131560Y-124000
X134100Y-121460
X134100Y-124000
X136640Y-121460
X136640Y-124000
X139180Y-121460
X139180Y-124000
X141720Y-121460
X141720Y-124000
X144260Y-121460
X144260Y-124000
T5
X237000Y-73400
X237000Y-75940
X237000Y-78480
X248000Y-96600
X248000Y-99140
X248000Y-101680
X237000Y-85200
X237000Y-87740
X237000Y-90280
X248000Y-73000
X248000Y-75540
X248000Y-78080
X237000Y-97000
X237000Y-99540
X237000Y-102080
X248000Y-84800
X248000Y-87340
X248000Y-89880
T6
X45000Y-124000
X48810Y-124000
T7
X120000Y-72000
X48000Y-106000
X48000Y-72000
X192000Y-72000
X192000Y-106000
X120000Y-106000
T8
X40500Y-124000
X53310Y-124000
T0
M30
