%TF.GenerationSoftware,KiCad,Pcbnew,(5.1.6)-1*%
%TF.CreationDate,2021-10-09T15:15:24-05:00*%
%TF.ProjectId,Jeep JTEC,4a656570-204a-4544-9543-2e6b69636164,rev?*%
%TF.SameCoordinates,Original*%
%TF.FileFunction,Legend,Top*%
%TF.FilePolarity,Positive*%
%FSLAX46Y46*%
G04 Gerber Fmt 4.6, Leading zero omitted, Abs format (unit mm)*
G04 Created by KiCad (PCBNEW (5.1.6)-1) date 2021-10-09 15:15:24*
%MOMM*%
%LPD*%
G01*
G04 APERTURE LIST*
%ADD10C,0.150000*%
%ADD11C,0.120000*%
G04 APERTURE END LIST*
D10*
X223571428Y-128107142D02*
X223523809Y-128154761D01*
X223380952Y-128202380D01*
X223285714Y-128202380D01*
X223142857Y-128154761D01*
X223047619Y-128059523D01*
X223000000Y-127964285D01*
X222952380Y-127773809D01*
X222952380Y-127630952D01*
X223000000Y-127440476D01*
X223047619Y-127345238D01*
X223142857Y-127250000D01*
X223285714Y-127202380D01*
X223380952Y-127202380D01*
X223523809Y-127250000D01*
X223571428Y-127297619D01*
X224571428Y-128107142D02*
X224523809Y-128154761D01*
X224380952Y-128202380D01*
X224285714Y-128202380D01*
X224142857Y-128154761D01*
X224047619Y-128059523D01*
X224000000Y-127964285D01*
X223952380Y-127773809D01*
X223952380Y-127630952D01*
X224000000Y-127440476D01*
X224047619Y-127345238D01*
X224142857Y-127250000D01*
X224285714Y-127202380D01*
X224380952Y-127202380D01*
X224523809Y-127250000D01*
X224571428Y-127297619D01*
X225000000Y-128202380D02*
X225000000Y-127202380D01*
X225238095Y-127202380D01*
X225380952Y-127250000D01*
X225476190Y-127345238D01*
X225523809Y-127440476D01*
X225571428Y-127630952D01*
X225571428Y-127773809D01*
X225523809Y-127964285D01*
X225476190Y-128059523D01*
X225380952Y-128154761D01*
X225238095Y-128202380D01*
X225000000Y-128202380D01*
X226619047Y-127202380D02*
X227190476Y-127202380D01*
X226904761Y-128202380D02*
X226904761Y-127202380D01*
X227904761Y-128154761D02*
X227809523Y-128202380D01*
X227619047Y-128202380D01*
X227523809Y-128154761D01*
X227476190Y-128059523D01*
X227476190Y-127678571D01*
X227523809Y-127583333D01*
X227619047Y-127535714D01*
X227809523Y-127535714D01*
X227904761Y-127583333D01*
X227952380Y-127678571D01*
X227952380Y-127773809D01*
X227476190Y-127869047D01*
X228380952Y-128202380D02*
X228380952Y-127535714D01*
X228380952Y-127726190D02*
X228428571Y-127630952D01*
X228476190Y-127583333D01*
X228571428Y-127535714D01*
X228666666Y-127535714D01*
X229000000Y-128202380D02*
X229000000Y-127535714D01*
X229000000Y-127630952D02*
X229047619Y-127583333D01*
X229142857Y-127535714D01*
X229285714Y-127535714D01*
X229380952Y-127583333D01*
X229428571Y-127678571D01*
X229428571Y-128202380D01*
X229428571Y-127678571D02*
X229476190Y-127583333D01*
X229571428Y-127535714D01*
X229714285Y-127535714D01*
X229809523Y-127583333D01*
X229857142Y-127678571D01*
X229857142Y-128202380D01*
X230333333Y-128202380D02*
X230333333Y-127535714D01*
X230333333Y-127202380D02*
X230285714Y-127250000D01*
X230333333Y-127297619D01*
X230380952Y-127250000D01*
X230333333Y-127202380D01*
X230333333Y-127297619D01*
X230809523Y-127535714D02*
X230809523Y-128202380D01*
X230809523Y-127630952D02*
X230857142Y-127583333D01*
X230952380Y-127535714D01*
X231095238Y-127535714D01*
X231190476Y-127583333D01*
X231238095Y-127678571D01*
X231238095Y-128202380D01*
X232142857Y-128202380D02*
X232142857Y-127678571D01*
X232095238Y-127583333D01*
X232000000Y-127535714D01*
X231809523Y-127535714D01*
X231714285Y-127583333D01*
X232142857Y-128154761D02*
X232047619Y-128202380D01*
X231809523Y-128202380D01*
X231714285Y-128154761D01*
X231666666Y-128059523D01*
X231666666Y-127964285D01*
X231714285Y-127869047D01*
X231809523Y-127821428D01*
X232047619Y-127821428D01*
X232142857Y-127773809D01*
X232476190Y-127535714D02*
X232857142Y-127535714D01*
X232619047Y-127202380D02*
X232619047Y-128059523D01*
X232666666Y-128154761D01*
X232761904Y-128202380D01*
X232857142Y-128202380D01*
X233190476Y-128202380D02*
X233190476Y-127535714D01*
X233190476Y-127202380D02*
X233142857Y-127250000D01*
X233190476Y-127297619D01*
X233238095Y-127250000D01*
X233190476Y-127202380D01*
X233190476Y-127297619D01*
X233809523Y-128202380D02*
X233714285Y-128154761D01*
X233666666Y-128107142D01*
X233619047Y-128011904D01*
X233619047Y-127726190D01*
X233666666Y-127630952D01*
X233714285Y-127583333D01*
X233809523Y-127535714D01*
X233952380Y-127535714D01*
X234047619Y-127583333D01*
X234095238Y-127630952D01*
X234142857Y-127726190D01*
X234142857Y-128011904D01*
X234095238Y-128107142D01*
X234047619Y-128154761D01*
X233952380Y-128202380D01*
X233809523Y-128202380D01*
X234571428Y-127535714D02*
X234571428Y-128202380D01*
X234571428Y-127630952D02*
X234619047Y-127583333D01*
X234714285Y-127535714D01*
X234857142Y-127535714D01*
X234952380Y-127583333D01*
X235000000Y-127678571D01*
X235000000Y-128202380D01*
X152571428Y-125329761D02*
X152714285Y-125377380D01*
X152952380Y-125377380D01*
X153047619Y-125329761D01*
X153095238Y-125282142D01*
X153142857Y-125186904D01*
X153142857Y-125091666D01*
X153095238Y-124996428D01*
X153047619Y-124948809D01*
X152952380Y-124901190D01*
X152761904Y-124853571D01*
X152666666Y-124805952D01*
X152619047Y-124758333D01*
X152571428Y-124663095D01*
X152571428Y-124567857D01*
X152619047Y-124472619D01*
X152666666Y-124425000D01*
X152761904Y-124377380D01*
X153000000Y-124377380D01*
X153142857Y-124425000D01*
X153571428Y-124710714D02*
X153571428Y-125710714D01*
X153571428Y-124758333D02*
X153666666Y-124710714D01*
X153857142Y-124710714D01*
X153952380Y-124758333D01*
X154000000Y-124805952D01*
X154047619Y-124901190D01*
X154047619Y-125186904D01*
X154000000Y-125282142D01*
X153952380Y-125329761D01*
X153857142Y-125377380D01*
X153666666Y-125377380D01*
X153571428Y-125329761D01*
X154857142Y-125329761D02*
X154761904Y-125377380D01*
X154571428Y-125377380D01*
X154476190Y-125329761D01*
X154428571Y-125234523D01*
X154428571Y-124853571D01*
X154476190Y-124758333D01*
X154571428Y-124710714D01*
X154761904Y-124710714D01*
X154857142Y-124758333D01*
X154904761Y-124853571D01*
X154904761Y-124948809D01*
X154428571Y-125044047D01*
X155714285Y-125329761D02*
X155619047Y-125377380D01*
X155428571Y-125377380D01*
X155333333Y-125329761D01*
X155285714Y-125234523D01*
X155285714Y-124853571D01*
X155333333Y-124758333D01*
X155428571Y-124710714D01*
X155619047Y-124710714D01*
X155714285Y-124758333D01*
X155761904Y-124853571D01*
X155761904Y-124948809D01*
X155285714Y-125044047D01*
X156619047Y-125377380D02*
X156619047Y-124377380D01*
X156619047Y-125329761D02*
X156523809Y-125377380D01*
X156333333Y-125377380D01*
X156238095Y-125329761D01*
X156190476Y-125282142D01*
X156142857Y-125186904D01*
X156142857Y-124901190D01*
X156190476Y-124805952D01*
X156238095Y-124758333D01*
X156333333Y-124710714D01*
X156523809Y-124710714D01*
X156619047Y-124758333D01*
X157523809Y-124710714D02*
X157523809Y-125377380D01*
X157095238Y-124710714D02*
X157095238Y-125234523D01*
X157142857Y-125329761D01*
X157238095Y-125377380D01*
X157380952Y-125377380D01*
X157476190Y-125329761D01*
X157523809Y-125282142D01*
X158000000Y-125377380D02*
X158000000Y-124710714D01*
X158000000Y-124377380D02*
X157952380Y-124425000D01*
X158000000Y-124472619D01*
X158047619Y-124425000D01*
X158000000Y-124377380D01*
X158000000Y-124472619D01*
X158476190Y-124710714D02*
X158476190Y-125377380D01*
X158476190Y-124805952D02*
X158523809Y-124758333D01*
X158619047Y-124710714D01*
X158761904Y-124710714D01*
X158857142Y-124758333D01*
X158904761Y-124853571D01*
X158904761Y-125377380D01*
X159523809Y-125377380D02*
X159428571Y-125329761D01*
X159380952Y-125282142D01*
X159333333Y-125186904D01*
X159333333Y-124901190D01*
X159380952Y-124805952D01*
X159428571Y-124758333D01*
X159523809Y-124710714D01*
X159666666Y-124710714D01*
X159761904Y-124758333D01*
X159809523Y-124805952D01*
X159857142Y-124901190D01*
X159857142Y-125186904D01*
X159809523Y-125282142D01*
X159761904Y-125329761D01*
X159666666Y-125377380D01*
X159523809Y-125377380D01*
X160904761Y-124710714D02*
X161285714Y-124710714D01*
X161047619Y-124377380D02*
X161047619Y-125234523D01*
X161095238Y-125329761D01*
X161190476Y-125377380D01*
X161285714Y-125377380D01*
X161761904Y-125377380D02*
X161666666Y-125329761D01*
X161619047Y-125282142D01*
X161571428Y-125186904D01*
X161571428Y-124901190D01*
X161619047Y-124805952D01*
X161666666Y-124758333D01*
X161761904Y-124710714D01*
X161904761Y-124710714D01*
X162000000Y-124758333D01*
X162047619Y-124805952D01*
X162095238Y-124901190D01*
X162095238Y-125186904D01*
X162047619Y-125282142D01*
X162000000Y-125329761D01*
X161904761Y-125377380D01*
X161761904Y-125377380D01*
X163571428Y-124377380D02*
X163571428Y-125091666D01*
X163523809Y-125234523D01*
X163428571Y-125329761D01*
X163285714Y-125377380D01*
X163190476Y-125377380D01*
X164428571Y-125329761D02*
X164333333Y-125377380D01*
X164142857Y-125377380D01*
X164047619Y-125329761D01*
X164000000Y-125234523D01*
X164000000Y-124853571D01*
X164047619Y-124758333D01*
X164142857Y-124710714D01*
X164333333Y-124710714D01*
X164428571Y-124758333D01*
X164476190Y-124853571D01*
X164476190Y-124948809D01*
X164000000Y-125044047D01*
X165285714Y-125329761D02*
X165190476Y-125377380D01*
X165000000Y-125377380D01*
X164904761Y-125329761D01*
X164857142Y-125234523D01*
X164857142Y-124853571D01*
X164904761Y-124758333D01*
X165000000Y-124710714D01*
X165190476Y-124710714D01*
X165285714Y-124758333D01*
X165333333Y-124853571D01*
X165333333Y-124948809D01*
X164857142Y-125044047D01*
X165761904Y-124710714D02*
X165761904Y-125710714D01*
X165761904Y-124758333D02*
X165857142Y-124710714D01*
X166047619Y-124710714D01*
X166142857Y-124758333D01*
X166190476Y-124805952D01*
X166238095Y-124901190D01*
X166238095Y-125186904D01*
X166190476Y-125282142D01*
X166142857Y-125329761D01*
X166047619Y-125377380D01*
X165857142Y-125377380D01*
X165761904Y-125329761D01*
X167714285Y-124377380D02*
X167714285Y-125091666D01*
X167666666Y-125234523D01*
X167571428Y-125329761D01*
X167428571Y-125377380D01*
X167333333Y-125377380D01*
X168047619Y-124377380D02*
X168619047Y-124377380D01*
X168333333Y-125377380D02*
X168333333Y-124377380D01*
X168952380Y-124853571D02*
X169285714Y-124853571D01*
X169428571Y-125377380D02*
X168952380Y-125377380D01*
X168952380Y-124377380D01*
X169428571Y-124377380D01*
X170428571Y-125282142D02*
X170380952Y-125329761D01*
X170238095Y-125377380D01*
X170142857Y-125377380D01*
X170000000Y-125329761D01*
X169904761Y-125234523D01*
X169857142Y-125139285D01*
X169809523Y-124948809D01*
X169809523Y-124805952D01*
X169857142Y-124615476D01*
X169904761Y-124520238D01*
X170000000Y-124425000D01*
X170142857Y-124377380D01*
X170238095Y-124377380D01*
X170380952Y-124425000D01*
X170428571Y-124472619D01*
X155166666Y-127027380D02*
X155166666Y-126027380D01*
X155547619Y-126027380D01*
X155642857Y-126075000D01*
X155690476Y-126122619D01*
X155738095Y-126217857D01*
X155738095Y-126360714D01*
X155690476Y-126455952D01*
X155642857Y-126503571D01*
X155547619Y-126551190D01*
X155166666Y-126551190D01*
X156547619Y-126979761D02*
X156452380Y-127027380D01*
X156261904Y-127027380D01*
X156166666Y-126979761D01*
X156119047Y-126884523D01*
X156119047Y-126503571D01*
X156166666Y-126408333D01*
X156261904Y-126360714D01*
X156452380Y-126360714D01*
X156547619Y-126408333D01*
X156595238Y-126503571D01*
X156595238Y-126598809D01*
X156119047Y-126694047D01*
X156880952Y-126360714D02*
X157261904Y-126360714D01*
X157023809Y-126027380D02*
X157023809Y-126884523D01*
X157071428Y-126979761D01*
X157166666Y-127027380D01*
X157261904Y-127027380D01*
X157976190Y-126979761D02*
X157880952Y-127027380D01*
X157690476Y-127027380D01*
X157595238Y-126979761D01*
X157547619Y-126884523D01*
X157547619Y-126503571D01*
X157595238Y-126408333D01*
X157690476Y-126360714D01*
X157880952Y-126360714D01*
X157976190Y-126408333D01*
X158023809Y-126503571D01*
X158023809Y-126598809D01*
X157547619Y-126694047D01*
X158452380Y-127027380D02*
X158452380Y-126360714D01*
X158452380Y-126551190D02*
X158500000Y-126455952D01*
X158547619Y-126408333D01*
X158642857Y-126360714D01*
X158738095Y-126360714D01*
X159833333Y-127027380D02*
X159833333Y-126027380D01*
X160071428Y-126027380D01*
X160214285Y-126075000D01*
X160309523Y-126170238D01*
X160357142Y-126265476D01*
X160404761Y-126455952D01*
X160404761Y-126598809D01*
X160357142Y-126789285D01*
X160309523Y-126884523D01*
X160214285Y-126979761D01*
X160071428Y-127027380D01*
X159833333Y-127027380D01*
X161214285Y-126979761D02*
X161119047Y-127027380D01*
X160928571Y-127027380D01*
X160833333Y-126979761D01*
X160785714Y-126884523D01*
X160785714Y-126503571D01*
X160833333Y-126408333D01*
X160928571Y-126360714D01*
X161119047Y-126360714D01*
X161214285Y-126408333D01*
X161261904Y-126503571D01*
X161261904Y-126598809D01*
X160785714Y-126694047D01*
X161690476Y-126360714D02*
X161690476Y-127027380D01*
X161690476Y-126455952D02*
X161738095Y-126408333D01*
X161833333Y-126360714D01*
X161976190Y-126360714D01*
X162071428Y-126408333D01*
X162119047Y-126503571D01*
X162119047Y-127027380D01*
X163357142Y-127027380D02*
X163357142Y-126027380D01*
X163357142Y-126503571D02*
X163928571Y-126503571D01*
X163928571Y-127027380D02*
X163928571Y-126027380D01*
X164833333Y-127027380D02*
X164833333Y-126503571D01*
X164785714Y-126408333D01*
X164690476Y-126360714D01*
X164500000Y-126360714D01*
X164404761Y-126408333D01*
X164833333Y-126979761D02*
X164738095Y-127027380D01*
X164500000Y-127027380D01*
X164404761Y-126979761D01*
X164357142Y-126884523D01*
X164357142Y-126789285D01*
X164404761Y-126694047D01*
X164500000Y-126646428D01*
X164738095Y-126646428D01*
X164833333Y-126598809D01*
X165309523Y-127027380D02*
X165309523Y-126360714D01*
X165309523Y-126551190D02*
X165357142Y-126455952D01*
X165404761Y-126408333D01*
X165500000Y-126360714D01*
X165595238Y-126360714D01*
X165785714Y-126360714D02*
X166166666Y-126360714D01*
X165928571Y-126027380D02*
X165928571Y-126884523D01*
X165976190Y-126979761D01*
X166071428Y-127027380D01*
X166166666Y-127027380D01*
X166642857Y-127027380D02*
X166547619Y-126979761D01*
X166500000Y-126932142D01*
X166452380Y-126836904D01*
X166452380Y-126551190D01*
X166500000Y-126455952D01*
X166547619Y-126408333D01*
X166642857Y-126360714D01*
X166785714Y-126360714D01*
X166880952Y-126408333D01*
X166928571Y-126455952D01*
X166976190Y-126551190D01*
X166976190Y-126836904D01*
X166928571Y-126932142D01*
X166880952Y-126979761D01*
X166785714Y-127027380D01*
X166642857Y-127027380D01*
X167833333Y-126360714D02*
X167833333Y-127170238D01*
X167785714Y-127265476D01*
X167738095Y-127313095D01*
X167642857Y-127360714D01*
X167500000Y-127360714D01*
X167404761Y-127313095D01*
X167833333Y-126979761D02*
X167738095Y-127027380D01*
X167547619Y-127027380D01*
X167452380Y-126979761D01*
X167404761Y-126932142D01*
X167357142Y-126836904D01*
X167357142Y-126551190D01*
X167404761Y-126455952D01*
X167452380Y-126408333D01*
X167547619Y-126360714D01*
X167738095Y-126360714D01*
X167833333Y-126408333D01*
X44785714Y-128952380D02*
X44214285Y-128952380D01*
X44500000Y-128952380D02*
X44500000Y-127952380D01*
X44404761Y-128095238D01*
X44309523Y-128190476D01*
X44214285Y-128238095D01*
X45166666Y-128047619D02*
X45214285Y-128000000D01*
X45309523Y-127952380D01*
X45547619Y-127952380D01*
X45642857Y-128000000D01*
X45690476Y-128047619D01*
X45738095Y-128142857D01*
X45738095Y-128238095D01*
X45690476Y-128380952D01*
X45119047Y-128952380D01*
X45738095Y-128952380D01*
X46071428Y-128285714D02*
X46309523Y-128952380D01*
X46547619Y-128285714D01*
X47880952Y-127952380D02*
X48071428Y-127952380D01*
X48166666Y-128000000D01*
X48261904Y-128095238D01*
X48309523Y-128285714D01*
X48309523Y-128619047D01*
X48261904Y-128809523D01*
X48166666Y-128904761D01*
X48071428Y-128952380D01*
X47880952Y-128952380D01*
X47785714Y-128904761D01*
X47690476Y-128809523D01*
X47642857Y-128619047D01*
X47642857Y-128285714D01*
X47690476Y-128095238D01*
X47785714Y-128000000D01*
X47880952Y-127952380D01*
X49166666Y-128285714D02*
X49166666Y-128952380D01*
X48738095Y-128285714D02*
X48738095Y-128809523D01*
X48785714Y-128904761D01*
X48880952Y-128952380D01*
X49023809Y-128952380D01*
X49119047Y-128904761D01*
X49166666Y-128857142D01*
X49500000Y-128285714D02*
X49880952Y-128285714D01*
X49642857Y-127952380D02*
X49642857Y-128809523D01*
X49690476Y-128904761D01*
X49785714Y-128952380D01*
X49880952Y-128952380D01*
X56285714Y-118750000D02*
X56190476Y-118702380D01*
X56047619Y-118702380D01*
X55904761Y-118750000D01*
X55809523Y-118845238D01*
X55761904Y-118940476D01*
X55714285Y-119130952D01*
X55714285Y-119273809D01*
X55761904Y-119464285D01*
X55809523Y-119559523D01*
X55904761Y-119654761D01*
X56047619Y-119702380D01*
X56142857Y-119702380D01*
X56285714Y-119654761D01*
X56333333Y-119607142D01*
X56333333Y-119273809D01*
X56142857Y-119273809D01*
X56761904Y-119702380D02*
X56761904Y-118702380D01*
X57333333Y-119702380D01*
X57333333Y-118702380D01*
X57809523Y-119702380D02*
X57809523Y-118702380D01*
X58047619Y-118702380D01*
X58190476Y-118750000D01*
X58285714Y-118845238D01*
X58333333Y-118940476D01*
X58380952Y-119130952D01*
X58380952Y-119273809D01*
X58333333Y-119464285D01*
X58285714Y-119559523D01*
X58190476Y-119654761D01*
X58047619Y-119702380D01*
X57809523Y-119702380D01*
X58761904Y-119416666D02*
X59238095Y-119416666D01*
X58666666Y-119702380D02*
X59000000Y-118702380D01*
X59333333Y-119702380D01*
X60428571Y-119321428D02*
X61190476Y-119321428D01*
X61666666Y-119035714D02*
X62428571Y-119321428D01*
X61666666Y-119607142D01*
X64190476Y-118750000D02*
X64095238Y-118702380D01*
X63952380Y-118702380D01*
X63809523Y-118750000D01*
X63714285Y-118845238D01*
X63666666Y-118940476D01*
X63619047Y-119130952D01*
X63619047Y-119273809D01*
X63666666Y-119464285D01*
X63714285Y-119559523D01*
X63809523Y-119654761D01*
X63952380Y-119702380D01*
X64047619Y-119702380D01*
X64190476Y-119654761D01*
X64238095Y-119607142D01*
X64238095Y-119273809D01*
X64047619Y-119273809D01*
X64666666Y-119702380D02*
X64666666Y-118702380D01*
X65238095Y-119702380D01*
X65238095Y-118702380D01*
X65714285Y-119702380D02*
X65714285Y-118702380D01*
X65952380Y-118702380D01*
X66095238Y-118750000D01*
X66190476Y-118845238D01*
X66238095Y-118940476D01*
X66285714Y-119130952D01*
X66285714Y-119273809D01*
X66238095Y-119464285D01*
X66190476Y-119559523D01*
X66095238Y-119654761D01*
X65952380Y-119702380D01*
X65714285Y-119702380D01*
D11*
%TO.C,U2*%
X227390000Y-113920000D02*
X227390000Y-116370000D01*
X230610000Y-115720000D02*
X230610000Y-113920000D01*
%TO.C,R19*%
X192741422Y-126710000D02*
X193258578Y-126710000D01*
X192741422Y-125290000D02*
X193258578Y-125290000D01*
%TO.C,C1*%
X72000000Y-71000000D02*
X70000000Y-69000000D01*
X68000000Y-71000000D02*
X72000000Y-71000000D01*
X70000000Y-69000000D02*
X68000000Y-71000000D01*
X70000000Y-79000000D02*
X70000000Y-69000000D01*
X46000000Y-116000000D02*
X46000000Y-62000000D01*
X94000000Y-116000000D02*
X46000000Y-116000000D01*
X94000000Y-62000000D02*
X94000000Y-116000000D01*
X46000000Y-62000000D02*
X94000000Y-62000000D01*
%TO.C,C3*%
X172000000Y-71000000D02*
X170000000Y-69000000D01*
X168000000Y-71000000D02*
X172000000Y-71000000D01*
X170000000Y-69000000D02*
X168000000Y-71000000D01*
X170000000Y-79000000D02*
X170000000Y-69000000D01*
X146000000Y-116000000D02*
X146000000Y-62000000D01*
X194000000Y-116000000D02*
X146000000Y-116000000D01*
X194000000Y-62000000D02*
X194000000Y-116000000D01*
X146000000Y-62000000D02*
X194000000Y-62000000D01*
%TO.C,C2*%
X122000000Y-71000000D02*
X120000000Y-69000000D01*
X118000000Y-71000000D02*
X122000000Y-71000000D01*
X120000000Y-69000000D02*
X118000000Y-71000000D01*
X120000000Y-79000000D02*
X120000000Y-69000000D01*
X96000000Y-116000000D02*
X96000000Y-62000000D01*
X144000000Y-116000000D02*
X96000000Y-116000000D01*
X144000000Y-62000000D02*
X144000000Y-116000000D01*
X96000000Y-62000000D02*
X144000000Y-62000000D01*
%TO.C,JP3*%
X62330000Y-121130000D02*
X59670000Y-121130000D01*
X62330000Y-123730000D02*
X62330000Y-121130000D01*
X59670000Y-123730000D02*
X59670000Y-121130000D01*
X62330000Y-123730000D02*
X59670000Y-123730000D01*
X62330000Y-125000000D02*
X62330000Y-126330000D01*
X62330000Y-126330000D02*
X61000000Y-126330000D01*
%TO.C,J2*%
X42400000Y-124000000D02*
G75*
G03*
X42400000Y-124000000I-1900000J0D01*
G01*
X55210000Y-124000000D02*
G75*
G03*
X55210000Y-124000000I-1900000J0D01*
G01*
X37790000Y-127110000D02*
X56020000Y-127110000D01*
X56020000Y-127110000D02*
X56020000Y-120890000D01*
X56020000Y-120890000D02*
X51220000Y-120890000D01*
X51220000Y-120890000D02*
X51220000Y-119640000D01*
X51220000Y-119640000D02*
X42590000Y-119640000D01*
X42590000Y-119640000D02*
X42590000Y-120890000D01*
X42590000Y-120890000D02*
X37790000Y-120890000D01*
X37790000Y-120890000D02*
X37790000Y-127110000D01*
X44250000Y-126250000D02*
X43500000Y-126250000D01*
X43500000Y-126250000D02*
X43500000Y-121950000D01*
X43500000Y-121950000D02*
X44250000Y-121950000D01*
X44250000Y-121950000D02*
X44250000Y-121600000D01*
X44250000Y-121600000D02*
X43750000Y-121600000D01*
X43750000Y-121600000D02*
X43500000Y-120600000D01*
X43500000Y-120600000D02*
X46500000Y-120600000D01*
X46500000Y-120600000D02*
X46250000Y-121600000D01*
X46250000Y-121600000D02*
X45750000Y-121600000D01*
X45750000Y-121600000D02*
X45750000Y-121950000D01*
X45750000Y-121950000D02*
X46500000Y-121950000D01*
X46500000Y-121950000D02*
X46500000Y-126250000D01*
X46500000Y-126250000D02*
X45750000Y-126250000D01*
X48060000Y-126250000D02*
X47310000Y-126250000D01*
X47310000Y-126250000D02*
X47310000Y-121950000D01*
X47310000Y-121950000D02*
X48060000Y-121950000D01*
X48060000Y-121950000D02*
X48060000Y-121600000D01*
X48060000Y-121600000D02*
X47560000Y-121600000D01*
X47560000Y-121600000D02*
X47310000Y-120600000D01*
X47310000Y-120600000D02*
X50310000Y-120600000D01*
X50310000Y-120600000D02*
X50060000Y-121600000D01*
X50060000Y-121600000D02*
X49560000Y-121600000D01*
X49560000Y-121600000D02*
X49560000Y-121950000D01*
X49560000Y-121950000D02*
X50310000Y-121950000D01*
X50310000Y-121950000D02*
X50310000Y-126250000D01*
X50310000Y-126250000D02*
X49560000Y-126250000D01*
X42200000Y-120500000D02*
X42200000Y-119250000D01*
X42200000Y-119250000D02*
X44200000Y-119250000D01*
X49559647Y-126249845D02*
G75*
G03*
X48060000Y-126250000I-749647J-1700155D01*
G01*
X45749647Y-126249845D02*
G75*
G03*
X44250000Y-126250000I-749647J-1700155D01*
G01*
%TO.C,U1*%
X214440000Y-122000000D02*
X214440000Y-125450000D01*
X214440000Y-122000000D02*
X214440000Y-120050000D01*
X219560000Y-122000000D02*
X219560000Y-123950000D01*
X219560000Y-122000000D02*
X219560000Y-120050000D01*
%TO.C,R18*%
X245741422Y-124710000D02*
X246258578Y-124710000D01*
X245741422Y-123290000D02*
X246258578Y-123290000D01*
%TO.C,R17*%
X248710000Y-65258578D02*
X248710000Y-64741422D01*
X247290000Y-65258578D02*
X247290000Y-64741422D01*
%TO.C,R16*%
X244590000Y-65228578D02*
X244590000Y-64711422D01*
X243170000Y-65228578D02*
X243170000Y-64711422D01*
%TO.C,R15*%
X240640000Y-65228578D02*
X240640000Y-64711422D01*
X239220000Y-65228578D02*
X239220000Y-64711422D01*
%TO.C,R14*%
X252710000Y-65258578D02*
X252710000Y-64741422D01*
X251290000Y-65258578D02*
X251290000Y-64741422D01*
%TO.C,R13*%
X236690000Y-65228578D02*
X236690000Y-64711422D01*
X235270000Y-65228578D02*
X235270000Y-64711422D01*
%TO.C,R12*%
X232740000Y-65228578D02*
X232740000Y-64711422D01*
X231320000Y-65228578D02*
X231320000Y-64711422D01*
%TO.C,R11*%
X239741422Y-124710000D02*
X240258578Y-124710000D01*
X239741422Y-123290000D02*
X240258578Y-123290000D01*
%TO.C,R10*%
X247710000Y-115258578D02*
X247710000Y-114741422D01*
X246290000Y-115258578D02*
X246290000Y-114741422D01*
%TO.C,R9*%
X245741422Y-120710000D02*
X246258578Y-120710000D01*
X245741422Y-119290000D02*
X246258578Y-119290000D01*
%TO.C,R8*%
X240710000Y-115258578D02*
X240710000Y-114741422D01*
X239290000Y-115258578D02*
X239290000Y-114741422D01*
%TO.C,R7*%
X239741422Y-120710000D02*
X240258578Y-120710000D01*
X239741422Y-119290000D02*
X240258578Y-119290000D01*
%TO.C,R6*%
X212710000Y-115258578D02*
X212710000Y-114741422D01*
X211290000Y-115258578D02*
X211290000Y-114741422D01*
%TO.C,R5*%
X251741422Y-120710000D02*
X252258578Y-120710000D01*
X251741422Y-119290000D02*
X252258578Y-119290000D01*
%TO.C,R4*%
X208710000Y-115258578D02*
X208710000Y-114741422D01*
X207290000Y-115258578D02*
X207290000Y-114741422D01*
%TO.C,R3*%
X204710000Y-115258578D02*
X204710000Y-114741422D01*
X203290000Y-115258578D02*
X203290000Y-114741422D01*
%TO.C,R2*%
X198741422Y-120710000D02*
X199258578Y-120710000D01*
X198741422Y-119290000D02*
X199258578Y-119290000D01*
%TO.C,R1*%
X200710000Y-115258578D02*
X200710000Y-114741422D01*
X199290000Y-115258578D02*
X199290000Y-114741422D01*
%TO.C,Q8*%
X240270000Y-101391000D02*
X238760000Y-101391000D01*
X240270000Y-97690000D02*
X238760000Y-97690000D01*
X238760000Y-94420000D02*
X238760000Y-104660000D01*
X240270000Y-104660000D02*
X235629000Y-104660000D01*
X240270000Y-94420000D02*
X235629000Y-94420000D01*
X235629000Y-94420000D02*
X235629000Y-104660000D01*
X240270000Y-94420000D02*
X240270000Y-104660000D01*
%TO.C,Q7*%
X240270000Y-89591000D02*
X238760000Y-89591000D01*
X240270000Y-85890000D02*
X238760000Y-85890000D01*
X238760000Y-82620000D02*
X238760000Y-92860000D01*
X240270000Y-92860000D02*
X235629000Y-92860000D01*
X240270000Y-82620000D02*
X235629000Y-82620000D01*
X235629000Y-82620000D02*
X235629000Y-92860000D01*
X240270000Y-82620000D02*
X240270000Y-92860000D01*
%TO.C,Q6*%
X240270000Y-77791000D02*
X238760000Y-77791000D01*
X240270000Y-74090000D02*
X238760000Y-74090000D01*
X238760000Y-70820000D02*
X238760000Y-81060000D01*
X240270000Y-81060000D02*
X235629000Y-81060000D01*
X240270000Y-70820000D02*
X235629000Y-70820000D01*
X235629000Y-70820000D02*
X235629000Y-81060000D01*
X240270000Y-70820000D02*
X240270000Y-81060000D01*
%TO.C,Q5*%
X251270000Y-100991000D02*
X249760000Y-100991000D01*
X251270000Y-97290000D02*
X249760000Y-97290000D01*
X249760000Y-94020000D02*
X249760000Y-104260000D01*
X251270000Y-104260000D02*
X246629000Y-104260000D01*
X251270000Y-94020000D02*
X246629000Y-94020000D01*
X246629000Y-94020000D02*
X246629000Y-104260000D01*
X251270000Y-94020000D02*
X251270000Y-104260000D01*
%TO.C,Q4*%
X251270000Y-89191000D02*
X249760000Y-89191000D01*
X251270000Y-85490000D02*
X249760000Y-85490000D01*
X249760000Y-82220000D02*
X249760000Y-92460000D01*
X251270000Y-92460000D02*
X246629000Y-92460000D01*
X251270000Y-82220000D02*
X246629000Y-82220000D01*
X246629000Y-82220000D02*
X246629000Y-92460000D01*
X251270000Y-82220000D02*
X251270000Y-92460000D01*
%TO.C,Q3*%
X251270000Y-77391000D02*
X249760000Y-77391000D01*
X251270000Y-73690000D02*
X249760000Y-73690000D01*
X249760000Y-70420000D02*
X249760000Y-80660000D01*
X251270000Y-80660000D02*
X246629000Y-80660000D01*
X251270000Y-70420000D02*
X246629000Y-70420000D01*
X246629000Y-70420000D02*
X246629000Y-80660000D01*
X251270000Y-70420000D02*
X251270000Y-80660000D01*
%TO.C,Q2*%
X205440000Y-122000000D02*
X205440000Y-125450000D01*
X205440000Y-122000000D02*
X205440000Y-120050000D01*
X210560000Y-122000000D02*
X210560000Y-123950000D01*
X210560000Y-122000000D02*
X210560000Y-120050000D01*
%TO.C,Q1*%
X199760000Y-126580000D02*
X198300000Y-126580000D01*
X199760000Y-123420000D02*
X197600000Y-123420000D01*
X199760000Y-123420000D02*
X199760000Y-124350000D01*
X199760000Y-126580000D02*
X199760000Y-125650000D01*
%TO.C,JP2*%
X225210000Y-120410000D02*
X226540000Y-120410000D01*
X225210000Y-121740000D02*
X225210000Y-120410000D01*
X225210000Y-123010000D02*
X227870000Y-123010000D01*
X227870000Y-123010000D02*
X227870000Y-125610000D01*
X225210000Y-123010000D02*
X225210000Y-125610000D01*
X225210000Y-125610000D02*
X227870000Y-125610000D01*
%TO.C,JP1*%
X229860000Y-120410000D02*
X231190000Y-120410000D01*
X229860000Y-121740000D02*
X229860000Y-120410000D01*
X229860000Y-123010000D02*
X232520000Y-123010000D01*
X232520000Y-123010000D02*
X232520000Y-125610000D01*
X229860000Y-123010000D02*
X229860000Y-125610000D01*
X229860000Y-125610000D02*
X232520000Y-125610000D01*
%TO.C,J1*%
X96500000Y-128680000D02*
X96000000Y-127680000D01*
X95500000Y-128680000D02*
X96500000Y-128680000D01*
X96000000Y-127680000D02*
X95500000Y-128680000D01*
X122180000Y-125980000D02*
X122180000Y-127290000D01*
X122180000Y-125980000D02*
X122180000Y-125980000D01*
X148170000Y-125980000D02*
X122180000Y-125980000D01*
X148170000Y-119480000D02*
X148170000Y-125980000D01*
X92090000Y-119480000D02*
X148170000Y-119480000D01*
X92090000Y-125980000D02*
X92090000Y-119480000D01*
X118080000Y-125980000D02*
X92090000Y-125980000D01*
X118080000Y-127290000D02*
X118080000Y-125980000D01*
X149470000Y-127290000D02*
X90790000Y-127290000D01*
X149470000Y-118170000D02*
X149470000Y-127290000D01*
X90790000Y-118170000D02*
X149470000Y-118170000D01*
X90790000Y-127290000D02*
X90790000Y-118170000D01*
%TO.C,D1*%
X252760000Y-116580000D02*
X251300000Y-116580000D01*
X252760000Y-113420000D02*
X250600000Y-113420000D01*
X252760000Y-113420000D02*
X252760000Y-114350000D01*
X252760000Y-116580000D02*
X252760000Y-115650000D01*
%TO.C,C6*%
X235710000Y-115258578D02*
X235710000Y-114741422D01*
X234290000Y-115258578D02*
X234290000Y-114741422D01*
%TO.C,C5*%
X224710000Y-115258578D02*
X224710000Y-114741422D01*
X223290000Y-115258578D02*
X223290000Y-114741422D01*
%TO.C,C4*%
X216710000Y-115258578D02*
X216710000Y-114741422D01*
X215290000Y-115258578D02*
X215290000Y-114741422D01*
%TO.C,A1*%
X228640000Y-64060000D02*
X210600000Y-64060000D01*
X228640000Y-107500000D02*
X228640000Y-64060000D01*
X210600000Y-107500000D02*
X228640000Y-107500000D01*
X213270000Y-104830000D02*
X210600000Y-104830000D01*
X213270000Y-69270000D02*
X213270000Y-104830000D01*
X213270000Y-69270000D02*
X210600000Y-69270000D01*
X225970000Y-104830000D02*
X228640000Y-104830000D01*
X225970000Y-66730000D02*
X225970000Y-104830000D01*
X225970000Y-66730000D02*
X228640000Y-66730000D01*
X210600000Y-64060000D02*
X210600000Y-66730000D01*
X210600000Y-69270000D02*
X210600000Y-107500000D01*
X213270000Y-66730000D02*
X210600000Y-66730000D01*
X213270000Y-69270000D02*
X213270000Y-66730000D01*
%TO.C,U2*%
D10*
X225552380Y-115581904D02*
X226361904Y-115581904D01*
X226457142Y-115534285D01*
X226504761Y-115486666D01*
X226552380Y-115391428D01*
X226552380Y-115200952D01*
X226504761Y-115105714D01*
X226457142Y-115058095D01*
X226361904Y-115010476D01*
X225552380Y-115010476D01*
X225647619Y-114581904D02*
X225600000Y-114534285D01*
X225552380Y-114439047D01*
X225552380Y-114200952D01*
X225600000Y-114105714D01*
X225647619Y-114058095D01*
X225742857Y-114010476D01*
X225838095Y-114010476D01*
X225980952Y-114058095D01*
X226552380Y-114629523D01*
X226552380Y-114010476D01*
%TO.C,R19*%
X192357142Y-124802380D02*
X192023809Y-124326190D01*
X191785714Y-124802380D02*
X191785714Y-123802380D01*
X192166666Y-123802380D01*
X192261904Y-123850000D01*
X192309523Y-123897619D01*
X192357142Y-123992857D01*
X192357142Y-124135714D01*
X192309523Y-124230952D01*
X192261904Y-124278571D01*
X192166666Y-124326190D01*
X191785714Y-124326190D01*
X193309523Y-124802380D02*
X192738095Y-124802380D01*
X193023809Y-124802380D02*
X193023809Y-123802380D01*
X192928571Y-123945238D01*
X192833333Y-124040476D01*
X192738095Y-124088095D01*
X193785714Y-124802380D02*
X193976190Y-124802380D01*
X194071428Y-124754761D01*
X194119047Y-124707142D01*
X194214285Y-124564285D01*
X194261904Y-124373809D01*
X194261904Y-123992857D01*
X194214285Y-123897619D01*
X194166666Y-123850000D01*
X194071428Y-123802380D01*
X193880952Y-123802380D01*
X193785714Y-123850000D01*
X193738095Y-123897619D01*
X193690476Y-123992857D01*
X193690476Y-124230952D01*
X193738095Y-124326190D01*
X193785714Y-124373809D01*
X193880952Y-124421428D01*
X194071428Y-124421428D01*
X194166666Y-124373809D01*
X194214285Y-124326190D01*
X194261904Y-124230952D01*
%TO.C,C1*%
X69833333Y-83357142D02*
X69785714Y-83404761D01*
X69642857Y-83452380D01*
X69547619Y-83452380D01*
X69404761Y-83404761D01*
X69309523Y-83309523D01*
X69261904Y-83214285D01*
X69214285Y-83023809D01*
X69214285Y-82880952D01*
X69261904Y-82690476D01*
X69309523Y-82595238D01*
X69404761Y-82500000D01*
X69547619Y-82452380D01*
X69642857Y-82452380D01*
X69785714Y-82500000D01*
X69833333Y-82547619D01*
X70785714Y-83452380D02*
X70214285Y-83452380D01*
X70500000Y-83452380D02*
X70500000Y-82452380D01*
X70404761Y-82595238D01*
X70309523Y-82690476D01*
X70214285Y-82738095D01*
X50285714Y-83452380D02*
X49714285Y-83452380D01*
X50000000Y-83452380D02*
X50000000Y-82452380D01*
X49904761Y-82595238D01*
X49809523Y-82690476D01*
X49714285Y-82738095D01*
X89809523Y-83452380D02*
X89238095Y-83452380D01*
X89523809Y-83452380D02*
X89523809Y-82452380D01*
X89428571Y-82595238D01*
X89333333Y-82690476D01*
X89238095Y-82738095D01*
X90761904Y-83452380D02*
X90190476Y-83452380D01*
X90476190Y-83452380D02*
X90476190Y-82452380D01*
X90380952Y-82595238D01*
X90285714Y-82690476D01*
X90190476Y-82738095D01*
X49238095Y-94547619D02*
X49285714Y-94500000D01*
X49380952Y-94452380D01*
X49619047Y-94452380D01*
X49714285Y-94500000D01*
X49761904Y-94547619D01*
X49809523Y-94642857D01*
X49809523Y-94738095D01*
X49761904Y-94880952D01*
X49190476Y-95452380D01*
X49809523Y-95452380D01*
X50190476Y-94547619D02*
X50238095Y-94500000D01*
X50333333Y-94452380D01*
X50571428Y-94452380D01*
X50666666Y-94500000D01*
X50714285Y-94547619D01*
X50761904Y-94642857D01*
X50761904Y-94738095D01*
X50714285Y-94880952D01*
X50142857Y-95452380D01*
X50761904Y-95452380D01*
X89190476Y-94452380D02*
X89809523Y-94452380D01*
X89476190Y-94833333D01*
X89619047Y-94833333D01*
X89714285Y-94880952D01*
X89761904Y-94928571D01*
X89809523Y-95023809D01*
X89809523Y-95261904D01*
X89761904Y-95357142D01*
X89714285Y-95404761D01*
X89619047Y-95452380D01*
X89333333Y-95452380D01*
X89238095Y-95404761D01*
X89190476Y-95357142D01*
X90190476Y-94547619D02*
X90238095Y-94500000D01*
X90333333Y-94452380D01*
X90571428Y-94452380D01*
X90666666Y-94500000D01*
X90714285Y-94547619D01*
X90761904Y-94642857D01*
X90761904Y-94738095D01*
X90714285Y-94880952D01*
X90142857Y-95452380D01*
X90761904Y-95452380D01*
X49809523Y-89452380D02*
X49238095Y-89452380D01*
X49523809Y-89452380D02*
X49523809Y-88452380D01*
X49428571Y-88595238D01*
X49333333Y-88690476D01*
X49238095Y-88738095D01*
X50190476Y-88547619D02*
X50238095Y-88500000D01*
X50333333Y-88452380D01*
X50571428Y-88452380D01*
X50666666Y-88500000D01*
X50714285Y-88547619D01*
X50761904Y-88642857D01*
X50761904Y-88738095D01*
X50714285Y-88880952D01*
X50142857Y-89452380D01*
X50761904Y-89452380D01*
X89238095Y-88547619D02*
X89285714Y-88500000D01*
X89380952Y-88452380D01*
X89619047Y-88452380D01*
X89714285Y-88500000D01*
X89761904Y-88547619D01*
X89809523Y-88642857D01*
X89809523Y-88738095D01*
X89761904Y-88880952D01*
X89190476Y-89452380D01*
X89809523Y-89452380D01*
X90761904Y-89452380D02*
X90190476Y-89452380D01*
X90476190Y-89452380D02*
X90476190Y-88452380D01*
X90380952Y-88595238D01*
X90285714Y-88690476D01*
X90190476Y-88738095D01*
%TO.C,C3*%
X171833333Y-83357142D02*
X171785714Y-83404761D01*
X171642857Y-83452380D01*
X171547619Y-83452380D01*
X171404761Y-83404761D01*
X171309523Y-83309523D01*
X171261904Y-83214285D01*
X171214285Y-83023809D01*
X171214285Y-82880952D01*
X171261904Y-82690476D01*
X171309523Y-82595238D01*
X171404761Y-82500000D01*
X171547619Y-82452380D01*
X171642857Y-82452380D01*
X171785714Y-82500000D01*
X171833333Y-82547619D01*
X172166666Y-82452380D02*
X172785714Y-82452380D01*
X172452380Y-82833333D01*
X172595238Y-82833333D01*
X172690476Y-82880952D01*
X172738095Y-82928571D01*
X172785714Y-83023809D01*
X172785714Y-83261904D01*
X172738095Y-83357142D01*
X172690476Y-83404761D01*
X172595238Y-83452380D01*
X172309523Y-83452380D01*
X172214285Y-83404761D01*
X172166666Y-83357142D01*
X150285714Y-83452380D02*
X149714285Y-83452380D01*
X150000000Y-83452380D02*
X150000000Y-82452380D01*
X149904761Y-82595238D01*
X149809523Y-82690476D01*
X149714285Y-82738095D01*
X189809523Y-83452380D02*
X189238095Y-83452380D01*
X189523809Y-83452380D02*
X189523809Y-82452380D01*
X189428571Y-82595238D01*
X189333333Y-82690476D01*
X189238095Y-82738095D01*
X190761904Y-83452380D02*
X190190476Y-83452380D01*
X190476190Y-83452380D02*
X190476190Y-82452380D01*
X190380952Y-82595238D01*
X190285714Y-82690476D01*
X190190476Y-82738095D01*
X149238095Y-94547619D02*
X149285714Y-94500000D01*
X149380952Y-94452380D01*
X149619047Y-94452380D01*
X149714285Y-94500000D01*
X149761904Y-94547619D01*
X149809523Y-94642857D01*
X149809523Y-94738095D01*
X149761904Y-94880952D01*
X149190476Y-95452380D01*
X149809523Y-95452380D01*
X150190476Y-94547619D02*
X150238095Y-94500000D01*
X150333333Y-94452380D01*
X150571428Y-94452380D01*
X150666666Y-94500000D01*
X150714285Y-94547619D01*
X150761904Y-94642857D01*
X150761904Y-94738095D01*
X150714285Y-94880952D01*
X150142857Y-95452380D01*
X150761904Y-95452380D01*
X189190476Y-94452380D02*
X189809523Y-94452380D01*
X189476190Y-94833333D01*
X189619047Y-94833333D01*
X189714285Y-94880952D01*
X189761904Y-94928571D01*
X189809523Y-95023809D01*
X189809523Y-95261904D01*
X189761904Y-95357142D01*
X189714285Y-95404761D01*
X189619047Y-95452380D01*
X189333333Y-95452380D01*
X189238095Y-95404761D01*
X189190476Y-95357142D01*
X190190476Y-94547619D02*
X190238095Y-94500000D01*
X190333333Y-94452380D01*
X190571428Y-94452380D01*
X190666666Y-94500000D01*
X190714285Y-94547619D01*
X190761904Y-94642857D01*
X190761904Y-94738095D01*
X190714285Y-94880952D01*
X190142857Y-95452380D01*
X190761904Y-95452380D01*
X149809523Y-89452380D02*
X149238095Y-89452380D01*
X149523809Y-89452380D02*
X149523809Y-88452380D01*
X149428571Y-88595238D01*
X149333333Y-88690476D01*
X149238095Y-88738095D01*
X150190476Y-88547619D02*
X150238095Y-88500000D01*
X150333333Y-88452380D01*
X150571428Y-88452380D01*
X150666666Y-88500000D01*
X150714285Y-88547619D01*
X150761904Y-88642857D01*
X150761904Y-88738095D01*
X150714285Y-88880952D01*
X150142857Y-89452380D01*
X150761904Y-89452380D01*
X189238095Y-88547619D02*
X189285714Y-88500000D01*
X189380952Y-88452380D01*
X189619047Y-88452380D01*
X189714285Y-88500000D01*
X189761904Y-88547619D01*
X189809523Y-88642857D01*
X189809523Y-88738095D01*
X189761904Y-88880952D01*
X189190476Y-89452380D01*
X189809523Y-89452380D01*
X190761904Y-89452380D02*
X190190476Y-89452380D01*
X190476190Y-89452380D02*
X190476190Y-88452380D01*
X190380952Y-88595238D01*
X190285714Y-88690476D01*
X190190476Y-88738095D01*
%TO.C,C2*%
X121833333Y-83357142D02*
X121785714Y-83404761D01*
X121642857Y-83452380D01*
X121547619Y-83452380D01*
X121404761Y-83404761D01*
X121309523Y-83309523D01*
X121261904Y-83214285D01*
X121214285Y-83023809D01*
X121214285Y-82880952D01*
X121261904Y-82690476D01*
X121309523Y-82595238D01*
X121404761Y-82500000D01*
X121547619Y-82452380D01*
X121642857Y-82452380D01*
X121785714Y-82500000D01*
X121833333Y-82547619D01*
X122214285Y-82547619D02*
X122261904Y-82500000D01*
X122357142Y-82452380D01*
X122595238Y-82452380D01*
X122690476Y-82500000D01*
X122738095Y-82547619D01*
X122785714Y-82642857D01*
X122785714Y-82738095D01*
X122738095Y-82880952D01*
X122166666Y-83452380D01*
X122785714Y-83452380D01*
X100285714Y-83452380D02*
X99714285Y-83452380D01*
X100000000Y-83452380D02*
X100000000Y-82452380D01*
X99904761Y-82595238D01*
X99809523Y-82690476D01*
X99714285Y-82738095D01*
X139809523Y-83452380D02*
X139238095Y-83452380D01*
X139523809Y-83452380D02*
X139523809Y-82452380D01*
X139428571Y-82595238D01*
X139333333Y-82690476D01*
X139238095Y-82738095D01*
X140761904Y-83452380D02*
X140190476Y-83452380D01*
X140476190Y-83452380D02*
X140476190Y-82452380D01*
X140380952Y-82595238D01*
X140285714Y-82690476D01*
X140190476Y-82738095D01*
X99238095Y-94547619D02*
X99285714Y-94500000D01*
X99380952Y-94452380D01*
X99619047Y-94452380D01*
X99714285Y-94500000D01*
X99761904Y-94547619D01*
X99809523Y-94642857D01*
X99809523Y-94738095D01*
X99761904Y-94880952D01*
X99190476Y-95452380D01*
X99809523Y-95452380D01*
X100190476Y-94547619D02*
X100238095Y-94500000D01*
X100333333Y-94452380D01*
X100571428Y-94452380D01*
X100666666Y-94500000D01*
X100714285Y-94547619D01*
X100761904Y-94642857D01*
X100761904Y-94738095D01*
X100714285Y-94880952D01*
X100142857Y-95452380D01*
X100761904Y-95452380D01*
X139190476Y-94452380D02*
X139809523Y-94452380D01*
X139476190Y-94833333D01*
X139619047Y-94833333D01*
X139714285Y-94880952D01*
X139761904Y-94928571D01*
X139809523Y-95023809D01*
X139809523Y-95261904D01*
X139761904Y-95357142D01*
X139714285Y-95404761D01*
X139619047Y-95452380D01*
X139333333Y-95452380D01*
X139238095Y-95404761D01*
X139190476Y-95357142D01*
X140190476Y-94547619D02*
X140238095Y-94500000D01*
X140333333Y-94452380D01*
X140571428Y-94452380D01*
X140666666Y-94500000D01*
X140714285Y-94547619D01*
X140761904Y-94642857D01*
X140761904Y-94738095D01*
X140714285Y-94880952D01*
X140142857Y-95452380D01*
X140761904Y-95452380D01*
X99809523Y-89452380D02*
X99238095Y-89452380D01*
X99523809Y-89452380D02*
X99523809Y-88452380D01*
X99428571Y-88595238D01*
X99333333Y-88690476D01*
X99238095Y-88738095D01*
X100190476Y-88547619D02*
X100238095Y-88500000D01*
X100333333Y-88452380D01*
X100571428Y-88452380D01*
X100666666Y-88500000D01*
X100714285Y-88547619D01*
X100761904Y-88642857D01*
X100761904Y-88738095D01*
X100714285Y-88880952D01*
X100142857Y-89452380D01*
X100761904Y-89452380D01*
X139238095Y-88547619D02*
X139285714Y-88500000D01*
X139380952Y-88452380D01*
X139619047Y-88452380D01*
X139714285Y-88500000D01*
X139761904Y-88547619D01*
X139809523Y-88642857D01*
X139809523Y-88738095D01*
X139761904Y-88880952D01*
X139190476Y-89452380D01*
X139809523Y-89452380D01*
X140761904Y-89452380D02*
X140190476Y-89452380D01*
X140476190Y-89452380D02*
X140476190Y-88452380D01*
X140380952Y-88595238D01*
X140285714Y-88690476D01*
X140190476Y-88738095D01*
%TO.C,H6*%
X191238095Y-101152380D02*
X191238095Y-100152380D01*
X191238095Y-100628571D02*
X191809523Y-100628571D01*
X191809523Y-101152380D02*
X191809523Y-100152380D01*
X192714285Y-100152380D02*
X192523809Y-100152380D01*
X192428571Y-100200000D01*
X192380952Y-100247619D01*
X192285714Y-100390476D01*
X192238095Y-100580952D01*
X192238095Y-100961904D01*
X192285714Y-101057142D01*
X192333333Y-101104761D01*
X192428571Y-101152380D01*
X192619047Y-101152380D01*
X192714285Y-101104761D01*
X192761904Y-101057142D01*
X192809523Y-100961904D01*
X192809523Y-100723809D01*
X192761904Y-100628571D01*
X192714285Y-100580952D01*
X192619047Y-100533333D01*
X192428571Y-100533333D01*
X192333333Y-100580952D01*
X192285714Y-100628571D01*
X192238095Y-100723809D01*
%TO.C,H5*%
X191238095Y-67152380D02*
X191238095Y-66152380D01*
X191238095Y-66628571D02*
X191809523Y-66628571D01*
X191809523Y-67152380D02*
X191809523Y-66152380D01*
X192761904Y-66152380D02*
X192285714Y-66152380D01*
X192238095Y-66628571D01*
X192285714Y-66580952D01*
X192380952Y-66533333D01*
X192619047Y-66533333D01*
X192714285Y-66580952D01*
X192761904Y-66628571D01*
X192809523Y-66723809D01*
X192809523Y-66961904D01*
X192761904Y-67057142D01*
X192714285Y-67104761D01*
X192619047Y-67152380D01*
X192380952Y-67152380D01*
X192285714Y-67104761D01*
X192238095Y-67057142D01*
%TO.C,H4*%
X47238095Y-67152380D02*
X47238095Y-66152380D01*
X47238095Y-66628571D02*
X47809523Y-66628571D01*
X47809523Y-67152380D02*
X47809523Y-66152380D01*
X48714285Y-66485714D02*
X48714285Y-67152380D01*
X48476190Y-66104761D02*
X48238095Y-66819047D01*
X48857142Y-66819047D01*
%TO.C,H3*%
X119238095Y-67152380D02*
X119238095Y-66152380D01*
X119238095Y-66628571D02*
X119809523Y-66628571D01*
X119809523Y-67152380D02*
X119809523Y-66152380D01*
X120190476Y-66152380D02*
X120809523Y-66152380D01*
X120476190Y-66533333D01*
X120619047Y-66533333D01*
X120714285Y-66580952D01*
X120761904Y-66628571D01*
X120809523Y-66723809D01*
X120809523Y-66961904D01*
X120761904Y-67057142D01*
X120714285Y-67104761D01*
X120619047Y-67152380D01*
X120333333Y-67152380D01*
X120238095Y-67104761D01*
X120190476Y-67057142D01*
%TO.C,H2*%
X47238095Y-101152380D02*
X47238095Y-100152380D01*
X47238095Y-100628571D02*
X47809523Y-100628571D01*
X47809523Y-101152380D02*
X47809523Y-100152380D01*
X48238095Y-100247619D02*
X48285714Y-100200000D01*
X48380952Y-100152380D01*
X48619047Y-100152380D01*
X48714285Y-100200000D01*
X48761904Y-100247619D01*
X48809523Y-100342857D01*
X48809523Y-100438095D01*
X48761904Y-100580952D01*
X48190476Y-101152380D01*
X48809523Y-101152380D01*
%TO.C,H1*%
X119238095Y-101152380D02*
X119238095Y-100152380D01*
X119238095Y-100628571D02*
X119809523Y-100628571D01*
X119809523Y-101152380D02*
X119809523Y-100152380D01*
X120809523Y-101152380D02*
X120238095Y-101152380D01*
X120523809Y-101152380D02*
X120523809Y-100152380D01*
X120428571Y-100295238D01*
X120333333Y-100390476D01*
X120238095Y-100438095D01*
%TO.C,JP3*%
X60166666Y-126782380D02*
X60166666Y-127496666D01*
X60119047Y-127639523D01*
X60023809Y-127734761D01*
X59880952Y-127782380D01*
X59785714Y-127782380D01*
X60642857Y-127782380D02*
X60642857Y-126782380D01*
X61023809Y-126782380D01*
X61119047Y-126830000D01*
X61166666Y-126877619D01*
X61214285Y-126972857D01*
X61214285Y-127115714D01*
X61166666Y-127210952D01*
X61119047Y-127258571D01*
X61023809Y-127306190D01*
X60642857Y-127306190D01*
X61547619Y-126782380D02*
X62166666Y-126782380D01*
X61833333Y-127163333D01*
X61976190Y-127163333D01*
X62071428Y-127210952D01*
X62119047Y-127258571D01*
X62166666Y-127353809D01*
X62166666Y-127591904D01*
X62119047Y-127687142D01*
X62071428Y-127734761D01*
X61976190Y-127782380D01*
X61690476Y-127782380D01*
X61595238Y-127734761D01*
X61547619Y-127687142D01*
%TO.C,J2*%
X46566666Y-118002380D02*
X46566666Y-118716666D01*
X46519047Y-118859523D01*
X46423809Y-118954761D01*
X46280952Y-119002380D01*
X46185714Y-119002380D01*
X46995238Y-118097619D02*
X47042857Y-118050000D01*
X47138095Y-118002380D01*
X47376190Y-118002380D01*
X47471428Y-118050000D01*
X47519047Y-118097619D01*
X47566666Y-118192857D01*
X47566666Y-118288095D01*
X47519047Y-118430952D01*
X46947619Y-119002380D01*
X47566666Y-119002380D01*
%TO.C,U1*%
X213052380Y-122761904D02*
X213861904Y-122761904D01*
X213957142Y-122714285D01*
X214004761Y-122666666D01*
X214052380Y-122571428D01*
X214052380Y-122380952D01*
X214004761Y-122285714D01*
X213957142Y-122238095D01*
X213861904Y-122190476D01*
X213052380Y-122190476D01*
X214052380Y-121190476D02*
X214052380Y-121761904D01*
X214052380Y-121476190D02*
X213052380Y-121476190D01*
X213195238Y-121571428D01*
X213290476Y-121666666D01*
X213338095Y-121761904D01*
%TO.C,R18*%
X245357142Y-122802380D02*
X245023809Y-122326190D01*
X244785714Y-122802380D02*
X244785714Y-121802380D01*
X245166666Y-121802380D01*
X245261904Y-121850000D01*
X245309523Y-121897619D01*
X245357142Y-121992857D01*
X245357142Y-122135714D01*
X245309523Y-122230952D01*
X245261904Y-122278571D01*
X245166666Y-122326190D01*
X244785714Y-122326190D01*
X246309523Y-122802380D02*
X245738095Y-122802380D01*
X246023809Y-122802380D02*
X246023809Y-121802380D01*
X245928571Y-121945238D01*
X245833333Y-122040476D01*
X245738095Y-122088095D01*
X246880952Y-122230952D02*
X246785714Y-122183333D01*
X246738095Y-122135714D01*
X246690476Y-122040476D01*
X246690476Y-121992857D01*
X246738095Y-121897619D01*
X246785714Y-121850000D01*
X246880952Y-121802380D01*
X247071428Y-121802380D01*
X247166666Y-121850000D01*
X247214285Y-121897619D01*
X247261904Y-121992857D01*
X247261904Y-122040476D01*
X247214285Y-122135714D01*
X247166666Y-122183333D01*
X247071428Y-122230952D01*
X246880952Y-122230952D01*
X246785714Y-122278571D01*
X246738095Y-122326190D01*
X246690476Y-122421428D01*
X246690476Y-122611904D01*
X246738095Y-122707142D01*
X246785714Y-122754761D01*
X246880952Y-122802380D01*
X247071428Y-122802380D01*
X247166666Y-122754761D01*
X247214285Y-122707142D01*
X247261904Y-122611904D01*
X247261904Y-122421428D01*
X247214285Y-122326190D01*
X247166666Y-122278571D01*
X247071428Y-122230952D01*
%TO.C,R17*%
X246802380Y-65642857D02*
X246326190Y-65976190D01*
X246802380Y-66214285D02*
X245802380Y-66214285D01*
X245802380Y-65833333D01*
X245850000Y-65738095D01*
X245897619Y-65690476D01*
X245992857Y-65642857D01*
X246135714Y-65642857D01*
X246230952Y-65690476D01*
X246278571Y-65738095D01*
X246326190Y-65833333D01*
X246326190Y-66214285D01*
X246802380Y-64690476D02*
X246802380Y-65261904D01*
X246802380Y-64976190D02*
X245802380Y-64976190D01*
X245945238Y-65071428D01*
X246040476Y-65166666D01*
X246088095Y-65261904D01*
X245802380Y-64357142D02*
X245802380Y-63690476D01*
X246802380Y-64119047D01*
%TO.C,R16*%
X242682380Y-65612857D02*
X242206190Y-65946190D01*
X242682380Y-66184285D02*
X241682380Y-66184285D01*
X241682380Y-65803333D01*
X241730000Y-65708095D01*
X241777619Y-65660476D01*
X241872857Y-65612857D01*
X242015714Y-65612857D01*
X242110952Y-65660476D01*
X242158571Y-65708095D01*
X242206190Y-65803333D01*
X242206190Y-66184285D01*
X242682380Y-64660476D02*
X242682380Y-65231904D01*
X242682380Y-64946190D02*
X241682380Y-64946190D01*
X241825238Y-65041428D01*
X241920476Y-65136666D01*
X241968095Y-65231904D01*
X241682380Y-63803333D02*
X241682380Y-63993809D01*
X241730000Y-64089047D01*
X241777619Y-64136666D01*
X241920476Y-64231904D01*
X242110952Y-64279523D01*
X242491904Y-64279523D01*
X242587142Y-64231904D01*
X242634761Y-64184285D01*
X242682380Y-64089047D01*
X242682380Y-63898571D01*
X242634761Y-63803333D01*
X242587142Y-63755714D01*
X242491904Y-63708095D01*
X242253809Y-63708095D01*
X242158571Y-63755714D01*
X242110952Y-63803333D01*
X242063333Y-63898571D01*
X242063333Y-64089047D01*
X242110952Y-64184285D01*
X242158571Y-64231904D01*
X242253809Y-64279523D01*
%TO.C,R15*%
X238732380Y-65612857D02*
X238256190Y-65946190D01*
X238732380Y-66184285D02*
X237732380Y-66184285D01*
X237732380Y-65803333D01*
X237780000Y-65708095D01*
X237827619Y-65660476D01*
X237922857Y-65612857D01*
X238065714Y-65612857D01*
X238160952Y-65660476D01*
X238208571Y-65708095D01*
X238256190Y-65803333D01*
X238256190Y-66184285D01*
X238732380Y-64660476D02*
X238732380Y-65231904D01*
X238732380Y-64946190D02*
X237732380Y-64946190D01*
X237875238Y-65041428D01*
X237970476Y-65136666D01*
X238018095Y-65231904D01*
X237732380Y-63755714D02*
X237732380Y-64231904D01*
X238208571Y-64279523D01*
X238160952Y-64231904D01*
X238113333Y-64136666D01*
X238113333Y-63898571D01*
X238160952Y-63803333D01*
X238208571Y-63755714D01*
X238303809Y-63708095D01*
X238541904Y-63708095D01*
X238637142Y-63755714D01*
X238684761Y-63803333D01*
X238732380Y-63898571D01*
X238732380Y-64136666D01*
X238684761Y-64231904D01*
X238637142Y-64279523D01*
%TO.C,R14*%
X250802380Y-65642857D02*
X250326190Y-65976190D01*
X250802380Y-66214285D02*
X249802380Y-66214285D01*
X249802380Y-65833333D01*
X249850000Y-65738095D01*
X249897619Y-65690476D01*
X249992857Y-65642857D01*
X250135714Y-65642857D01*
X250230952Y-65690476D01*
X250278571Y-65738095D01*
X250326190Y-65833333D01*
X250326190Y-66214285D01*
X250802380Y-64690476D02*
X250802380Y-65261904D01*
X250802380Y-64976190D02*
X249802380Y-64976190D01*
X249945238Y-65071428D01*
X250040476Y-65166666D01*
X250088095Y-65261904D01*
X250135714Y-63833333D02*
X250802380Y-63833333D01*
X249754761Y-64071428D02*
X250469047Y-64309523D01*
X250469047Y-63690476D01*
%TO.C,R13*%
X234782380Y-65612857D02*
X234306190Y-65946190D01*
X234782380Y-66184285D02*
X233782380Y-66184285D01*
X233782380Y-65803333D01*
X233830000Y-65708095D01*
X233877619Y-65660476D01*
X233972857Y-65612857D01*
X234115714Y-65612857D01*
X234210952Y-65660476D01*
X234258571Y-65708095D01*
X234306190Y-65803333D01*
X234306190Y-66184285D01*
X234782380Y-64660476D02*
X234782380Y-65231904D01*
X234782380Y-64946190D02*
X233782380Y-64946190D01*
X233925238Y-65041428D01*
X234020476Y-65136666D01*
X234068095Y-65231904D01*
X233782380Y-64327142D02*
X233782380Y-63708095D01*
X234163333Y-64041428D01*
X234163333Y-63898571D01*
X234210952Y-63803333D01*
X234258571Y-63755714D01*
X234353809Y-63708095D01*
X234591904Y-63708095D01*
X234687142Y-63755714D01*
X234734761Y-63803333D01*
X234782380Y-63898571D01*
X234782380Y-64184285D01*
X234734761Y-64279523D01*
X234687142Y-64327142D01*
%TO.C,R12*%
X230832380Y-65612857D02*
X230356190Y-65946190D01*
X230832380Y-66184285D02*
X229832380Y-66184285D01*
X229832380Y-65803333D01*
X229880000Y-65708095D01*
X229927619Y-65660476D01*
X230022857Y-65612857D01*
X230165714Y-65612857D01*
X230260952Y-65660476D01*
X230308571Y-65708095D01*
X230356190Y-65803333D01*
X230356190Y-66184285D01*
X230832380Y-64660476D02*
X230832380Y-65231904D01*
X230832380Y-64946190D02*
X229832380Y-64946190D01*
X229975238Y-65041428D01*
X230070476Y-65136666D01*
X230118095Y-65231904D01*
X229927619Y-64279523D02*
X229880000Y-64231904D01*
X229832380Y-64136666D01*
X229832380Y-63898571D01*
X229880000Y-63803333D01*
X229927619Y-63755714D01*
X230022857Y-63708095D01*
X230118095Y-63708095D01*
X230260952Y-63755714D01*
X230832380Y-64327142D01*
X230832380Y-63708095D01*
%TO.C,R11*%
X239357142Y-122802380D02*
X239023809Y-122326190D01*
X238785714Y-122802380D02*
X238785714Y-121802380D01*
X239166666Y-121802380D01*
X239261904Y-121850000D01*
X239309523Y-121897619D01*
X239357142Y-121992857D01*
X239357142Y-122135714D01*
X239309523Y-122230952D01*
X239261904Y-122278571D01*
X239166666Y-122326190D01*
X238785714Y-122326190D01*
X240309523Y-122802380D02*
X239738095Y-122802380D01*
X240023809Y-122802380D02*
X240023809Y-121802380D01*
X239928571Y-121945238D01*
X239833333Y-122040476D01*
X239738095Y-122088095D01*
X241261904Y-122802380D02*
X240690476Y-122802380D01*
X240976190Y-122802380D02*
X240976190Y-121802380D01*
X240880952Y-121945238D01*
X240785714Y-122040476D01*
X240690476Y-122088095D01*
%TO.C,R10*%
X245802380Y-115642857D02*
X245326190Y-115976190D01*
X245802380Y-116214285D02*
X244802380Y-116214285D01*
X244802380Y-115833333D01*
X244850000Y-115738095D01*
X244897619Y-115690476D01*
X244992857Y-115642857D01*
X245135714Y-115642857D01*
X245230952Y-115690476D01*
X245278571Y-115738095D01*
X245326190Y-115833333D01*
X245326190Y-116214285D01*
X245802380Y-114690476D02*
X245802380Y-115261904D01*
X245802380Y-114976190D02*
X244802380Y-114976190D01*
X244945238Y-115071428D01*
X245040476Y-115166666D01*
X245088095Y-115261904D01*
X244802380Y-114071428D02*
X244802380Y-113976190D01*
X244850000Y-113880952D01*
X244897619Y-113833333D01*
X244992857Y-113785714D01*
X245183333Y-113738095D01*
X245421428Y-113738095D01*
X245611904Y-113785714D01*
X245707142Y-113833333D01*
X245754761Y-113880952D01*
X245802380Y-113976190D01*
X245802380Y-114071428D01*
X245754761Y-114166666D01*
X245707142Y-114214285D01*
X245611904Y-114261904D01*
X245421428Y-114309523D01*
X245183333Y-114309523D01*
X244992857Y-114261904D01*
X244897619Y-114214285D01*
X244850000Y-114166666D01*
X244802380Y-114071428D01*
%TO.C,R9*%
X245833333Y-118802380D02*
X245500000Y-118326190D01*
X245261904Y-118802380D02*
X245261904Y-117802380D01*
X245642857Y-117802380D01*
X245738095Y-117850000D01*
X245785714Y-117897619D01*
X245833333Y-117992857D01*
X245833333Y-118135714D01*
X245785714Y-118230952D01*
X245738095Y-118278571D01*
X245642857Y-118326190D01*
X245261904Y-118326190D01*
X246309523Y-118802380D02*
X246500000Y-118802380D01*
X246595238Y-118754761D01*
X246642857Y-118707142D01*
X246738095Y-118564285D01*
X246785714Y-118373809D01*
X246785714Y-117992857D01*
X246738095Y-117897619D01*
X246690476Y-117850000D01*
X246595238Y-117802380D01*
X246404761Y-117802380D01*
X246309523Y-117850000D01*
X246261904Y-117897619D01*
X246214285Y-117992857D01*
X246214285Y-118230952D01*
X246261904Y-118326190D01*
X246309523Y-118373809D01*
X246404761Y-118421428D01*
X246595238Y-118421428D01*
X246690476Y-118373809D01*
X246738095Y-118326190D01*
X246785714Y-118230952D01*
%TO.C,R8*%
X238802380Y-115166666D02*
X238326190Y-115500000D01*
X238802380Y-115738095D02*
X237802380Y-115738095D01*
X237802380Y-115357142D01*
X237850000Y-115261904D01*
X237897619Y-115214285D01*
X237992857Y-115166666D01*
X238135714Y-115166666D01*
X238230952Y-115214285D01*
X238278571Y-115261904D01*
X238326190Y-115357142D01*
X238326190Y-115738095D01*
X238230952Y-114595238D02*
X238183333Y-114690476D01*
X238135714Y-114738095D01*
X238040476Y-114785714D01*
X237992857Y-114785714D01*
X237897619Y-114738095D01*
X237850000Y-114690476D01*
X237802380Y-114595238D01*
X237802380Y-114404761D01*
X237850000Y-114309523D01*
X237897619Y-114261904D01*
X237992857Y-114214285D01*
X238040476Y-114214285D01*
X238135714Y-114261904D01*
X238183333Y-114309523D01*
X238230952Y-114404761D01*
X238230952Y-114595238D01*
X238278571Y-114690476D01*
X238326190Y-114738095D01*
X238421428Y-114785714D01*
X238611904Y-114785714D01*
X238707142Y-114738095D01*
X238754761Y-114690476D01*
X238802380Y-114595238D01*
X238802380Y-114404761D01*
X238754761Y-114309523D01*
X238707142Y-114261904D01*
X238611904Y-114214285D01*
X238421428Y-114214285D01*
X238326190Y-114261904D01*
X238278571Y-114309523D01*
X238230952Y-114404761D01*
%TO.C,R7*%
X239833333Y-118802380D02*
X239500000Y-118326190D01*
X239261904Y-118802380D02*
X239261904Y-117802380D01*
X239642857Y-117802380D01*
X239738095Y-117850000D01*
X239785714Y-117897619D01*
X239833333Y-117992857D01*
X239833333Y-118135714D01*
X239785714Y-118230952D01*
X239738095Y-118278571D01*
X239642857Y-118326190D01*
X239261904Y-118326190D01*
X240166666Y-117802380D02*
X240833333Y-117802380D01*
X240404761Y-118802380D01*
%TO.C,R6*%
X210802380Y-115166666D02*
X210326190Y-115500000D01*
X210802380Y-115738095D02*
X209802380Y-115738095D01*
X209802380Y-115357142D01*
X209850000Y-115261904D01*
X209897619Y-115214285D01*
X209992857Y-115166666D01*
X210135714Y-115166666D01*
X210230952Y-115214285D01*
X210278571Y-115261904D01*
X210326190Y-115357142D01*
X210326190Y-115738095D01*
X209802380Y-114309523D02*
X209802380Y-114500000D01*
X209850000Y-114595238D01*
X209897619Y-114642857D01*
X210040476Y-114738095D01*
X210230952Y-114785714D01*
X210611904Y-114785714D01*
X210707142Y-114738095D01*
X210754761Y-114690476D01*
X210802380Y-114595238D01*
X210802380Y-114404761D01*
X210754761Y-114309523D01*
X210707142Y-114261904D01*
X210611904Y-114214285D01*
X210373809Y-114214285D01*
X210278571Y-114261904D01*
X210230952Y-114309523D01*
X210183333Y-114404761D01*
X210183333Y-114595238D01*
X210230952Y-114690476D01*
X210278571Y-114738095D01*
X210373809Y-114785714D01*
%TO.C,R5*%
X251833333Y-118802380D02*
X251500000Y-118326190D01*
X251261904Y-118802380D02*
X251261904Y-117802380D01*
X251642857Y-117802380D01*
X251738095Y-117850000D01*
X251785714Y-117897619D01*
X251833333Y-117992857D01*
X251833333Y-118135714D01*
X251785714Y-118230952D01*
X251738095Y-118278571D01*
X251642857Y-118326190D01*
X251261904Y-118326190D01*
X252738095Y-117802380D02*
X252261904Y-117802380D01*
X252214285Y-118278571D01*
X252261904Y-118230952D01*
X252357142Y-118183333D01*
X252595238Y-118183333D01*
X252690476Y-118230952D01*
X252738095Y-118278571D01*
X252785714Y-118373809D01*
X252785714Y-118611904D01*
X252738095Y-118707142D01*
X252690476Y-118754761D01*
X252595238Y-118802380D01*
X252357142Y-118802380D01*
X252261904Y-118754761D01*
X252214285Y-118707142D01*
%TO.C,R4*%
X206802380Y-115166666D02*
X206326190Y-115500000D01*
X206802380Y-115738095D02*
X205802380Y-115738095D01*
X205802380Y-115357142D01*
X205850000Y-115261904D01*
X205897619Y-115214285D01*
X205992857Y-115166666D01*
X206135714Y-115166666D01*
X206230952Y-115214285D01*
X206278571Y-115261904D01*
X206326190Y-115357142D01*
X206326190Y-115738095D01*
X206135714Y-114309523D02*
X206802380Y-114309523D01*
X205754761Y-114547619D02*
X206469047Y-114785714D01*
X206469047Y-114166666D01*
%TO.C,R3*%
X202802380Y-115166666D02*
X202326190Y-115500000D01*
X202802380Y-115738095D02*
X201802380Y-115738095D01*
X201802380Y-115357142D01*
X201850000Y-115261904D01*
X201897619Y-115214285D01*
X201992857Y-115166666D01*
X202135714Y-115166666D01*
X202230952Y-115214285D01*
X202278571Y-115261904D01*
X202326190Y-115357142D01*
X202326190Y-115738095D01*
X201802380Y-114833333D02*
X201802380Y-114214285D01*
X202183333Y-114547619D01*
X202183333Y-114404761D01*
X202230952Y-114309523D01*
X202278571Y-114261904D01*
X202373809Y-114214285D01*
X202611904Y-114214285D01*
X202707142Y-114261904D01*
X202754761Y-114309523D01*
X202802380Y-114404761D01*
X202802380Y-114690476D01*
X202754761Y-114785714D01*
X202707142Y-114833333D01*
%TO.C,R2*%
X198833333Y-118802380D02*
X198500000Y-118326190D01*
X198261904Y-118802380D02*
X198261904Y-117802380D01*
X198642857Y-117802380D01*
X198738095Y-117850000D01*
X198785714Y-117897619D01*
X198833333Y-117992857D01*
X198833333Y-118135714D01*
X198785714Y-118230952D01*
X198738095Y-118278571D01*
X198642857Y-118326190D01*
X198261904Y-118326190D01*
X199214285Y-117897619D02*
X199261904Y-117850000D01*
X199357142Y-117802380D01*
X199595238Y-117802380D01*
X199690476Y-117850000D01*
X199738095Y-117897619D01*
X199785714Y-117992857D01*
X199785714Y-118088095D01*
X199738095Y-118230952D01*
X199166666Y-118802380D01*
X199785714Y-118802380D01*
%TO.C,R1*%
X198802380Y-115166666D02*
X198326190Y-115500000D01*
X198802380Y-115738095D02*
X197802380Y-115738095D01*
X197802380Y-115357142D01*
X197850000Y-115261904D01*
X197897619Y-115214285D01*
X197992857Y-115166666D01*
X198135714Y-115166666D01*
X198230952Y-115214285D01*
X198278571Y-115261904D01*
X198326190Y-115357142D01*
X198326190Y-115738095D01*
X198802380Y-114214285D02*
X198802380Y-114785714D01*
X198802380Y-114500000D02*
X197802380Y-114500000D01*
X197945238Y-114595238D01*
X198040476Y-114690476D01*
X198088095Y-114785714D01*
%TO.C,Q8*%
X241817619Y-99635238D02*
X241770000Y-99730476D01*
X241674761Y-99825714D01*
X241531904Y-99968571D01*
X241484285Y-100063809D01*
X241484285Y-100159047D01*
X241722380Y-100111428D02*
X241674761Y-100206666D01*
X241579523Y-100301904D01*
X241389047Y-100349523D01*
X241055714Y-100349523D01*
X240865238Y-100301904D01*
X240770000Y-100206666D01*
X240722380Y-100111428D01*
X240722380Y-99920952D01*
X240770000Y-99825714D01*
X240865238Y-99730476D01*
X241055714Y-99682857D01*
X241389047Y-99682857D01*
X241579523Y-99730476D01*
X241674761Y-99825714D01*
X241722380Y-99920952D01*
X241722380Y-100111428D01*
X241150952Y-99111428D02*
X241103333Y-99206666D01*
X241055714Y-99254285D01*
X240960476Y-99301904D01*
X240912857Y-99301904D01*
X240817619Y-99254285D01*
X240770000Y-99206666D01*
X240722380Y-99111428D01*
X240722380Y-98920952D01*
X240770000Y-98825714D01*
X240817619Y-98778095D01*
X240912857Y-98730476D01*
X240960476Y-98730476D01*
X241055714Y-98778095D01*
X241103333Y-98825714D01*
X241150952Y-98920952D01*
X241150952Y-99111428D01*
X241198571Y-99206666D01*
X241246190Y-99254285D01*
X241341428Y-99301904D01*
X241531904Y-99301904D01*
X241627142Y-99254285D01*
X241674761Y-99206666D01*
X241722380Y-99111428D01*
X241722380Y-98920952D01*
X241674761Y-98825714D01*
X241627142Y-98778095D01*
X241531904Y-98730476D01*
X241341428Y-98730476D01*
X241246190Y-98778095D01*
X241198571Y-98825714D01*
X241150952Y-98920952D01*
%TO.C,Q7*%
X241817619Y-87835238D02*
X241770000Y-87930476D01*
X241674761Y-88025714D01*
X241531904Y-88168571D01*
X241484285Y-88263809D01*
X241484285Y-88359047D01*
X241722380Y-88311428D02*
X241674761Y-88406666D01*
X241579523Y-88501904D01*
X241389047Y-88549523D01*
X241055714Y-88549523D01*
X240865238Y-88501904D01*
X240770000Y-88406666D01*
X240722380Y-88311428D01*
X240722380Y-88120952D01*
X240770000Y-88025714D01*
X240865238Y-87930476D01*
X241055714Y-87882857D01*
X241389047Y-87882857D01*
X241579523Y-87930476D01*
X241674761Y-88025714D01*
X241722380Y-88120952D01*
X241722380Y-88311428D01*
X240722380Y-87549523D02*
X240722380Y-86882857D01*
X241722380Y-87311428D01*
%TO.C,Q6*%
X241817619Y-76035238D02*
X241770000Y-76130476D01*
X241674761Y-76225714D01*
X241531904Y-76368571D01*
X241484285Y-76463809D01*
X241484285Y-76559047D01*
X241722380Y-76511428D02*
X241674761Y-76606666D01*
X241579523Y-76701904D01*
X241389047Y-76749523D01*
X241055714Y-76749523D01*
X240865238Y-76701904D01*
X240770000Y-76606666D01*
X240722380Y-76511428D01*
X240722380Y-76320952D01*
X240770000Y-76225714D01*
X240865238Y-76130476D01*
X241055714Y-76082857D01*
X241389047Y-76082857D01*
X241579523Y-76130476D01*
X241674761Y-76225714D01*
X241722380Y-76320952D01*
X241722380Y-76511428D01*
X240722380Y-75225714D02*
X240722380Y-75416190D01*
X240770000Y-75511428D01*
X240817619Y-75559047D01*
X240960476Y-75654285D01*
X241150952Y-75701904D01*
X241531904Y-75701904D01*
X241627142Y-75654285D01*
X241674761Y-75606666D01*
X241722380Y-75511428D01*
X241722380Y-75320952D01*
X241674761Y-75225714D01*
X241627142Y-75178095D01*
X241531904Y-75130476D01*
X241293809Y-75130476D01*
X241198571Y-75178095D01*
X241150952Y-75225714D01*
X241103333Y-75320952D01*
X241103333Y-75511428D01*
X241150952Y-75606666D01*
X241198571Y-75654285D01*
X241293809Y-75701904D01*
%TO.C,Q5*%
X252817619Y-99235238D02*
X252770000Y-99330476D01*
X252674761Y-99425714D01*
X252531904Y-99568571D01*
X252484285Y-99663809D01*
X252484285Y-99759047D01*
X252722380Y-99711428D02*
X252674761Y-99806666D01*
X252579523Y-99901904D01*
X252389047Y-99949523D01*
X252055714Y-99949523D01*
X251865238Y-99901904D01*
X251770000Y-99806666D01*
X251722380Y-99711428D01*
X251722380Y-99520952D01*
X251770000Y-99425714D01*
X251865238Y-99330476D01*
X252055714Y-99282857D01*
X252389047Y-99282857D01*
X252579523Y-99330476D01*
X252674761Y-99425714D01*
X252722380Y-99520952D01*
X252722380Y-99711428D01*
X251722380Y-98378095D02*
X251722380Y-98854285D01*
X252198571Y-98901904D01*
X252150952Y-98854285D01*
X252103333Y-98759047D01*
X252103333Y-98520952D01*
X252150952Y-98425714D01*
X252198571Y-98378095D01*
X252293809Y-98330476D01*
X252531904Y-98330476D01*
X252627142Y-98378095D01*
X252674761Y-98425714D01*
X252722380Y-98520952D01*
X252722380Y-98759047D01*
X252674761Y-98854285D01*
X252627142Y-98901904D01*
%TO.C,Q4*%
X252817619Y-87435238D02*
X252770000Y-87530476D01*
X252674761Y-87625714D01*
X252531904Y-87768571D01*
X252484285Y-87863809D01*
X252484285Y-87959047D01*
X252722380Y-87911428D02*
X252674761Y-88006666D01*
X252579523Y-88101904D01*
X252389047Y-88149523D01*
X252055714Y-88149523D01*
X251865238Y-88101904D01*
X251770000Y-88006666D01*
X251722380Y-87911428D01*
X251722380Y-87720952D01*
X251770000Y-87625714D01*
X251865238Y-87530476D01*
X252055714Y-87482857D01*
X252389047Y-87482857D01*
X252579523Y-87530476D01*
X252674761Y-87625714D01*
X252722380Y-87720952D01*
X252722380Y-87911428D01*
X252055714Y-86625714D02*
X252722380Y-86625714D01*
X251674761Y-86863809D02*
X252389047Y-87101904D01*
X252389047Y-86482857D01*
%TO.C,Q3*%
X252817619Y-75635238D02*
X252770000Y-75730476D01*
X252674761Y-75825714D01*
X252531904Y-75968571D01*
X252484285Y-76063809D01*
X252484285Y-76159047D01*
X252722380Y-76111428D02*
X252674761Y-76206666D01*
X252579523Y-76301904D01*
X252389047Y-76349523D01*
X252055714Y-76349523D01*
X251865238Y-76301904D01*
X251770000Y-76206666D01*
X251722380Y-76111428D01*
X251722380Y-75920952D01*
X251770000Y-75825714D01*
X251865238Y-75730476D01*
X252055714Y-75682857D01*
X252389047Y-75682857D01*
X252579523Y-75730476D01*
X252674761Y-75825714D01*
X252722380Y-75920952D01*
X252722380Y-76111428D01*
X251722380Y-75349523D02*
X251722380Y-74730476D01*
X252103333Y-75063809D01*
X252103333Y-74920952D01*
X252150952Y-74825714D01*
X252198571Y-74778095D01*
X252293809Y-74730476D01*
X252531904Y-74730476D01*
X252627142Y-74778095D01*
X252674761Y-74825714D01*
X252722380Y-74920952D01*
X252722380Y-75206666D01*
X252674761Y-75301904D01*
X252627142Y-75349523D01*
%TO.C,Q2*%
X205147619Y-122095238D02*
X205100000Y-122190476D01*
X205004761Y-122285714D01*
X204861904Y-122428571D01*
X204814285Y-122523809D01*
X204814285Y-122619047D01*
X205052380Y-122571428D02*
X205004761Y-122666666D01*
X204909523Y-122761904D01*
X204719047Y-122809523D01*
X204385714Y-122809523D01*
X204195238Y-122761904D01*
X204100000Y-122666666D01*
X204052380Y-122571428D01*
X204052380Y-122380952D01*
X204100000Y-122285714D01*
X204195238Y-122190476D01*
X204385714Y-122142857D01*
X204719047Y-122142857D01*
X204909523Y-122190476D01*
X205004761Y-122285714D01*
X205052380Y-122380952D01*
X205052380Y-122571428D01*
X204147619Y-121761904D02*
X204100000Y-121714285D01*
X204052380Y-121619047D01*
X204052380Y-121380952D01*
X204100000Y-121285714D01*
X204147619Y-121238095D01*
X204242857Y-121190476D01*
X204338095Y-121190476D01*
X204480952Y-121238095D01*
X205052380Y-121809523D01*
X205052380Y-121190476D01*
%TO.C,Q1*%
X198904761Y-123047619D02*
X198809523Y-123000000D01*
X198714285Y-122904761D01*
X198571428Y-122761904D01*
X198476190Y-122714285D01*
X198380952Y-122714285D01*
X198428571Y-122952380D02*
X198333333Y-122904761D01*
X198238095Y-122809523D01*
X198190476Y-122619047D01*
X198190476Y-122285714D01*
X198238095Y-122095238D01*
X198333333Y-122000000D01*
X198428571Y-121952380D01*
X198619047Y-121952380D01*
X198714285Y-122000000D01*
X198809523Y-122095238D01*
X198857142Y-122285714D01*
X198857142Y-122619047D01*
X198809523Y-122809523D01*
X198714285Y-122904761D01*
X198619047Y-122952380D01*
X198428571Y-122952380D01*
X199809523Y-122952380D02*
X199238095Y-122952380D01*
X199523809Y-122952380D02*
X199523809Y-121952380D01*
X199428571Y-122095238D01*
X199333333Y-122190476D01*
X199238095Y-122238095D01*
%TO.C,JP2*%
X225706666Y-118862380D02*
X225706666Y-119576666D01*
X225659047Y-119719523D01*
X225563809Y-119814761D01*
X225420952Y-119862380D01*
X225325714Y-119862380D01*
X226182857Y-119862380D02*
X226182857Y-118862380D01*
X226563809Y-118862380D01*
X226659047Y-118910000D01*
X226706666Y-118957619D01*
X226754285Y-119052857D01*
X226754285Y-119195714D01*
X226706666Y-119290952D01*
X226659047Y-119338571D01*
X226563809Y-119386190D01*
X226182857Y-119386190D01*
X227135238Y-118957619D02*
X227182857Y-118910000D01*
X227278095Y-118862380D01*
X227516190Y-118862380D01*
X227611428Y-118910000D01*
X227659047Y-118957619D01*
X227706666Y-119052857D01*
X227706666Y-119148095D01*
X227659047Y-119290952D01*
X227087619Y-119862380D01*
X227706666Y-119862380D01*
%TO.C,JP1*%
X230356666Y-118862380D02*
X230356666Y-119576666D01*
X230309047Y-119719523D01*
X230213809Y-119814761D01*
X230070952Y-119862380D01*
X229975714Y-119862380D01*
X230832857Y-119862380D02*
X230832857Y-118862380D01*
X231213809Y-118862380D01*
X231309047Y-118910000D01*
X231356666Y-118957619D01*
X231404285Y-119052857D01*
X231404285Y-119195714D01*
X231356666Y-119290952D01*
X231309047Y-119338571D01*
X231213809Y-119386190D01*
X230832857Y-119386190D01*
X232356666Y-119862380D02*
X231785238Y-119862380D01*
X232070952Y-119862380D02*
X232070952Y-118862380D01*
X231975714Y-119005238D01*
X231880476Y-119100476D01*
X231785238Y-119148095D01*
%TO.C,J1*%
X89352380Y-123063333D02*
X90066666Y-123063333D01*
X90209523Y-123110952D01*
X90304761Y-123206190D01*
X90352380Y-123349047D01*
X90352380Y-123444285D01*
X90352380Y-122063333D02*
X90352380Y-122634761D01*
X90352380Y-122349047D02*
X89352380Y-122349047D01*
X89495238Y-122444285D01*
X89590476Y-122539523D01*
X89638095Y-122634761D01*
%TO.C,D1*%
X251261904Y-112952380D02*
X251261904Y-111952380D01*
X251500000Y-111952380D01*
X251642857Y-112000000D01*
X251738095Y-112095238D01*
X251785714Y-112190476D01*
X251833333Y-112380952D01*
X251833333Y-112523809D01*
X251785714Y-112714285D01*
X251738095Y-112809523D01*
X251642857Y-112904761D01*
X251500000Y-112952380D01*
X251261904Y-112952380D01*
X252785714Y-112952380D02*
X252214285Y-112952380D01*
X252500000Y-112952380D02*
X252500000Y-111952380D01*
X252404761Y-112095238D01*
X252309523Y-112190476D01*
X252214285Y-112238095D01*
%TO.C,C6*%
X233707142Y-115166666D02*
X233754761Y-115214285D01*
X233802380Y-115357142D01*
X233802380Y-115452380D01*
X233754761Y-115595238D01*
X233659523Y-115690476D01*
X233564285Y-115738095D01*
X233373809Y-115785714D01*
X233230952Y-115785714D01*
X233040476Y-115738095D01*
X232945238Y-115690476D01*
X232850000Y-115595238D01*
X232802380Y-115452380D01*
X232802380Y-115357142D01*
X232850000Y-115214285D01*
X232897619Y-115166666D01*
X232802380Y-114309523D02*
X232802380Y-114500000D01*
X232850000Y-114595238D01*
X232897619Y-114642857D01*
X233040476Y-114738095D01*
X233230952Y-114785714D01*
X233611904Y-114785714D01*
X233707142Y-114738095D01*
X233754761Y-114690476D01*
X233802380Y-114595238D01*
X233802380Y-114404761D01*
X233754761Y-114309523D01*
X233707142Y-114261904D01*
X233611904Y-114214285D01*
X233373809Y-114214285D01*
X233278571Y-114261904D01*
X233230952Y-114309523D01*
X233183333Y-114404761D01*
X233183333Y-114595238D01*
X233230952Y-114690476D01*
X233278571Y-114738095D01*
X233373809Y-114785714D01*
%TO.C,C5*%
X222707142Y-115166666D02*
X222754761Y-115214285D01*
X222802380Y-115357142D01*
X222802380Y-115452380D01*
X222754761Y-115595238D01*
X222659523Y-115690476D01*
X222564285Y-115738095D01*
X222373809Y-115785714D01*
X222230952Y-115785714D01*
X222040476Y-115738095D01*
X221945238Y-115690476D01*
X221850000Y-115595238D01*
X221802380Y-115452380D01*
X221802380Y-115357142D01*
X221850000Y-115214285D01*
X221897619Y-115166666D01*
X221802380Y-114261904D02*
X221802380Y-114738095D01*
X222278571Y-114785714D01*
X222230952Y-114738095D01*
X222183333Y-114642857D01*
X222183333Y-114404761D01*
X222230952Y-114309523D01*
X222278571Y-114261904D01*
X222373809Y-114214285D01*
X222611904Y-114214285D01*
X222707142Y-114261904D01*
X222754761Y-114309523D01*
X222802380Y-114404761D01*
X222802380Y-114642857D01*
X222754761Y-114738095D01*
X222707142Y-114785714D01*
%TO.C,C4*%
X214707142Y-115166666D02*
X214754761Y-115214285D01*
X214802380Y-115357142D01*
X214802380Y-115452380D01*
X214754761Y-115595238D01*
X214659523Y-115690476D01*
X214564285Y-115738095D01*
X214373809Y-115785714D01*
X214230952Y-115785714D01*
X214040476Y-115738095D01*
X213945238Y-115690476D01*
X213850000Y-115595238D01*
X213802380Y-115452380D01*
X213802380Y-115357142D01*
X213850000Y-115214285D01*
X213897619Y-115166666D01*
X214135714Y-114309523D02*
X214802380Y-114309523D01*
X213754761Y-114547619D02*
X214469047Y-114785714D01*
X214469047Y-114166666D01*
%TO.C,A1*%
X218905714Y-63086666D02*
X219381904Y-63086666D01*
X218810476Y-63372380D02*
X219143809Y-62372380D01*
X219477142Y-63372380D01*
X220334285Y-63372380D02*
X219762857Y-63372380D01*
X220048571Y-63372380D02*
X220048571Y-62372380D01*
X219953333Y-62515238D01*
X219858095Y-62610476D01*
X219762857Y-62658095D01*
%TD*%
M02*
