%TF.GenerationSoftware,KiCad,Pcbnew,(5.1.6)-1*%
%TF.CreationDate,2021-10-09T15:15:23-05:00*%
%TF.ProjectId,Jeep JTEC,4a656570-204a-4544-9543-2e6b69636164,rev?*%
%TF.SameCoordinates,Original*%
%TF.FileFunction,Paste,Top*%
%TF.FilePolarity,Positive*%
%FSLAX46Y46*%
G04 Gerber Fmt 4.6, Leading zero omitted, Abs format (unit mm)*
G04 Created by KiCad (PCBNEW (5.1.6)-1) date 2021-10-09 15:15:23*
%MOMM*%
%LPD*%
G01*
G04 APERTURE LIST*
%ADD10R,0.650000X1.060000*%
%ADD11R,0.900000X0.800000*%
G04 APERTURE END LIST*
D10*
%TO.C,U2*%
X229000000Y-113720000D03*
X228050000Y-113720000D03*
X229950000Y-113720000D03*
X229950000Y-115920000D03*
X229000000Y-115920000D03*
X228050000Y-115920000D03*
%TD*%
%TO.C,R19*%
G36*
G01*
X193450000Y-126456250D02*
X193450000Y-125543750D01*
G75*
G02*
X193693750Y-125300000I243750J0D01*
G01*
X194181250Y-125300000D01*
G75*
G02*
X194425000Y-125543750I0J-243750D01*
G01*
X194425000Y-126456250D01*
G75*
G02*
X194181250Y-126700000I-243750J0D01*
G01*
X193693750Y-126700000D01*
G75*
G02*
X193450000Y-126456250I0J243750D01*
G01*
G37*
G36*
G01*
X191575000Y-126456250D02*
X191575000Y-125543750D01*
G75*
G02*
X191818750Y-125300000I243750J0D01*
G01*
X192306250Y-125300000D01*
G75*
G02*
X192550000Y-125543750I0J-243750D01*
G01*
X192550000Y-126456250D01*
G75*
G02*
X192306250Y-126700000I-243750J0D01*
G01*
X191818750Y-126700000D01*
G75*
G02*
X191575000Y-126456250I0J243750D01*
G01*
G37*
%TD*%
%TO.C,U1*%
G36*
G01*
X215245000Y-120500000D02*
X214945000Y-120500000D01*
G75*
G02*
X214795000Y-120350000I0J150000D01*
G01*
X214795000Y-118700000D01*
G75*
G02*
X214945000Y-118550000I150000J0D01*
G01*
X215245000Y-118550000D01*
G75*
G02*
X215395000Y-118700000I0J-150000D01*
G01*
X215395000Y-120350000D01*
G75*
G02*
X215245000Y-120500000I-150000J0D01*
G01*
G37*
G36*
G01*
X216515000Y-120500000D02*
X216215000Y-120500000D01*
G75*
G02*
X216065000Y-120350000I0J150000D01*
G01*
X216065000Y-118700000D01*
G75*
G02*
X216215000Y-118550000I150000J0D01*
G01*
X216515000Y-118550000D01*
G75*
G02*
X216665000Y-118700000I0J-150000D01*
G01*
X216665000Y-120350000D01*
G75*
G02*
X216515000Y-120500000I-150000J0D01*
G01*
G37*
G36*
G01*
X217785000Y-120500000D02*
X217485000Y-120500000D01*
G75*
G02*
X217335000Y-120350000I0J150000D01*
G01*
X217335000Y-118700000D01*
G75*
G02*
X217485000Y-118550000I150000J0D01*
G01*
X217785000Y-118550000D01*
G75*
G02*
X217935000Y-118700000I0J-150000D01*
G01*
X217935000Y-120350000D01*
G75*
G02*
X217785000Y-120500000I-150000J0D01*
G01*
G37*
G36*
G01*
X219055000Y-120500000D02*
X218755000Y-120500000D01*
G75*
G02*
X218605000Y-120350000I0J150000D01*
G01*
X218605000Y-118700000D01*
G75*
G02*
X218755000Y-118550000I150000J0D01*
G01*
X219055000Y-118550000D01*
G75*
G02*
X219205000Y-118700000I0J-150000D01*
G01*
X219205000Y-120350000D01*
G75*
G02*
X219055000Y-120500000I-150000J0D01*
G01*
G37*
G36*
G01*
X219055000Y-125450000D02*
X218755000Y-125450000D01*
G75*
G02*
X218605000Y-125300000I0J150000D01*
G01*
X218605000Y-123650000D01*
G75*
G02*
X218755000Y-123500000I150000J0D01*
G01*
X219055000Y-123500000D01*
G75*
G02*
X219205000Y-123650000I0J-150000D01*
G01*
X219205000Y-125300000D01*
G75*
G02*
X219055000Y-125450000I-150000J0D01*
G01*
G37*
G36*
G01*
X217785000Y-125450000D02*
X217485000Y-125450000D01*
G75*
G02*
X217335000Y-125300000I0J150000D01*
G01*
X217335000Y-123650000D01*
G75*
G02*
X217485000Y-123500000I150000J0D01*
G01*
X217785000Y-123500000D01*
G75*
G02*
X217935000Y-123650000I0J-150000D01*
G01*
X217935000Y-125300000D01*
G75*
G02*
X217785000Y-125450000I-150000J0D01*
G01*
G37*
G36*
G01*
X216515000Y-125450000D02*
X216215000Y-125450000D01*
G75*
G02*
X216065000Y-125300000I0J150000D01*
G01*
X216065000Y-123650000D01*
G75*
G02*
X216215000Y-123500000I150000J0D01*
G01*
X216515000Y-123500000D01*
G75*
G02*
X216665000Y-123650000I0J-150000D01*
G01*
X216665000Y-125300000D01*
G75*
G02*
X216515000Y-125450000I-150000J0D01*
G01*
G37*
G36*
G01*
X215245000Y-125450000D02*
X214945000Y-125450000D01*
G75*
G02*
X214795000Y-125300000I0J150000D01*
G01*
X214795000Y-123650000D01*
G75*
G02*
X214945000Y-123500000I150000J0D01*
G01*
X215245000Y-123500000D01*
G75*
G02*
X215395000Y-123650000I0J-150000D01*
G01*
X215395000Y-125300000D01*
G75*
G02*
X215245000Y-125450000I-150000J0D01*
G01*
G37*
%TD*%
%TO.C,R18*%
G36*
G01*
X246450000Y-124456250D02*
X246450000Y-123543750D01*
G75*
G02*
X246693750Y-123300000I243750J0D01*
G01*
X247181250Y-123300000D01*
G75*
G02*
X247425000Y-123543750I0J-243750D01*
G01*
X247425000Y-124456250D01*
G75*
G02*
X247181250Y-124700000I-243750J0D01*
G01*
X246693750Y-124700000D01*
G75*
G02*
X246450000Y-124456250I0J243750D01*
G01*
G37*
G36*
G01*
X244575000Y-124456250D02*
X244575000Y-123543750D01*
G75*
G02*
X244818750Y-123300000I243750J0D01*
G01*
X245306250Y-123300000D01*
G75*
G02*
X245550000Y-123543750I0J-243750D01*
G01*
X245550000Y-124456250D01*
G75*
G02*
X245306250Y-124700000I-243750J0D01*
G01*
X244818750Y-124700000D01*
G75*
G02*
X244575000Y-124456250I0J243750D01*
G01*
G37*
%TD*%
%TO.C,R17*%
G36*
G01*
X248456250Y-64550000D02*
X247543750Y-64550000D01*
G75*
G02*
X247300000Y-64306250I0J243750D01*
G01*
X247300000Y-63818750D01*
G75*
G02*
X247543750Y-63575000I243750J0D01*
G01*
X248456250Y-63575000D01*
G75*
G02*
X248700000Y-63818750I0J-243750D01*
G01*
X248700000Y-64306250D01*
G75*
G02*
X248456250Y-64550000I-243750J0D01*
G01*
G37*
G36*
G01*
X248456250Y-66425000D02*
X247543750Y-66425000D01*
G75*
G02*
X247300000Y-66181250I0J243750D01*
G01*
X247300000Y-65693750D01*
G75*
G02*
X247543750Y-65450000I243750J0D01*
G01*
X248456250Y-65450000D01*
G75*
G02*
X248700000Y-65693750I0J-243750D01*
G01*
X248700000Y-66181250D01*
G75*
G02*
X248456250Y-66425000I-243750J0D01*
G01*
G37*
%TD*%
%TO.C,R16*%
G36*
G01*
X244336250Y-64520000D02*
X243423750Y-64520000D01*
G75*
G02*
X243180000Y-64276250I0J243750D01*
G01*
X243180000Y-63788750D01*
G75*
G02*
X243423750Y-63545000I243750J0D01*
G01*
X244336250Y-63545000D01*
G75*
G02*
X244580000Y-63788750I0J-243750D01*
G01*
X244580000Y-64276250D01*
G75*
G02*
X244336250Y-64520000I-243750J0D01*
G01*
G37*
G36*
G01*
X244336250Y-66395000D02*
X243423750Y-66395000D01*
G75*
G02*
X243180000Y-66151250I0J243750D01*
G01*
X243180000Y-65663750D01*
G75*
G02*
X243423750Y-65420000I243750J0D01*
G01*
X244336250Y-65420000D01*
G75*
G02*
X244580000Y-65663750I0J-243750D01*
G01*
X244580000Y-66151250D01*
G75*
G02*
X244336250Y-66395000I-243750J0D01*
G01*
G37*
%TD*%
%TO.C,R15*%
G36*
G01*
X240386250Y-64520000D02*
X239473750Y-64520000D01*
G75*
G02*
X239230000Y-64276250I0J243750D01*
G01*
X239230000Y-63788750D01*
G75*
G02*
X239473750Y-63545000I243750J0D01*
G01*
X240386250Y-63545000D01*
G75*
G02*
X240630000Y-63788750I0J-243750D01*
G01*
X240630000Y-64276250D01*
G75*
G02*
X240386250Y-64520000I-243750J0D01*
G01*
G37*
G36*
G01*
X240386250Y-66395000D02*
X239473750Y-66395000D01*
G75*
G02*
X239230000Y-66151250I0J243750D01*
G01*
X239230000Y-65663750D01*
G75*
G02*
X239473750Y-65420000I243750J0D01*
G01*
X240386250Y-65420000D01*
G75*
G02*
X240630000Y-65663750I0J-243750D01*
G01*
X240630000Y-66151250D01*
G75*
G02*
X240386250Y-66395000I-243750J0D01*
G01*
G37*
%TD*%
%TO.C,R14*%
G36*
G01*
X252456250Y-64550000D02*
X251543750Y-64550000D01*
G75*
G02*
X251300000Y-64306250I0J243750D01*
G01*
X251300000Y-63818750D01*
G75*
G02*
X251543750Y-63575000I243750J0D01*
G01*
X252456250Y-63575000D01*
G75*
G02*
X252700000Y-63818750I0J-243750D01*
G01*
X252700000Y-64306250D01*
G75*
G02*
X252456250Y-64550000I-243750J0D01*
G01*
G37*
G36*
G01*
X252456250Y-66425000D02*
X251543750Y-66425000D01*
G75*
G02*
X251300000Y-66181250I0J243750D01*
G01*
X251300000Y-65693750D01*
G75*
G02*
X251543750Y-65450000I243750J0D01*
G01*
X252456250Y-65450000D01*
G75*
G02*
X252700000Y-65693750I0J-243750D01*
G01*
X252700000Y-66181250D01*
G75*
G02*
X252456250Y-66425000I-243750J0D01*
G01*
G37*
%TD*%
%TO.C,R13*%
G36*
G01*
X236436250Y-64520000D02*
X235523750Y-64520000D01*
G75*
G02*
X235280000Y-64276250I0J243750D01*
G01*
X235280000Y-63788750D01*
G75*
G02*
X235523750Y-63545000I243750J0D01*
G01*
X236436250Y-63545000D01*
G75*
G02*
X236680000Y-63788750I0J-243750D01*
G01*
X236680000Y-64276250D01*
G75*
G02*
X236436250Y-64520000I-243750J0D01*
G01*
G37*
G36*
G01*
X236436250Y-66395000D02*
X235523750Y-66395000D01*
G75*
G02*
X235280000Y-66151250I0J243750D01*
G01*
X235280000Y-65663750D01*
G75*
G02*
X235523750Y-65420000I243750J0D01*
G01*
X236436250Y-65420000D01*
G75*
G02*
X236680000Y-65663750I0J-243750D01*
G01*
X236680000Y-66151250D01*
G75*
G02*
X236436250Y-66395000I-243750J0D01*
G01*
G37*
%TD*%
%TO.C,R12*%
G36*
G01*
X232486250Y-64520000D02*
X231573750Y-64520000D01*
G75*
G02*
X231330000Y-64276250I0J243750D01*
G01*
X231330000Y-63788750D01*
G75*
G02*
X231573750Y-63545000I243750J0D01*
G01*
X232486250Y-63545000D01*
G75*
G02*
X232730000Y-63788750I0J-243750D01*
G01*
X232730000Y-64276250D01*
G75*
G02*
X232486250Y-64520000I-243750J0D01*
G01*
G37*
G36*
G01*
X232486250Y-66395000D02*
X231573750Y-66395000D01*
G75*
G02*
X231330000Y-66151250I0J243750D01*
G01*
X231330000Y-65663750D01*
G75*
G02*
X231573750Y-65420000I243750J0D01*
G01*
X232486250Y-65420000D01*
G75*
G02*
X232730000Y-65663750I0J-243750D01*
G01*
X232730000Y-66151250D01*
G75*
G02*
X232486250Y-66395000I-243750J0D01*
G01*
G37*
%TD*%
%TO.C,R11*%
G36*
G01*
X240450000Y-124456250D02*
X240450000Y-123543750D01*
G75*
G02*
X240693750Y-123300000I243750J0D01*
G01*
X241181250Y-123300000D01*
G75*
G02*
X241425000Y-123543750I0J-243750D01*
G01*
X241425000Y-124456250D01*
G75*
G02*
X241181250Y-124700000I-243750J0D01*
G01*
X240693750Y-124700000D01*
G75*
G02*
X240450000Y-124456250I0J243750D01*
G01*
G37*
G36*
G01*
X238575000Y-124456250D02*
X238575000Y-123543750D01*
G75*
G02*
X238818750Y-123300000I243750J0D01*
G01*
X239306250Y-123300000D01*
G75*
G02*
X239550000Y-123543750I0J-243750D01*
G01*
X239550000Y-124456250D01*
G75*
G02*
X239306250Y-124700000I-243750J0D01*
G01*
X238818750Y-124700000D01*
G75*
G02*
X238575000Y-124456250I0J243750D01*
G01*
G37*
%TD*%
%TO.C,R10*%
G36*
G01*
X247456250Y-114550000D02*
X246543750Y-114550000D01*
G75*
G02*
X246300000Y-114306250I0J243750D01*
G01*
X246300000Y-113818750D01*
G75*
G02*
X246543750Y-113575000I243750J0D01*
G01*
X247456250Y-113575000D01*
G75*
G02*
X247700000Y-113818750I0J-243750D01*
G01*
X247700000Y-114306250D01*
G75*
G02*
X247456250Y-114550000I-243750J0D01*
G01*
G37*
G36*
G01*
X247456250Y-116425000D02*
X246543750Y-116425000D01*
G75*
G02*
X246300000Y-116181250I0J243750D01*
G01*
X246300000Y-115693750D01*
G75*
G02*
X246543750Y-115450000I243750J0D01*
G01*
X247456250Y-115450000D01*
G75*
G02*
X247700000Y-115693750I0J-243750D01*
G01*
X247700000Y-116181250D01*
G75*
G02*
X247456250Y-116425000I-243750J0D01*
G01*
G37*
%TD*%
%TO.C,R9*%
G36*
G01*
X246450000Y-120456250D02*
X246450000Y-119543750D01*
G75*
G02*
X246693750Y-119300000I243750J0D01*
G01*
X247181250Y-119300000D01*
G75*
G02*
X247425000Y-119543750I0J-243750D01*
G01*
X247425000Y-120456250D01*
G75*
G02*
X247181250Y-120700000I-243750J0D01*
G01*
X246693750Y-120700000D01*
G75*
G02*
X246450000Y-120456250I0J243750D01*
G01*
G37*
G36*
G01*
X244575000Y-120456250D02*
X244575000Y-119543750D01*
G75*
G02*
X244818750Y-119300000I243750J0D01*
G01*
X245306250Y-119300000D01*
G75*
G02*
X245550000Y-119543750I0J-243750D01*
G01*
X245550000Y-120456250D01*
G75*
G02*
X245306250Y-120700000I-243750J0D01*
G01*
X244818750Y-120700000D01*
G75*
G02*
X244575000Y-120456250I0J243750D01*
G01*
G37*
%TD*%
%TO.C,R8*%
G36*
G01*
X240456250Y-114550000D02*
X239543750Y-114550000D01*
G75*
G02*
X239300000Y-114306250I0J243750D01*
G01*
X239300000Y-113818750D01*
G75*
G02*
X239543750Y-113575000I243750J0D01*
G01*
X240456250Y-113575000D01*
G75*
G02*
X240700000Y-113818750I0J-243750D01*
G01*
X240700000Y-114306250D01*
G75*
G02*
X240456250Y-114550000I-243750J0D01*
G01*
G37*
G36*
G01*
X240456250Y-116425000D02*
X239543750Y-116425000D01*
G75*
G02*
X239300000Y-116181250I0J243750D01*
G01*
X239300000Y-115693750D01*
G75*
G02*
X239543750Y-115450000I243750J0D01*
G01*
X240456250Y-115450000D01*
G75*
G02*
X240700000Y-115693750I0J-243750D01*
G01*
X240700000Y-116181250D01*
G75*
G02*
X240456250Y-116425000I-243750J0D01*
G01*
G37*
%TD*%
%TO.C,R7*%
G36*
G01*
X240450000Y-120456250D02*
X240450000Y-119543750D01*
G75*
G02*
X240693750Y-119300000I243750J0D01*
G01*
X241181250Y-119300000D01*
G75*
G02*
X241425000Y-119543750I0J-243750D01*
G01*
X241425000Y-120456250D01*
G75*
G02*
X241181250Y-120700000I-243750J0D01*
G01*
X240693750Y-120700000D01*
G75*
G02*
X240450000Y-120456250I0J243750D01*
G01*
G37*
G36*
G01*
X238575000Y-120456250D02*
X238575000Y-119543750D01*
G75*
G02*
X238818750Y-119300000I243750J0D01*
G01*
X239306250Y-119300000D01*
G75*
G02*
X239550000Y-119543750I0J-243750D01*
G01*
X239550000Y-120456250D01*
G75*
G02*
X239306250Y-120700000I-243750J0D01*
G01*
X238818750Y-120700000D01*
G75*
G02*
X238575000Y-120456250I0J243750D01*
G01*
G37*
%TD*%
%TO.C,R6*%
G36*
G01*
X212456250Y-114550000D02*
X211543750Y-114550000D01*
G75*
G02*
X211300000Y-114306250I0J243750D01*
G01*
X211300000Y-113818750D01*
G75*
G02*
X211543750Y-113575000I243750J0D01*
G01*
X212456250Y-113575000D01*
G75*
G02*
X212700000Y-113818750I0J-243750D01*
G01*
X212700000Y-114306250D01*
G75*
G02*
X212456250Y-114550000I-243750J0D01*
G01*
G37*
G36*
G01*
X212456250Y-116425000D02*
X211543750Y-116425000D01*
G75*
G02*
X211300000Y-116181250I0J243750D01*
G01*
X211300000Y-115693750D01*
G75*
G02*
X211543750Y-115450000I243750J0D01*
G01*
X212456250Y-115450000D01*
G75*
G02*
X212700000Y-115693750I0J-243750D01*
G01*
X212700000Y-116181250D01*
G75*
G02*
X212456250Y-116425000I-243750J0D01*
G01*
G37*
%TD*%
%TO.C,R5*%
G36*
G01*
X252450000Y-120456250D02*
X252450000Y-119543750D01*
G75*
G02*
X252693750Y-119300000I243750J0D01*
G01*
X253181250Y-119300000D01*
G75*
G02*
X253425000Y-119543750I0J-243750D01*
G01*
X253425000Y-120456250D01*
G75*
G02*
X253181250Y-120700000I-243750J0D01*
G01*
X252693750Y-120700000D01*
G75*
G02*
X252450000Y-120456250I0J243750D01*
G01*
G37*
G36*
G01*
X250575000Y-120456250D02*
X250575000Y-119543750D01*
G75*
G02*
X250818750Y-119300000I243750J0D01*
G01*
X251306250Y-119300000D01*
G75*
G02*
X251550000Y-119543750I0J-243750D01*
G01*
X251550000Y-120456250D01*
G75*
G02*
X251306250Y-120700000I-243750J0D01*
G01*
X250818750Y-120700000D01*
G75*
G02*
X250575000Y-120456250I0J243750D01*
G01*
G37*
%TD*%
%TO.C,R4*%
G36*
G01*
X208456250Y-114550000D02*
X207543750Y-114550000D01*
G75*
G02*
X207300000Y-114306250I0J243750D01*
G01*
X207300000Y-113818750D01*
G75*
G02*
X207543750Y-113575000I243750J0D01*
G01*
X208456250Y-113575000D01*
G75*
G02*
X208700000Y-113818750I0J-243750D01*
G01*
X208700000Y-114306250D01*
G75*
G02*
X208456250Y-114550000I-243750J0D01*
G01*
G37*
G36*
G01*
X208456250Y-116425000D02*
X207543750Y-116425000D01*
G75*
G02*
X207300000Y-116181250I0J243750D01*
G01*
X207300000Y-115693750D01*
G75*
G02*
X207543750Y-115450000I243750J0D01*
G01*
X208456250Y-115450000D01*
G75*
G02*
X208700000Y-115693750I0J-243750D01*
G01*
X208700000Y-116181250D01*
G75*
G02*
X208456250Y-116425000I-243750J0D01*
G01*
G37*
%TD*%
%TO.C,R3*%
G36*
G01*
X204456250Y-114550000D02*
X203543750Y-114550000D01*
G75*
G02*
X203300000Y-114306250I0J243750D01*
G01*
X203300000Y-113818750D01*
G75*
G02*
X203543750Y-113575000I243750J0D01*
G01*
X204456250Y-113575000D01*
G75*
G02*
X204700000Y-113818750I0J-243750D01*
G01*
X204700000Y-114306250D01*
G75*
G02*
X204456250Y-114550000I-243750J0D01*
G01*
G37*
G36*
G01*
X204456250Y-116425000D02*
X203543750Y-116425000D01*
G75*
G02*
X203300000Y-116181250I0J243750D01*
G01*
X203300000Y-115693750D01*
G75*
G02*
X203543750Y-115450000I243750J0D01*
G01*
X204456250Y-115450000D01*
G75*
G02*
X204700000Y-115693750I0J-243750D01*
G01*
X204700000Y-116181250D01*
G75*
G02*
X204456250Y-116425000I-243750J0D01*
G01*
G37*
%TD*%
%TO.C,R2*%
G36*
G01*
X199450000Y-120456250D02*
X199450000Y-119543750D01*
G75*
G02*
X199693750Y-119300000I243750J0D01*
G01*
X200181250Y-119300000D01*
G75*
G02*
X200425000Y-119543750I0J-243750D01*
G01*
X200425000Y-120456250D01*
G75*
G02*
X200181250Y-120700000I-243750J0D01*
G01*
X199693750Y-120700000D01*
G75*
G02*
X199450000Y-120456250I0J243750D01*
G01*
G37*
G36*
G01*
X197575000Y-120456250D02*
X197575000Y-119543750D01*
G75*
G02*
X197818750Y-119300000I243750J0D01*
G01*
X198306250Y-119300000D01*
G75*
G02*
X198550000Y-119543750I0J-243750D01*
G01*
X198550000Y-120456250D01*
G75*
G02*
X198306250Y-120700000I-243750J0D01*
G01*
X197818750Y-120700000D01*
G75*
G02*
X197575000Y-120456250I0J243750D01*
G01*
G37*
%TD*%
%TO.C,R1*%
G36*
G01*
X200456250Y-114550000D02*
X199543750Y-114550000D01*
G75*
G02*
X199300000Y-114306250I0J243750D01*
G01*
X199300000Y-113818750D01*
G75*
G02*
X199543750Y-113575000I243750J0D01*
G01*
X200456250Y-113575000D01*
G75*
G02*
X200700000Y-113818750I0J-243750D01*
G01*
X200700000Y-114306250D01*
G75*
G02*
X200456250Y-114550000I-243750J0D01*
G01*
G37*
G36*
G01*
X200456250Y-116425000D02*
X199543750Y-116425000D01*
G75*
G02*
X199300000Y-116181250I0J243750D01*
G01*
X199300000Y-115693750D01*
G75*
G02*
X199543750Y-115450000I243750J0D01*
G01*
X200456250Y-115450000D01*
G75*
G02*
X200700000Y-115693750I0J-243750D01*
G01*
X200700000Y-116181250D01*
G75*
G02*
X200456250Y-116425000I-243750J0D01*
G01*
G37*
%TD*%
%TO.C,Q2*%
G36*
G01*
X206245000Y-120500000D02*
X205945000Y-120500000D01*
G75*
G02*
X205795000Y-120350000I0J150000D01*
G01*
X205795000Y-118700000D01*
G75*
G02*
X205945000Y-118550000I150000J0D01*
G01*
X206245000Y-118550000D01*
G75*
G02*
X206395000Y-118700000I0J-150000D01*
G01*
X206395000Y-120350000D01*
G75*
G02*
X206245000Y-120500000I-150000J0D01*
G01*
G37*
G36*
G01*
X207515000Y-120500000D02*
X207215000Y-120500000D01*
G75*
G02*
X207065000Y-120350000I0J150000D01*
G01*
X207065000Y-118700000D01*
G75*
G02*
X207215000Y-118550000I150000J0D01*
G01*
X207515000Y-118550000D01*
G75*
G02*
X207665000Y-118700000I0J-150000D01*
G01*
X207665000Y-120350000D01*
G75*
G02*
X207515000Y-120500000I-150000J0D01*
G01*
G37*
G36*
G01*
X208785000Y-120500000D02*
X208485000Y-120500000D01*
G75*
G02*
X208335000Y-120350000I0J150000D01*
G01*
X208335000Y-118700000D01*
G75*
G02*
X208485000Y-118550000I150000J0D01*
G01*
X208785000Y-118550000D01*
G75*
G02*
X208935000Y-118700000I0J-150000D01*
G01*
X208935000Y-120350000D01*
G75*
G02*
X208785000Y-120500000I-150000J0D01*
G01*
G37*
G36*
G01*
X210055000Y-120500000D02*
X209755000Y-120500000D01*
G75*
G02*
X209605000Y-120350000I0J150000D01*
G01*
X209605000Y-118700000D01*
G75*
G02*
X209755000Y-118550000I150000J0D01*
G01*
X210055000Y-118550000D01*
G75*
G02*
X210205000Y-118700000I0J-150000D01*
G01*
X210205000Y-120350000D01*
G75*
G02*
X210055000Y-120500000I-150000J0D01*
G01*
G37*
G36*
G01*
X210055000Y-125450000D02*
X209755000Y-125450000D01*
G75*
G02*
X209605000Y-125300000I0J150000D01*
G01*
X209605000Y-123650000D01*
G75*
G02*
X209755000Y-123500000I150000J0D01*
G01*
X210055000Y-123500000D01*
G75*
G02*
X210205000Y-123650000I0J-150000D01*
G01*
X210205000Y-125300000D01*
G75*
G02*
X210055000Y-125450000I-150000J0D01*
G01*
G37*
G36*
G01*
X208785000Y-125450000D02*
X208485000Y-125450000D01*
G75*
G02*
X208335000Y-125300000I0J150000D01*
G01*
X208335000Y-123650000D01*
G75*
G02*
X208485000Y-123500000I150000J0D01*
G01*
X208785000Y-123500000D01*
G75*
G02*
X208935000Y-123650000I0J-150000D01*
G01*
X208935000Y-125300000D01*
G75*
G02*
X208785000Y-125450000I-150000J0D01*
G01*
G37*
G36*
G01*
X207515000Y-125450000D02*
X207215000Y-125450000D01*
G75*
G02*
X207065000Y-125300000I0J150000D01*
G01*
X207065000Y-123650000D01*
G75*
G02*
X207215000Y-123500000I150000J0D01*
G01*
X207515000Y-123500000D01*
G75*
G02*
X207665000Y-123650000I0J-150000D01*
G01*
X207665000Y-125300000D01*
G75*
G02*
X207515000Y-125450000I-150000J0D01*
G01*
G37*
G36*
G01*
X206245000Y-125450000D02*
X205945000Y-125450000D01*
G75*
G02*
X205795000Y-125300000I0J150000D01*
G01*
X205795000Y-123650000D01*
G75*
G02*
X205945000Y-123500000I150000J0D01*
G01*
X206245000Y-123500000D01*
G75*
G02*
X206395000Y-123650000I0J-150000D01*
G01*
X206395000Y-125300000D01*
G75*
G02*
X206245000Y-125450000I-150000J0D01*
G01*
G37*
%TD*%
D11*
%TO.C,Q1*%
X200000000Y-125000000D03*
X198000000Y-125950000D03*
X198000000Y-124050000D03*
%TD*%
%TO.C,D1*%
X253000000Y-115000000D03*
X251000000Y-115950000D03*
X251000000Y-114050000D03*
%TD*%
%TO.C,C6*%
G36*
G01*
X235456250Y-114550000D02*
X234543750Y-114550000D01*
G75*
G02*
X234300000Y-114306250I0J243750D01*
G01*
X234300000Y-113818750D01*
G75*
G02*
X234543750Y-113575000I243750J0D01*
G01*
X235456250Y-113575000D01*
G75*
G02*
X235700000Y-113818750I0J-243750D01*
G01*
X235700000Y-114306250D01*
G75*
G02*
X235456250Y-114550000I-243750J0D01*
G01*
G37*
G36*
G01*
X235456250Y-116425000D02*
X234543750Y-116425000D01*
G75*
G02*
X234300000Y-116181250I0J243750D01*
G01*
X234300000Y-115693750D01*
G75*
G02*
X234543750Y-115450000I243750J0D01*
G01*
X235456250Y-115450000D01*
G75*
G02*
X235700000Y-115693750I0J-243750D01*
G01*
X235700000Y-116181250D01*
G75*
G02*
X235456250Y-116425000I-243750J0D01*
G01*
G37*
%TD*%
%TO.C,C5*%
G36*
G01*
X224456250Y-114550000D02*
X223543750Y-114550000D01*
G75*
G02*
X223300000Y-114306250I0J243750D01*
G01*
X223300000Y-113818750D01*
G75*
G02*
X223543750Y-113575000I243750J0D01*
G01*
X224456250Y-113575000D01*
G75*
G02*
X224700000Y-113818750I0J-243750D01*
G01*
X224700000Y-114306250D01*
G75*
G02*
X224456250Y-114550000I-243750J0D01*
G01*
G37*
G36*
G01*
X224456250Y-116425000D02*
X223543750Y-116425000D01*
G75*
G02*
X223300000Y-116181250I0J243750D01*
G01*
X223300000Y-115693750D01*
G75*
G02*
X223543750Y-115450000I243750J0D01*
G01*
X224456250Y-115450000D01*
G75*
G02*
X224700000Y-115693750I0J-243750D01*
G01*
X224700000Y-116181250D01*
G75*
G02*
X224456250Y-116425000I-243750J0D01*
G01*
G37*
%TD*%
%TO.C,C4*%
G36*
G01*
X216456250Y-114550000D02*
X215543750Y-114550000D01*
G75*
G02*
X215300000Y-114306250I0J243750D01*
G01*
X215300000Y-113818750D01*
G75*
G02*
X215543750Y-113575000I243750J0D01*
G01*
X216456250Y-113575000D01*
G75*
G02*
X216700000Y-113818750I0J-243750D01*
G01*
X216700000Y-114306250D01*
G75*
G02*
X216456250Y-114550000I-243750J0D01*
G01*
G37*
G36*
G01*
X216456250Y-116425000D02*
X215543750Y-116425000D01*
G75*
G02*
X215300000Y-116181250I0J243750D01*
G01*
X215300000Y-115693750D01*
G75*
G02*
X215543750Y-115450000I243750J0D01*
G01*
X216456250Y-115450000D01*
G75*
G02*
X216700000Y-115693750I0J-243750D01*
G01*
X216700000Y-116181250D01*
G75*
G02*
X216456250Y-116425000I-243750J0D01*
G01*
G37*
%TD*%
M02*
